<svg width="14" height="14" viewBox="0 0 14 14" fill="none" xmlns="http://www.w3.org/2000/svg">
<g clip-path="url(#clip0_321_7491)">
<path fill-rule="evenodd" clip-rule="evenodd" d="M4.12249 13.4207C5.08304 13.4791 6.04244 13.5021 7 13.4999C7.95745 13.5021 8.91696 13.4791 9.87755 13.4207C10.6865 13.3715 11.4539 13.1036 12.0937 12.5818C12.71 12.0792 13.0967 11.406 13.2891 10.6519C13.467 9.95533 13.4765 9.25506 13.4852 8.6225L13.4854 8.61005C13.4926 8.0751 13.4987 7.53841 13.5 7.00119V7V6.99881C13.4987 6.46158 13.4926 5.9249 13.4854 5.38995L13.4852 5.37749C13.4765 4.74494 13.4669 4.0447 13.2891 3.34801C13.0967 2.59392 12.71 1.92079 12.0937 1.41823C11.4539 0.896432 10.6865 0.628523 9.87755 0.57934C8.91696 0.520926 7.95745 0.497906 7 0.500148C6.04244 0.497906 5.08304 0.520926 4.12249 0.57934C3.31356 0.628523 2.54611 0.896432 1.90622 1.41823C1.28991 1.92079 0.903282 2.59393 0.710849 3.348C0.533042 4.0448 0.523476 4.74516 0.514842 5.3777L0.514679 5.38995C0.507356 5.9249 0.501257 6.46158 0.5 6.99881V7V7.00119C0.501257 7.53841 0.507356 8.0751 0.514679 8.61005L0.514842 8.62229C0.523476 9.25485 0.533042 9.95522 0.710849 10.652C0.903282 11.406 1.28991 12.0792 1.90622 12.5818C2.54611 13.1036 3.31356 13.3715 4.12249 13.4207ZM6.99881 12.4843C6.05858 12.4864 5.12042 12.4639 4.18415 12.4069C3.56263 12.3691 3.00473 12.1671 2.54811 11.7947C2.12386 11.4487 1.84169 10.9757 1.69498 10.4009C1.55055 9.83486 1.53918 9.24976 1.53024 8.59618C1.52295 8.06286 1.51691 7.53105 1.51567 7C1.51691 6.46895 1.52295 5.93714 1.53024 5.40381C1.53918 4.75023 1.55055 4.16514 1.69498 3.59912C1.84169 3.02425 2.12386 2.55127 2.54811 2.20533C3.00472 1.83297 3.56263 1.63089 4.18415 1.59309C5.12042 1.53615 6.05858 1.51355 6.99881 1.51577H7H7.00119C7.94131 1.51355 8.87958 1.53615 9.8158 1.59309C10.4374 1.63089 10.9952 1.83296 11.4519 2.20531C11.8761 2.55126 12.1583 3.02425 12.305 3.59911C12.4494 4.16513 12.4608 4.75022 12.4698 5.40381C12.477 5.93714 12.4831 6.46884 12.4844 7C12.4831 7.53115 12.477 8.06286 12.4698 8.59618C12.4608 9.24976 12.4494 9.83486 12.305 10.4009C12.1583 10.9757 11.8761 11.4487 11.4519 11.7947C10.9952 12.1671 10.4374 12.3691 9.8158 12.4069C8.87958 12.4639 7.94131 12.4864 7.00119 12.4843H7H6.99881Z" fill="white"/>
<path fill-rule="evenodd" clip-rule="evenodd" d="M3.84375 7.00091C3.84375 8.74453 5.25729 10.1581 7.00092 10.1581C8.74454 10.1581 10.1581 8.74453 10.1581 7.00091C10.1581 5.25728 8.74454 3.84375 7.00092 3.84375C5.25729 3.84375 3.84375 5.25728 3.84375 7.00091ZM7.00092 9.14775C5.81521 9.14775 4.85408 8.18662 4.85408 7.00091C4.85408 5.8152 5.81521 4.85407 7.00092 4.85407C8.18663 4.85407 9.14776 5.8152 9.14776 7.00091C9.14776 8.18662 8.18663 9.14775 7.00092 9.14775Z" fill="white"/>
<path d="M11.2708 3.47137C11.2708 3.88163 10.9383 4.21423 10.528 4.21423C10.1177 4.21423 9.78516 3.88163 9.78516 3.47137C9.78516 3.06112 10.1177 2.72852 10.528 2.72852C10.9383 2.72852 11.2708 3.06112 11.2708 3.47137Z" fill="white"/>
</g>
<defs>
<clipPath id="clip0_321_7491">
<rect width="14" height="14" fill="white"/>
</clipPath>
</defs>
</svg>
