<svg width="15" height="14" viewBox="0 0 15 14" fill="none" xmlns="http://www.w3.org/2000/svg">
<path d="M12.9994 3.75503C12.2563 3.75503 11.5707 3.50886 11.0201 3.09359C10.3888 2.61755 9.93508 1.91924 9.77485 1.11439C9.7352 0.915523 9.71386 0.710308 9.7118 0.5H7.58923V6.30006L7.58663 9.47704C7.58663 10.3264 7.03359 11.0466 6.26681 11.2999C6.04429 11.3733 5.80401 11.4082 5.55375 11.3944C5.23439 11.3769 4.93506 11.2805 4.67492 11.1249C4.12131 10.7937 3.74596 10.1931 3.73579 9.50597C3.71977 8.43206 4.58795 7.55651 5.66111 7.55651C5.87291 7.55651 6.07636 7.59107 6.26681 7.6539V6.06866V5.49872C6.06596 5.46903 5.86153 5.45343 5.65472 5.45343C4.48013 5.45343 3.38155 5.94169 2.59629 6.82136C2.00275 7.48609 1.64673 8.33413 1.5918 9.22343C1.51983 10.3917 1.94732 11.5022 2.77633 12.3216C2.89814 12.4419 3.02605 12.5535 3.15981 12.6565C3.87057 13.2035 4.73951 13.5 5.65472 13.5C5.86153 13.5 6.06596 13.4847 6.26681 13.455C7.12177 13.3284 7.91066 12.937 8.53314 12.3216C9.29808 11.5656 9.72069 10.5618 9.72524 9.49351L9.71441 4.74933C10.0793 5.03082 10.4783 5.26374 10.9065 5.44455C11.5725 5.72557 12.2787 5.86802 13.0055 5.8677V4.32643V3.75452L12.9994 3.75503Z" fill="white"/>
</svg>
