<svg width="24" height="24" viewBox="0 0 24 24" fill="none" xmlns="http://www.w3.org/2000/svg">
<path fill-rule="evenodd" clip-rule="evenodd" d="M15.6858 3.83145C16.5607 2.81746 17.1505 1.40518 16.9891 0C15.7283 0.048 14.203 0.805376 13.299 1.81816C12.4872 2.71695 11.7786 4.15308 11.9691 5.53066C13.3755 5.63505 14.811 4.84662 15.6858 3.83145ZM18.8396 12.75C18.8748 16.3824 22.1644 17.5907 22.2008 17.6063C22.1741 17.6915 21.6754 19.3279 20.468 21.0199C19.4232 22.4815 18.3396 23.9372 16.6323 23.9684C14.9554 23.9984 14.4154 23.0156 12.4969 23.0156C10.5797 23.0156 9.98027 23.937 8.3931 23.9982C6.74525 24.057 5.48935 22.4169 4.4373 20.9602C2.28466 17.9806 0.64046 12.5401 2.84891 8.86816C3.94586 7.04539 5.90555 5.88935 8.03392 5.86055C9.65143 5.83055 11.1791 6.90352 12.1681 6.90352C13.157 6.90352 15.0136 5.61353 16.9648 5.80313C17.7814 5.83553 20.0748 6.11863 21.5467 8.18379C21.4278 8.25459 18.8104 9.71405 18.8396 12.75Z" fill="white"/>
</svg>
