<svg width="20" height="20" viewBox="0 0 20 20" fill="none" xmlns="http://www.w3.org/2000/svg">
<path fill-rule="evenodd" clip-rule="evenodd" d="M5.00033 4.16602C4.54009 4.16602 4.16699 4.53911 4.16699 4.99935V9.99935C4.16699 10.8834 4.51818 11.7312 5.1433 12.3564C5.76842 12.9815 6.61627 13.3327 7.50033 13.3327H13.8218L11.9111 15.2434C11.5856 15.5689 11.5856 16.0965 11.9111 16.4219C12.2365 16.7474 12.7641 16.7474 13.0896 16.4219L16.4229 13.0886C16.7484 12.7632 16.7484 12.2355 16.4229 11.9101L13.0896 8.57676C12.7641 8.25132 12.2365 8.25132 11.9111 8.57676C11.5856 8.9022 11.5856 9.42983 11.9111 9.75527L13.8218 11.666H7.50033C7.0583 11.666 6.63437 11.4904 6.32181 11.1779C6.00925 10.8653 5.83366 10.4414 5.83366 9.99935V4.99935C5.83366 4.53911 5.46056 4.16602 5.00033 4.16602Z" fill="white"/>
</svg>
