<svg width="890" height="280" viewBox="0 0 890 280" fill="none" xmlns="http://www.w3.org/2000/svg">
<g clip-path="url(#clip0_460_1884)">
<circle cx="389.5" cy="258" r="4" fill="#205BF1"/>
<path d="M400.22 262V253.6H405.182V255.064H401.684V256.768H404.606V258.232H401.684V262H400.22ZM405.704 256H407.168V262H405.704V256ZM406.448 255.226C406.232 255.226 406.05 255.156 405.902 255.016C405.754 254.872 405.68 254.692 405.68 254.476C405.68 254.264 405.754 254.086 405.902 253.942C406.05 253.798 406.23 253.726 406.442 253.726C406.654 253.726 406.832 253.798 406.976 253.942C407.124 254.086 407.198 254.264 407.198 254.476C407.198 254.692 407.126 254.872 406.982 255.016C406.838 255.156 406.66 255.226 406.448 255.226ZM412.922 256H414.386V262.114C414.386 262.546 414.298 262.938 414.122 263.29C413.946 263.646 413.706 263.95 413.402 264.202C413.098 264.458 412.75 264.654 412.358 264.79C411.966 264.93 411.554 265 411.122 265C410.702 265 410.298 264.914 409.91 264.742C409.522 264.57 409.178 264.334 408.878 264.034C408.582 263.738 408.356 263.4 408.2 263.02L409.538 262.414C409.618 262.634 409.738 262.826 409.898 262.99C410.062 263.158 410.25 263.288 410.462 263.38C410.674 263.476 410.894 263.524 411.122 263.524C411.354 263.524 411.576 263.492 411.788 263.428C412.004 263.364 412.198 263.27 412.37 263.146C412.542 263.026 412.676 262.878 412.772 262.702C412.872 262.53 412.922 262.334 412.922 262.114V261.268C412.734 261.532 412.498 261.746 412.214 261.91C411.93 262.074 411.602 262.156 411.23 262.156C410.798 262.156 410.394 262.074 410.018 261.91C409.642 261.746 409.31 261.52 409.022 261.232C408.738 260.94 408.514 260.604 408.35 260.224C408.19 259.844 408.11 259.436 408.11 259C408.11 258.564 408.19 258.156 408.35 257.776C408.514 257.396 408.738 257.062 409.022 256.774C409.31 256.482 409.642 256.254 410.018 256.09C410.394 255.926 410.798 255.844 411.23 255.844C411.602 255.844 411.93 255.926 412.214 256.09C412.498 256.25 412.734 256.462 412.922 256.726V256ZM411.248 260.746C411.556 260.746 411.828 260.668 412.064 260.512C412.304 260.352 412.492 260.14 412.628 259.876C412.764 259.608 412.832 259.316 412.832 259C412.832 258.68 412.762 258.388 412.622 258.124C412.486 257.86 412.298 257.648 412.058 257.488C411.822 257.328 411.552 257.248 411.248 257.248C410.948 257.248 410.674 257.328 410.426 257.488C410.178 257.644 409.98 257.854 409.832 258.118C409.684 258.382 409.61 258.676 409.61 259C409.61 259.324 409.684 259.618 409.832 259.882C409.98 260.146 410.178 260.356 410.426 260.512C410.674 260.668 410.948 260.746 411.248 260.746ZM415.829 262V256H417.293V256.534C417.497 256.318 417.741 256.148 418.025 256.024C418.309 255.896 418.615 255.832 418.943 255.832C419.359 255.832 419.741 255.93 420.089 256.126C420.441 256.322 420.721 256.584 420.929 256.912C421.141 256.584 421.421 256.322 421.769 256.126C422.117 255.93 422.499 255.832 422.915 255.832C423.355 255.832 423.753 255.94 424.109 256.156C424.469 256.368 424.755 256.654 424.967 257.014C425.183 257.37 425.291 257.768 425.291 258.208V262H423.827V258.598C423.827 258.366 423.769 258.154 423.653 257.962C423.541 257.766 423.389 257.61 423.197 257.494C423.009 257.374 422.797 257.314 422.561 257.314C422.325 257.314 422.111 257.372 421.919 257.488C421.731 257.6 421.579 257.752 421.463 257.944C421.347 258.136 421.289 258.354 421.289 258.598V262H419.825V258.598C419.825 258.354 419.769 258.136 419.657 257.944C419.545 257.752 419.393 257.6 419.201 257.488C419.009 257.372 418.795 257.314 418.559 257.314C418.327 257.314 418.115 257.374 417.923 257.494C417.731 257.61 417.577 257.766 417.461 257.962C417.349 258.154 417.293 258.366 417.293 258.598V262H415.829ZM430.9 256H432.364V262H430.9L430.834 261.256C430.67 261.524 430.452 261.742 430.18 261.91C429.912 262.074 429.594 262.156 429.226 262.156C428.782 262.156 428.366 262.072 427.978 261.904C427.59 261.736 427.248 261.504 426.952 261.208C426.66 260.912 426.43 260.57 426.262 260.182C426.098 259.794 426.016 259.378 426.016 258.934C426.016 258.506 426.094 258.104 426.25 257.728C426.41 257.352 426.632 257.022 426.916 256.738C427.2 256.454 427.528 256.232 427.9 256.072C428.272 255.912 428.672 255.832 429.1 255.832C429.496 255.832 429.85 255.92 430.162 256.096C430.478 256.272 430.746 256.496 430.966 256.768L430.9 256ZM429.19 260.746C429.502 260.746 429.778 260.668 430.018 260.512C430.258 260.356 430.446 260.146 430.582 259.882C430.718 259.614 430.786 259.32 430.786 259C430.786 258.676 430.718 258.382 430.582 258.118C430.446 257.85 430.256 257.638 430.012 257.482C429.772 257.326 429.498 257.248 429.19 257.248C428.882 257.248 428.6 257.328 428.344 257.488C428.092 257.644 427.89 257.854 427.738 258.118C427.59 258.382 427.516 258.676 427.516 259C427.516 259.324 427.592 259.618 427.744 259.882C427.896 260.146 428.098 260.356 428.35 260.512C428.606 260.668 428.886 260.746 429.19 260.746Z" fill="white"/>
<circle cx="457.5" cy="258" r="4" fill="#3DA9CA"/>
<path d="M471.244 262.156C470.78 262.156 470.334 262.084 469.906 261.94C469.482 261.792 469.11 261.582 468.79 261.31C468.47 261.034 468.24 260.704 468.1 260.32L469.474 259.816C469.53 259.976 469.644 260.122 469.816 260.254C469.988 260.386 470.198 260.492 470.446 260.572C470.694 260.652 470.96 260.692 471.244 260.692C471.536 260.692 471.808 260.648 472.06 260.56C472.316 260.468 472.522 260.342 472.678 260.182C472.834 260.018 472.912 259.828 472.912 259.612C472.912 259.392 472.83 259.212 472.666 259.072C472.502 258.928 472.292 258.814 472.036 258.73C471.78 258.646 471.516 258.582 471.244 258.538C470.648 258.446 470.114 258.304 469.642 258.112C469.17 257.92 468.796 257.654 468.52 257.314C468.248 256.974 468.112 256.534 468.112 255.994C468.112 255.486 468.258 255.042 468.55 254.662C468.842 254.282 469.226 253.986 469.702 253.774C470.178 253.562 470.692 253.456 471.244 253.456C471.704 253.456 472.148 253.528 472.576 253.672C473.004 253.816 473.378 254.026 473.698 254.302C474.022 254.578 474.254 254.91 474.394 255.298L473.014 255.796C472.958 255.636 472.844 255.49 472.672 255.358C472.5 255.226 472.29 255.122 472.042 255.046C471.794 254.966 471.528 254.926 471.244 254.926C470.96 254.922 470.69 254.968 470.434 255.064C470.182 255.156 469.976 255.282 469.816 255.442C469.656 255.602 469.576 255.786 469.576 255.994C469.576 256.262 469.65 256.464 469.798 256.6C469.95 256.736 470.152 256.836 470.404 256.9C470.656 256.96 470.936 257.016 471.244 257.068C471.804 257.156 472.322 257.304 472.798 257.512C473.274 257.72 473.656 257.998 473.944 258.346C474.232 258.69 474.376 259.112 474.376 259.612C474.376 260.12 474.232 260.566 473.944 260.95C473.656 261.33 473.274 261.626 472.798 261.838C472.322 262.05 471.804 262.156 471.244 262.156ZM481.101 262H479.415L478.047 259.642L477.207 260.644V262H475.743V253H477.207V258.37L479.193 256H481.107L479.049 258.454L481.101 262ZM484.301 262.156C483.749 262.156 483.245 262.014 482.789 261.73C482.337 261.446 481.975 261.064 481.703 260.584C481.435 260.104 481.301 259.574 481.301 258.994C481.301 258.558 481.379 258.15 481.535 257.77C481.691 257.386 481.905 257.05 482.177 256.762C482.453 256.47 482.773 256.242 483.137 256.078C483.501 255.914 483.889 255.832 484.301 255.832C484.769 255.832 485.197 255.932 485.585 256.132C485.977 256.328 486.309 256.598 486.581 256.942C486.853 257.286 487.051 257.678 487.175 258.118C487.299 258.558 487.327 259.018 487.259 259.498H482.873C482.929 259.722 483.021 259.924 483.149 260.104C483.277 260.28 483.439 260.422 483.635 260.53C483.831 260.634 484.053 260.688 484.301 260.692C484.557 260.696 484.789 260.636 484.997 260.512C485.209 260.384 485.385 260.212 485.525 259.996L487.019 260.344C486.775 260.876 486.411 261.312 485.927 261.652C485.443 261.988 484.901 262.156 484.301 262.156ZM482.825 258.4H485.777C485.733 258.16 485.639 257.944 485.495 257.752C485.355 257.556 485.181 257.4 484.973 257.284C484.765 257.168 484.541 257.11 484.301 257.11C484.061 257.11 483.839 257.168 483.635 257.284C483.431 257.396 483.257 257.55 483.113 257.746C482.973 257.938 482.877 258.156 482.825 258.4ZM491.452 257.464H490.288V262H488.824V257.464H487.936V256H488.824V254.116H490.288V256H491.452V257.464ZM496.116 260.194L497.436 260.908C497.16 261.284 496.814 261.586 496.398 261.814C495.982 262.042 495.528 262.156 495.036 262.156C494.484 262.156 493.98 262.014 493.524 261.73C493.072 261.446 492.71 261.066 492.438 260.59C492.17 260.11 492.036 259.58 492.036 259C492.036 258.56 492.114 258.15 492.27 257.77C492.426 257.386 492.64 257.05 492.912 256.762C493.188 256.47 493.508 256.242 493.872 256.078C494.236 255.914 494.624 255.832 495.036 255.832C495.528 255.832 495.982 255.946 496.398 256.174C496.814 256.402 497.16 256.708 497.436 257.092L496.116 257.8C495.976 257.64 495.81 257.516 495.618 257.428C495.43 257.34 495.236 257.296 495.036 257.296C494.748 257.296 494.488 257.376 494.256 257.536C494.024 257.692 493.84 257.9 493.704 258.16C493.568 258.416 493.5 258.696 493.5 259C493.5 259.3 493.568 259.58 493.704 259.84C493.84 260.096 494.024 260.302 494.256 260.458C494.488 260.614 494.748 260.692 495.036 260.692C495.244 260.692 495.442 260.648 495.63 260.56C495.818 260.468 495.98 260.346 496.116 260.194ZM503.821 258.208V262H502.357V258.592C502.357 258.356 502.299 258.142 502.183 257.95C502.067 257.754 501.911 257.6 501.715 257.488C501.523 257.372 501.309 257.314 501.073 257.314C500.837 257.314 500.621 257.372 500.425 257.488C500.233 257.6 500.079 257.754 499.963 257.95C499.851 258.142 499.795 258.356 499.795 258.592V262H498.331L498.325 253H499.789L499.795 256.534C499.999 256.318 500.243 256.148 500.527 256.024C500.811 255.896 501.117 255.832 501.445 255.832C501.881 255.832 502.279 255.94 502.639 256.156C502.999 256.368 503.285 256.654 503.497 257.014C503.713 257.37 503.821 257.768 503.821 258.208Z" fill="white"/>
<rect opacity="0.03" width="890" height="1" fill="white"/>
<rect opacity="0.03" y="31.834" width="890" height="1" fill="white"/>
<rect opacity="0.03" y="63.666" width="890" height="1" fill="white"/>
<rect opacity="0.03" y="95.5" width="890" height="1" fill="white"/>
<rect opacity="0.03" y="127.334" width="890" height="1" fill="white"/>
<rect opacity="0.03" y="159.166" width="890" height="1" fill="white"/>
<rect opacity="0.03" y="191" width="890" height="1" fill="white"/>
<path opacity="0.2" d="M9.53133 213.13C9.26466 213.13 9.00299 213.085 8.74633 212.995C8.49299 212.905 8.26466 212.772 8.06133 212.595L8.94633 211.535C9.00966 211.585 9.08966 211.633 9.18633 211.68C9.28299 211.727 9.39799 211.75 9.53133 211.75C9.70133 211.75 9.85466 211.708 9.99133 211.625C10.1313 211.538 10.243 211.425 10.3263 211.285C10.4097 211.142 10.4513 210.987 10.4513 210.82V206H11.8313V210.82C11.8313 211.243 11.728 211.63 11.5213 211.98C11.3147 212.327 11.0363 212.605 10.6863 212.815C10.3397 213.025 9.95466 213.13 9.53133 213.13ZM15.3716 206H16.9416L19.4816 213H18.0166L17.5966 211.84H14.7166L14.2966 213H12.8316L15.3716 206ZM15.2216 210.46H17.0916L16.1516 207.895L15.2216 210.46ZM20.2973 213V206H21.7873L24.5173 210.505V206H25.8973V213H24.4073L21.6773 208.495V213H20.2973ZM29.2965 213V211.77C29.4965 211.63 29.7398 211.45 30.0265 211.23C30.3132 211.007 30.6115 210.762 30.9215 210.495C31.2315 210.225 31.5198 209.952 31.7865 209.675C32.0565 209.398 32.2748 209.137 32.4415 208.89C32.6115 208.643 32.6965 208.432 32.6965 208.255C32.6965 208.072 32.6515 207.903 32.5615 207.75C32.4715 207.597 32.3515 207.475 32.2015 207.385C32.0515 207.295 31.8848 207.25 31.7015 207.25C31.5182 207.25 31.3498 207.295 31.1965 207.385C31.0465 207.475 30.9248 207.597 30.8315 207.75C30.7415 207.903 30.6965 208.072 30.6965 208.255H29.3165C29.3165 207.805 29.4248 207.4 29.6415 207.04C29.8615 206.68 30.1515 206.395 30.5115 206.185C30.8748 205.975 31.2715 205.87 31.7015 205.87C32.1382 205.87 32.5365 205.977 32.8965 206.19C33.2565 206.403 33.5432 206.692 33.7565 207.055C33.9698 207.415 34.0765 207.815 34.0765 208.255C34.0765 208.482 34.0415 208.702 33.9715 208.915C33.9048 209.128 33.8065 209.342 33.6765 209.555C33.5465 209.765 33.3882 209.98 33.2015 210.2C33.0182 210.417 32.8098 210.643 32.5765 210.88C32.3465 211.113 32.0982 211.36 31.8315 211.62H34.0965V213H29.2965ZM37.4834 213.13C37.08 213.13 36.7117 213.037 36.3784 212.85C36.045 212.66 35.755 212.398 35.5084 212.065C35.265 211.732 35.0767 211.347 34.9434 210.91C34.81 210.47 34.7434 210 34.7434 209.5C34.7434 209 34.81 208.532 34.9434 208.095C35.0767 207.655 35.265 207.268 35.5084 206.935C35.755 206.602 36.045 206.342 36.3784 206.155C36.7117 205.965 37.08 205.87 37.4834 205.87C37.8867 205.87 38.255 205.965 38.5884 206.155C38.9217 206.342 39.2084 206.602 39.4484 206.935C39.6917 207.268 39.88 207.655 40.0134 208.095C40.1467 208.532 40.2134 209 40.2134 209.5C40.2134 210 40.1467 210.47 40.0134 210.91C39.88 211.347 39.6917 211.732 39.4484 212.065C39.2084 212.398 38.9217 212.66 38.5884 212.85C38.255 213.037 37.8867 213.13 37.4834 213.13ZM37.4834 211.75C37.8134 211.75 38.085 211.643 38.2984 211.43C38.5117 211.217 38.6684 210.938 38.7684 210.595C38.8717 210.252 38.9234 209.887 38.9234 209.5C38.9234 209.09 38.8684 208.715 38.7584 208.375C38.6517 208.035 38.4917 207.763 38.2784 207.56C38.065 207.353 37.8 207.25 37.4834 207.25C37.2334 207.25 37.0167 207.312 36.8334 207.435C36.6534 207.558 36.5034 207.727 36.3834 207.94C36.2667 208.153 36.1784 208.395 36.1184 208.665C36.0617 208.932 36.0334 209.21 36.0334 209.5C36.0334 209.887 36.085 210.252 36.1884 210.595C36.295 210.935 36.455 211.213 36.6684 211.43C36.885 211.643 37.1567 211.75 37.4834 211.75ZM40.9176 213V211.77C41.1176 211.63 41.3609 211.45 41.6476 211.23C41.9342 211.007 42.2326 210.762 42.5426 210.495C42.8526 210.225 43.1409 209.952 43.4076 209.675C43.6776 209.398 43.8959 209.137 44.0626 208.89C44.2326 208.643 44.3176 208.432 44.3176 208.255C44.3176 208.072 44.2726 207.903 44.1826 207.75C44.0926 207.597 43.9726 207.475 43.8226 207.385C43.6726 207.295 43.5059 207.25 43.3226 207.25C43.1392 207.25 42.9709 207.295 42.8176 207.385C42.6676 207.475 42.5459 207.597 42.4526 207.75C42.3626 207.903 42.3176 208.072 42.3176 208.255H40.9376C40.9376 207.805 41.0459 207.4 41.2626 207.04C41.4826 206.68 41.7726 206.395 42.1326 206.185C42.4959 205.975 42.8926 205.87 43.3226 205.87C43.7592 205.87 44.1576 205.977 44.5176 206.19C44.8776 206.403 45.1642 206.692 45.3776 207.055C45.5909 207.415 45.6976 207.815 45.6976 208.255C45.6976 208.482 45.6626 208.702 45.5926 208.915C45.5259 209.128 45.4276 209.342 45.2976 209.555C45.1676 209.765 45.0092 209.98 44.8226 210.2C44.6392 210.417 44.4309 210.643 44.1976 210.88C43.9676 211.113 43.7192 211.36 43.4526 211.62H45.7176V213H40.9176ZM49.1045 213.13C48.7011 213.13 48.3328 213.037 47.9995 212.85C47.6661 212.66 47.3761 212.398 47.1295 212.065C46.8861 211.732 46.6978 211.347 46.5645 210.91C46.4311 210.47 46.3645 210 46.3645 209.5C46.3645 209 46.4311 208.532 46.5645 208.095C46.6978 207.655 46.8861 207.268 47.1295 206.935C47.3761 206.602 47.6661 206.342 47.9995 206.155C48.3328 205.965 48.7011 205.87 49.1045 205.87C49.5078 205.87 49.8761 205.965 50.2095 206.155C50.5428 206.342 50.8295 206.602 51.0695 206.935C51.3128 207.268 51.5011 207.655 51.6345 208.095C51.7678 208.532 51.8345 209 51.8345 209.5C51.8345 210 51.7678 210.47 51.6345 210.91C51.5011 211.347 51.3128 211.732 51.0695 212.065C50.8295 212.398 50.5428 212.66 50.2095 212.85C49.8761 213.037 49.5078 213.13 49.1045 213.13ZM49.1045 211.75C49.4345 211.75 49.7061 211.643 49.9195 211.43C50.1328 211.217 50.2895 210.938 50.3895 210.595C50.4928 210.252 50.5445 209.887 50.5445 209.5C50.5445 209.09 50.4895 208.715 50.3795 208.375C50.2728 208.035 50.1128 207.763 49.8995 207.56C49.6861 207.353 49.4211 207.25 49.1045 207.25C48.8545 207.25 48.6378 207.312 48.4545 207.435C48.2745 207.558 48.1245 207.727 48.0045 207.94C47.8878 208.153 47.7995 208.395 47.7395 208.665C47.6828 208.932 47.6545 209.21 47.6545 209.5C47.6545 209.887 47.7061 210.252 47.8095 210.595C47.9161 210.935 48.0761 211.213 48.2895 211.43C48.5061 211.643 48.7778 211.75 49.1045 211.75Z" fill="white"/>
<path opacity="0.2" d="M85.0531 213V206H89.2031V207.38H86.4331V208.56H88.7231V209.94H86.4331V213H85.0531ZM89.9164 213V206H94.3464V207.38H91.2964V208.56H93.6764V209.94H91.2964V211.62H94.3464V213H89.9164ZM95.4535 213V206H98.0585C98.4352 206 98.7768 206.078 99.0835 206.235C99.3902 206.388 99.6318 206.608 99.8085 206.895C99.9885 207.182 100.079 207.518 100.079 207.905C100.079 208.062 100.057 208.223 100.014 208.39C99.9735 208.557 99.9035 208.71 99.8035 208.85C99.7068 208.99 99.5735 209.097 99.4035 209.17C99.6235 209.223 99.8002 209.323 99.9335 209.47C100.067 209.613 100.169 209.78 100.239 209.97C100.309 210.157 100.355 210.348 100.379 210.545C100.402 210.742 100.414 210.92 100.414 211.08C100.414 211.44 100.32 211.765 100.134 212.055C99.9468 212.345 99.6952 212.575 99.3785 212.745C99.0652 212.915 98.7185 213 98.3385 213H95.4535ZM96.8335 211.825H98.1935C98.3768 211.825 98.5435 211.782 98.6935 211.695C98.8435 211.605 98.9635 211.483 99.0535 211.33C99.1435 211.173 99.1885 210.997 99.1885 210.8C99.1885 210.633 99.1435 210.475 99.0535 210.325C98.9635 210.175 98.8435 210.053 98.6935 209.96C98.5435 209.863 98.3768 209.815 98.1935 209.815H96.8335V211.825ZM96.8335 208.665H97.8985C98.1185 208.665 98.3068 208.593 98.4635 208.45C98.6202 208.307 98.6985 208.122 98.6985 207.895C98.6985 207.662 98.6202 207.485 98.4635 207.365C98.3068 207.242 98.1185 207.18 97.8985 207.18H96.8335V208.665ZM103.613 213V211.77C103.813 211.63 104.056 211.45 104.343 211.23C104.63 211.007 104.928 210.762 105.238 210.495C105.548 210.225 105.836 209.952 106.103 209.675C106.373 209.398 106.591 209.137 106.758 208.89C106.928 208.643 107.013 208.432 107.013 208.255C107.013 208.072 106.968 207.903 106.878 207.75C106.788 207.597 106.668 207.475 106.518 207.385C106.368 207.295 106.201 207.25 106.018 207.25C105.835 207.25 105.666 207.295 105.513 207.385C105.363 207.475 105.241 207.597 105.148 207.75C105.058 207.903 105.013 208.072 105.013 208.255H103.633C103.633 207.805 103.741 207.4 103.958 207.04C104.178 206.68 104.468 206.395 104.828 206.185C105.191 205.975 105.588 205.87 106.018 205.87C106.455 205.87 106.853 205.977 107.213 206.19C107.573 206.403 107.86 206.692 108.073 207.055C108.286 207.415 108.393 207.815 108.393 208.255C108.393 208.482 108.358 208.702 108.288 208.915C108.221 209.128 108.123 209.342 107.993 209.555C107.863 209.765 107.705 209.98 107.518 210.2C107.335 210.417 107.126 210.643 106.893 210.88C106.663 211.113 106.415 211.36 106.148 211.62H108.413V213H103.613ZM111.8 213.13C111.396 213.13 111.028 213.037 110.695 212.85C110.361 212.66 110.071 212.398 109.825 212.065C109.581 211.732 109.393 211.347 109.26 210.91C109.126 210.47 109.06 210 109.06 209.5C109.06 209 109.126 208.532 109.26 208.095C109.393 207.655 109.581 207.268 109.825 206.935C110.071 206.602 110.361 206.342 110.695 206.155C111.028 205.965 111.396 205.87 111.8 205.87C112.203 205.87 112.571 205.965 112.905 206.155C113.238 206.342 113.525 206.602 113.765 206.935C114.008 207.268 114.196 207.655 114.33 208.095C114.463 208.532 114.53 209 114.53 209.5C114.53 210 114.463 210.47 114.33 210.91C114.196 211.347 114.008 211.732 113.765 212.065C113.525 212.398 113.238 212.66 112.905 212.85C112.571 213.037 112.203 213.13 111.8 213.13ZM111.8 211.75C112.13 211.75 112.401 211.643 112.615 211.43C112.828 211.217 112.985 210.938 113.085 210.595C113.188 210.252 113.24 209.887 113.24 209.5C113.24 209.09 113.185 208.715 113.075 208.375C112.968 208.035 112.808 207.763 112.595 207.56C112.381 207.353 112.116 207.25 111.8 207.25C111.55 207.25 111.333 207.312 111.15 207.435C110.97 207.558 110.82 207.727 110.7 207.94C110.583 208.153 110.495 208.395 110.435 208.665C110.378 208.932 110.35 209.21 110.35 209.5C110.35 209.887 110.401 210.252 110.505 210.595C110.611 210.935 110.771 211.213 110.985 211.43C111.201 211.643 111.473 211.75 111.8 211.75ZM115.234 213V211.77C115.434 211.63 115.677 211.45 115.964 211.23C116.251 211.007 116.549 210.762 116.859 210.495C117.169 210.225 117.457 209.952 117.724 209.675C117.994 209.398 118.212 209.137 118.379 208.89C118.549 208.643 118.634 208.432 118.634 208.255C118.634 208.072 118.589 207.903 118.499 207.75C118.409 207.597 118.289 207.475 118.139 207.385C117.989 207.295 117.822 207.25 117.639 207.25C117.456 207.25 117.287 207.295 117.134 207.385C116.984 207.475 116.862 207.597 116.769 207.75C116.679 207.903 116.634 208.072 116.634 208.255H115.254C115.254 207.805 115.362 207.4 115.579 207.04C115.799 206.68 116.089 206.395 116.449 206.185C116.812 205.975 117.209 205.87 117.639 205.87C118.076 205.87 118.474 205.977 118.834 206.19C119.194 206.403 119.481 206.692 119.694 207.055C119.907 207.415 120.014 207.815 120.014 208.255C120.014 208.482 119.979 208.702 119.909 208.915C119.842 209.128 119.744 209.342 119.614 209.555C119.484 209.765 119.326 209.98 119.139 210.2C118.956 210.417 118.747 210.643 118.514 210.88C118.284 211.113 118.036 211.36 117.769 211.62H120.034V213H115.234ZM123.421 213.13C123.018 213.13 122.649 213.037 122.316 212.85C121.983 212.66 121.693 212.398 121.446 212.065C121.203 211.732 121.014 211.347 120.881 210.91C120.748 210.47 120.681 210 120.681 209.5C120.681 209 120.748 208.532 120.881 208.095C121.014 207.655 121.203 207.268 121.446 206.935C121.693 206.602 121.983 206.342 122.316 206.155C122.649 205.965 123.018 205.87 123.421 205.87C123.824 205.87 124.193 205.965 124.526 206.155C124.859 206.342 125.146 206.602 125.386 206.935C125.629 207.268 125.818 207.655 125.951 208.095C126.084 208.532 126.151 209 126.151 209.5C126.151 210 126.084 210.47 125.951 210.91C125.818 211.347 125.629 211.732 125.386 212.065C125.146 212.398 124.859 212.66 124.526 212.85C124.193 213.037 123.824 213.13 123.421 213.13ZM123.421 211.75C123.751 211.75 124.023 211.643 124.236 211.43C124.449 211.217 124.606 210.938 124.706 210.595C124.809 210.252 124.861 209.887 124.861 209.5C124.861 209.09 124.806 208.715 124.696 208.375C124.589 208.035 124.429 207.763 124.216 207.56C124.003 207.353 123.738 207.25 123.421 207.25C123.171 207.25 122.954 207.312 122.771 207.435C122.591 207.558 122.441 207.727 122.321 207.94C122.204 208.153 122.116 208.395 122.056 208.665C121.999 208.932 121.971 209.21 121.971 209.5C121.971 209.887 122.023 210.252 122.126 210.595C122.233 210.935 122.393 211.213 122.606 211.43C122.823 211.643 123.094 211.75 123.421 211.75Z" fill="white"/>
<path opacity="0.2" d="M157.481 213L158.841 206H160.006L161.631 210.285L163.261 206H164.426L165.786 213H164.376L163.601 208.985L162.106 212.93H161.156L159.666 208.985L158.886 213H157.481ZM168.756 206H170.326L172.866 213H171.401L170.981 211.84H168.101L167.681 213H166.216L168.756 206ZM168.606 210.46H170.476L169.536 207.895L168.606 210.46ZM173.682 213V206H176.462C176.842 206 177.185 206.097 177.492 206.29C177.802 206.48 178.047 206.737 178.227 207.06C178.41 207.38 178.502 207.735 178.502 208.125C178.502 208.432 178.449 208.717 178.342 208.98C178.235 209.24 178.085 209.468 177.892 209.665C177.699 209.862 177.474 210.015 177.217 210.125L178.882 213H177.292L175.697 210.25H175.062V213H173.682ZM175.062 208.87H176.297C176.447 208.87 176.584 208.833 176.707 208.76C176.834 208.683 176.934 208.582 177.007 208.455C177.084 208.325 177.122 208.182 177.122 208.025C177.122 207.872 177.084 207.732 177.007 207.605C176.934 207.475 176.834 207.372 176.707 207.295C176.584 207.218 176.447 207.18 176.297 207.18H175.062V208.87ZM182.095 213V211.77C182.295 211.63 182.539 211.45 182.825 211.23C183.112 211.007 183.41 210.762 183.72 210.495C184.03 210.225 184.319 209.952 184.585 209.675C184.855 209.398 185.074 209.137 185.24 208.89C185.41 208.643 185.495 208.432 185.495 208.255C185.495 208.072 185.45 207.903 185.36 207.75C185.27 207.597 185.15 207.475 185 207.385C184.85 207.295 184.684 207.25 184.5 207.25C184.317 207.25 184.149 207.295 183.995 207.385C183.845 207.475 183.724 207.597 183.63 207.75C183.54 207.903 183.495 208.072 183.495 208.255H182.115C182.115 207.805 182.224 207.4 182.44 207.04C182.66 206.68 182.95 206.395 183.31 206.185C183.674 205.975 184.07 205.87 184.5 205.87C184.937 205.87 185.335 205.977 185.695 206.19C186.055 206.403 186.342 206.692 186.555 207.055C186.769 207.415 186.875 207.815 186.875 208.255C186.875 208.482 186.84 208.702 186.77 208.915C186.704 209.128 186.605 209.342 186.475 209.555C186.345 209.765 186.187 209.98 186 210.2C185.817 210.417 185.609 210.643 185.375 210.88C185.145 211.113 184.897 211.36 184.63 211.62H186.895V213H182.095ZM190.282 213.13C189.879 213.13 189.511 213.037 189.177 212.85C188.844 212.66 188.554 212.398 188.307 212.065C188.064 211.732 187.876 211.347 187.742 210.91C187.609 210.47 187.542 210 187.542 209.5C187.542 209 187.609 208.532 187.742 208.095C187.876 207.655 188.064 207.268 188.307 206.935C188.554 206.602 188.844 206.342 189.177 206.155C189.511 205.965 189.879 205.87 190.282 205.87C190.686 205.87 191.054 205.965 191.387 206.155C191.721 206.342 192.007 206.602 192.247 206.935C192.491 207.268 192.679 207.655 192.812 208.095C192.946 208.532 193.012 209 193.012 209.5C193.012 210 192.946 210.47 192.812 210.91C192.679 211.347 192.491 211.732 192.247 212.065C192.007 212.398 191.721 212.66 191.387 212.85C191.054 213.037 190.686 213.13 190.282 213.13ZM190.282 211.75C190.612 211.75 190.884 211.643 191.097 211.43C191.311 211.217 191.467 210.938 191.567 210.595C191.671 210.252 191.722 209.887 191.722 209.5C191.722 209.09 191.667 208.715 191.557 208.375C191.451 208.035 191.291 207.763 191.077 207.56C190.864 207.353 190.599 207.25 190.282 207.25C190.032 207.25 189.816 207.312 189.632 207.435C189.452 207.558 189.302 207.727 189.182 207.94C189.066 208.153 188.977 208.395 188.917 208.665C188.861 208.932 188.832 209.21 188.832 209.5C188.832 209.887 188.884 210.252 188.987 210.595C189.094 210.935 189.254 211.213 189.467 211.43C189.684 211.643 189.956 211.75 190.282 211.75ZM193.716 213V211.77C193.916 211.63 194.16 211.45 194.446 211.23C194.733 211.007 195.031 210.762 195.341 210.495C195.651 210.225 195.94 209.952 196.206 209.675C196.476 209.398 196.695 209.137 196.861 208.89C197.031 208.643 197.116 208.432 197.116 208.255C197.116 208.072 197.071 207.903 196.981 207.75C196.891 207.597 196.771 207.475 196.621 207.385C196.471 207.295 196.305 207.25 196.121 207.25C195.938 207.25 195.77 207.295 195.616 207.385C195.466 207.475 195.345 207.597 195.251 207.75C195.161 207.903 195.116 208.072 195.116 208.255H193.736C193.736 207.805 193.845 207.4 194.061 207.04C194.281 206.68 194.571 206.395 194.931 206.185C195.295 205.975 195.691 205.87 196.121 205.87C196.558 205.87 196.956 205.977 197.316 206.19C197.676 206.403 197.963 206.692 198.176 207.055C198.39 207.415 198.496 207.815 198.496 208.255C198.496 208.482 198.461 208.702 198.391 208.915C198.325 209.128 198.226 209.342 198.096 209.555C197.966 209.765 197.808 209.98 197.621 210.2C197.438 210.417 197.23 210.643 196.996 210.88C196.766 211.113 196.518 211.36 196.251 211.62H198.516V213H193.716ZM201.903 213.13C201.5 213.13 201.132 213.037 200.798 212.85C200.465 212.66 200.175 212.398 199.928 212.065C199.685 211.732 199.497 211.347 199.363 210.91C199.23 210.47 199.163 210 199.163 209.5C199.163 209 199.23 208.532 199.363 208.095C199.497 207.655 199.685 207.268 199.928 206.935C200.175 206.602 200.465 206.342 200.798 206.155C201.132 205.965 201.5 205.87 201.903 205.87C202.307 205.87 202.675 205.965 203.008 206.155C203.342 206.342 203.628 206.602 203.868 206.935C204.112 207.268 204.3 207.655 204.433 208.095C204.567 208.532 204.633 209 204.633 209.5C204.633 210 204.567 210.47 204.433 210.91C204.3 211.347 204.112 211.732 203.868 212.065C203.628 212.398 203.342 212.66 203.008 212.85C202.675 213.037 202.307 213.13 201.903 213.13ZM201.903 211.75C202.233 211.75 202.505 211.643 202.718 211.43C202.932 211.217 203.088 210.938 203.188 210.595C203.292 210.252 203.343 209.887 203.343 209.5C203.343 209.09 203.288 208.715 203.178 208.375C203.072 208.035 202.912 207.763 202.698 207.56C202.485 207.353 202.22 207.25 201.903 207.25C201.653 207.25 201.437 207.312 201.253 207.435C201.073 207.558 200.923 207.727 200.803 207.94C200.687 208.153 200.598 208.395 200.538 208.665C200.482 208.932 200.453 209.21 200.453 209.5C200.453 209.887 200.505 210.252 200.608 210.595C200.715 210.935 200.875 211.213 201.088 211.43C201.305 211.643 201.577 211.75 201.903 211.75Z" fill="white"/>
<path opacity="0.2" d="M236.984 206H238.554L241.094 213H239.629L239.209 211.84H236.329L235.909 213H234.444L236.984 206ZM236.834 210.46H238.704L237.764 207.895L236.834 210.46ZM241.91 213V206H244.49C244.873 206 245.218 206.097 245.525 206.29C245.835 206.483 246.081 206.742 246.265 207.065C246.448 207.385 246.54 207.738 246.54 208.125C246.54 208.518 246.446 208.877 246.26 209.2C246.073 209.52 245.823 209.775 245.51 209.965C245.2 210.155 244.86 210.25 244.49 210.25H243.29V213H241.91ZM243.29 208.87H244.335C244.488 208.87 244.626 208.833 244.75 208.76C244.873 208.683 244.971 208.582 245.045 208.455C245.121 208.325 245.16 208.182 245.16 208.025C245.16 207.872 245.121 207.732 245.045 207.605C244.971 207.475 244.873 207.372 244.75 207.295C244.626 207.218 244.488 207.18 244.335 207.18H243.29V208.87ZM247.427 213V206H250.207C250.587 206 250.93 206.097 251.237 206.29C251.547 206.48 251.792 206.737 251.972 207.06C252.155 207.38 252.247 207.735 252.247 208.125C252.247 208.432 252.194 208.717 252.087 208.98C251.98 209.24 251.83 209.468 251.637 209.665C251.444 209.862 251.219 210.015 250.962 210.125L252.627 213H251.037L249.442 210.25H248.807V213H247.427ZM248.807 208.87H250.042C250.192 208.87 250.329 208.833 250.452 208.76C250.579 208.683 250.679 208.582 250.752 208.455C250.829 208.325 250.867 208.182 250.867 208.025C250.867 207.872 250.829 207.732 250.752 207.605C250.679 207.475 250.579 207.372 250.452 207.295C250.329 207.218 250.192 207.18 250.042 207.18H248.807V208.87ZM255.84 213V211.77C256.04 211.63 256.284 211.45 256.57 211.23C256.857 211.007 257.155 210.762 257.465 210.495C257.775 210.225 258.064 209.952 258.33 209.675C258.6 209.398 258.819 209.137 258.985 208.89C259.155 208.643 259.24 208.432 259.24 208.255C259.24 208.072 259.195 207.903 259.105 207.75C259.015 207.597 258.895 207.475 258.745 207.385C258.595 207.295 258.429 207.25 258.245 207.25C258.062 207.25 257.894 207.295 257.74 207.385C257.59 207.475 257.469 207.597 257.375 207.75C257.285 207.903 257.24 208.072 257.24 208.255H255.86C255.86 207.805 255.969 207.4 256.185 207.04C256.405 206.68 256.695 206.395 257.055 206.185C257.419 205.975 257.815 205.87 258.245 205.87C258.682 205.87 259.08 205.977 259.44 206.19C259.8 206.403 260.087 206.692 260.3 207.055C260.514 207.415 260.62 207.815 260.62 208.255C260.62 208.482 260.585 208.702 260.515 208.915C260.449 209.128 260.35 209.342 260.22 209.555C260.09 209.765 259.932 209.98 259.745 210.2C259.562 210.417 259.354 210.643 259.12 210.88C258.89 211.113 258.642 211.36 258.375 211.62H260.64V213H255.84ZM264.027 213.13C263.624 213.13 263.256 213.037 262.922 212.85C262.589 212.66 262.299 212.398 262.052 212.065C261.809 211.732 261.621 211.347 261.487 210.91C261.354 210.47 261.287 210 261.287 209.5C261.287 209 261.354 208.532 261.487 208.095C261.621 207.655 261.809 207.268 262.052 206.935C262.299 206.602 262.589 206.342 262.922 206.155C263.256 205.965 263.624 205.87 264.027 205.87C264.431 205.87 264.799 205.965 265.132 206.155C265.466 206.342 265.752 206.602 265.992 206.935C266.236 207.268 266.424 207.655 266.557 208.095C266.691 208.532 266.757 209 266.757 209.5C266.757 210 266.691 210.47 266.557 210.91C266.424 211.347 266.236 211.732 265.992 212.065C265.752 212.398 265.466 212.66 265.132 212.85C264.799 213.037 264.431 213.13 264.027 213.13ZM264.027 211.75C264.357 211.75 264.629 211.643 264.842 211.43C265.056 211.217 265.212 210.938 265.312 210.595C265.416 210.252 265.467 209.887 265.467 209.5C265.467 209.09 265.412 208.715 265.302 208.375C265.196 208.035 265.036 207.763 264.822 207.56C264.609 207.353 264.344 207.25 264.027 207.25C263.777 207.25 263.561 207.312 263.377 207.435C263.197 207.558 263.047 207.727 262.927 207.94C262.811 208.153 262.722 208.395 262.662 208.665C262.606 208.932 262.577 209.21 262.577 209.5C262.577 209.887 262.629 210.252 262.732 210.595C262.839 210.935 262.999 211.213 263.212 211.43C263.429 211.643 263.701 211.75 264.027 211.75ZM267.462 213V211.77C267.662 211.63 267.905 211.45 268.192 211.23C268.478 211.007 268.777 210.762 269.087 210.495C269.397 210.225 269.685 209.952 269.952 209.675C270.222 209.398 270.44 209.137 270.607 208.89C270.777 208.643 270.862 208.432 270.862 208.255C270.862 208.072 270.817 207.903 270.727 207.75C270.637 207.597 270.517 207.475 270.367 207.385C270.217 207.295 270.05 207.25 269.867 207.25C269.683 207.25 269.515 207.295 269.362 207.385C269.212 207.475 269.09 207.597 268.997 207.75C268.907 207.903 268.862 208.072 268.862 208.255H267.482C267.482 207.805 267.59 207.4 267.807 207.04C268.027 206.68 268.317 206.395 268.677 206.185C269.04 205.975 269.437 205.87 269.867 205.87C270.303 205.87 270.702 205.977 271.062 206.19C271.422 206.403 271.708 206.692 271.922 207.055C272.135 207.415 272.242 207.815 272.242 208.255C272.242 208.482 272.207 208.702 272.137 208.915C272.07 209.128 271.972 209.342 271.842 209.555C271.712 209.765 271.553 209.98 271.367 210.2C271.183 210.417 270.975 210.643 270.742 210.88C270.512 211.113 270.263 211.36 269.997 211.62H272.262V213H267.462ZM275.648 213.13C275.245 213.13 274.877 213.037 274.543 212.85C274.21 212.66 273.92 212.398 273.673 212.065C273.43 211.732 273.242 211.347 273.108 210.91C272.975 210.47 272.908 210 272.908 209.5C272.908 209 272.975 208.532 273.108 208.095C273.242 207.655 273.43 207.268 273.673 206.935C273.92 206.602 274.21 206.342 274.543 206.155C274.877 205.965 275.245 205.87 275.648 205.87C276.052 205.87 276.42 205.965 276.753 206.155C277.087 206.342 277.373 206.602 277.613 206.935C277.857 207.268 278.045 207.655 278.178 208.095C278.312 208.532 278.378 209 278.378 209.5C278.378 210 278.312 210.47 278.178 210.91C278.045 211.347 277.857 211.732 277.613 212.065C277.373 212.398 277.087 212.66 276.753 212.85C276.42 213.037 276.052 213.13 275.648 213.13ZM275.648 211.75C275.978 211.75 276.25 211.643 276.463 211.43C276.677 211.217 276.833 210.938 276.933 210.595C277.037 210.252 277.088 209.887 277.088 209.5C277.088 209.09 277.033 208.715 276.923 208.375C276.817 208.035 276.657 207.763 276.443 207.56C276.23 207.353 275.965 207.25 275.648 207.25C275.398 207.25 275.182 207.312 274.998 207.435C274.818 207.558 274.668 207.727 274.548 207.94C274.432 208.153 274.343 208.395 274.283 208.665C274.227 208.932 274.198 209.21 274.198 209.5C274.198 209.887 274.25 210.252 274.353 210.595C274.46 210.935 274.62 211.213 274.833 211.43C275.05 211.643 275.322 211.75 275.648 211.75Z" fill="white"/>
<path opacity="0.2" d="M308.698 213L310.058 206H311.223L312.848 210.285L314.478 206H315.643L317.003 213H315.593L314.818 208.985L313.323 212.93H312.373L310.883 208.985L310.103 213H308.698ZM319.973 206H321.543L324.083 213H322.618L322.198 211.84H319.318L318.898 213H317.433L319.973 206ZM319.823 210.46H321.693L320.753 207.895L319.823 210.46ZM327.968 206H329.598L327.178 209.845V213H325.798V209.845L323.378 206H325.008L326.488 208.345L327.968 206ZM332.697 213V211.77C332.897 211.63 333.14 211.45 333.427 211.23C333.714 211.007 334.012 210.762 334.322 210.495C334.632 210.225 334.92 209.952 335.187 209.675C335.457 209.398 335.675 209.137 335.842 208.89C336.012 208.643 336.097 208.432 336.097 208.255C336.097 208.072 336.052 207.903 335.962 207.75C335.872 207.597 335.752 207.475 335.602 207.385C335.452 207.295 335.285 207.25 335.102 207.25C334.919 207.25 334.75 207.295 334.597 207.385C334.447 207.475 334.325 207.597 334.232 207.75C334.142 207.903 334.097 208.072 334.097 208.255H332.717C332.717 207.805 332.825 207.4 333.042 207.04C333.262 206.68 333.552 206.395 333.912 206.185C334.275 205.975 334.672 205.87 335.102 205.87C335.539 205.87 335.937 205.977 336.297 206.19C336.657 206.403 336.944 206.692 337.157 207.055C337.37 207.415 337.477 207.815 337.477 208.255C337.477 208.482 337.442 208.702 337.372 208.915C337.305 209.128 337.207 209.342 337.077 209.555C336.947 209.765 336.789 209.98 336.602 210.2C336.419 210.417 336.21 210.643 335.977 210.88C335.747 211.113 335.499 211.36 335.232 211.62H337.497V213H332.697ZM340.884 213.13C340.48 213.13 340.112 213.037 339.779 212.85C339.445 212.66 339.155 212.398 338.909 212.065C338.665 211.732 338.477 211.347 338.344 210.91C338.21 210.47 338.144 210 338.144 209.5C338.144 209 338.21 208.532 338.344 208.095C338.477 207.655 338.665 207.268 338.909 206.935C339.155 206.602 339.445 206.342 339.779 206.155C340.112 205.965 340.48 205.87 340.884 205.87C341.287 205.87 341.655 205.965 341.989 206.155C342.322 206.342 342.609 206.602 342.849 206.935C343.092 207.268 343.28 207.655 343.414 208.095C343.547 208.532 343.614 209 343.614 209.5C343.614 210 343.547 210.47 343.414 210.91C343.28 211.347 343.092 211.732 342.849 212.065C342.609 212.398 342.322 212.66 341.989 212.85C341.655 213.037 341.287 213.13 340.884 213.13ZM340.884 211.75C341.214 211.75 341.485 211.643 341.699 211.43C341.912 211.217 342.069 210.938 342.169 210.595C342.272 210.252 342.324 209.887 342.324 209.5C342.324 209.09 342.269 208.715 342.159 208.375C342.052 208.035 341.892 207.763 341.679 207.56C341.465 207.353 341.2 207.25 340.884 207.25C340.634 207.25 340.417 207.312 340.234 207.435C340.054 207.558 339.904 207.727 339.784 207.94C339.667 208.153 339.579 208.395 339.519 208.665C339.462 208.932 339.434 209.21 339.434 209.5C339.434 209.887 339.485 210.252 339.589 210.595C339.695 210.935 339.855 211.213 340.069 211.43C340.285 211.643 340.557 211.75 340.884 211.75ZM344.318 213V211.77C344.518 211.63 344.761 211.45 345.048 211.23C345.335 211.007 345.633 210.762 345.943 210.495C346.253 210.225 346.541 209.952 346.808 209.675C347.078 209.398 347.296 209.137 347.463 208.89C347.633 208.643 347.718 208.432 347.718 208.255C347.718 208.072 347.673 207.903 347.583 207.75C347.493 207.597 347.373 207.475 347.223 207.385C347.073 207.295 346.906 207.25 346.723 207.25C346.54 207.25 346.371 207.295 346.218 207.385C346.068 207.475 345.946 207.597 345.853 207.75C345.763 207.903 345.718 208.072 345.718 208.255H344.338C344.338 207.805 344.446 207.4 344.663 207.04C344.883 206.68 345.173 206.395 345.533 206.185C345.896 205.975 346.293 205.87 346.723 205.87C347.16 205.87 347.558 205.977 347.918 206.19C348.278 206.403 348.565 206.692 348.778 207.055C348.991 207.415 349.098 207.815 349.098 208.255C349.098 208.482 349.063 208.702 348.993 208.915C348.926 209.128 348.828 209.342 348.698 209.555C348.568 209.765 348.41 209.98 348.223 210.2C348.04 210.417 347.831 210.643 347.598 210.88C347.368 211.113 347.12 211.36 346.853 211.62H349.118V213H344.318ZM352.505 213.13C352.102 213.13 351.733 213.037 351.4 212.85C351.067 212.66 350.777 212.398 350.53 212.065C350.287 211.732 350.098 211.347 349.965 210.91C349.832 210.47 349.765 210 349.765 209.5C349.765 209 349.832 208.532 349.965 208.095C350.098 207.655 350.287 207.268 350.53 206.935C350.777 206.602 351.067 206.342 351.4 206.155C351.733 205.965 352.102 205.87 352.505 205.87C352.908 205.87 353.277 205.965 353.61 206.155C353.943 206.342 354.23 206.602 354.47 206.935C354.713 207.268 354.902 207.655 355.035 208.095C355.168 208.532 355.235 209 355.235 209.5C355.235 210 355.168 210.47 355.035 210.91C354.902 211.347 354.713 211.732 354.47 212.065C354.23 212.398 353.943 212.66 353.61 212.85C353.277 213.037 352.908 213.13 352.505 213.13ZM352.505 211.75C352.835 211.75 353.107 211.643 353.32 211.43C353.533 211.217 353.69 210.938 353.79 210.595C353.893 210.252 353.945 209.887 353.945 209.5C353.945 209.09 353.89 208.715 353.78 208.375C353.673 208.035 353.513 207.763 353.3 207.56C353.087 207.353 352.822 207.25 352.505 207.25C352.255 207.25 352.038 207.312 351.855 207.435C351.675 207.558 351.525 207.727 351.405 207.94C351.288 208.153 351.2 208.395 351.14 208.665C351.083 208.932 351.055 209.21 351.055 209.5C351.055 209.887 351.107 210.252 351.21 210.595C351.317 210.935 351.477 211.213 351.69 211.43C351.907 211.643 352.178 211.75 352.505 211.75Z" fill="white"/>
<path opacity="0.2" d="M387.082 213.13C386.815 213.13 386.554 213.085 386.297 212.995C386.044 212.905 385.815 212.772 385.612 212.595L386.497 211.535C386.56 211.585 386.64 211.633 386.737 211.68C386.834 211.727 386.949 211.75 387.082 211.75C387.252 211.75 387.405 211.708 387.542 211.625C387.682 211.538 387.794 211.425 387.877 211.285C387.96 211.142 388.002 210.987 388.002 210.82V206H389.382V210.82C389.382 211.243 389.279 211.63 389.072 211.98C388.865 212.327 388.587 212.605 388.237 212.815C387.89 213.025 387.505 213.13 387.082 213.13ZM393.412 213.13C392.852 213.13 392.359 212.993 391.932 212.72C391.509 212.447 391.177 212.08 390.937 211.62C390.701 211.157 390.582 210.643 390.582 210.08V206H391.962V210.08C391.962 210.383 392.019 210.662 392.132 210.915C392.246 211.168 392.411 211.372 392.627 211.525C392.844 211.675 393.106 211.75 393.412 211.75C393.722 211.75 393.984 211.675 394.197 211.525C394.414 211.375 394.577 211.173 394.687 210.92C394.797 210.667 394.852 210.387 394.852 210.08V206H396.232V210.08C396.232 210.503 396.164 210.9 396.027 211.27C395.894 211.637 395.702 211.96 395.452 212.24C395.202 212.52 394.904 212.738 394.557 212.895C394.214 213.052 393.832 213.13 393.412 213.13ZM397.291 213V206H398.781L401.511 210.505V206H402.891V213H401.401L398.671 208.495V213H397.291ZM406.291 213V211.77C406.491 211.63 406.734 211.45 407.021 211.23C407.307 211.007 407.606 210.762 407.916 210.495C408.226 210.225 408.514 209.952 408.781 209.675C409.051 209.398 409.269 209.137 409.436 208.89C409.606 208.643 409.691 208.432 409.691 208.255C409.691 208.072 409.646 207.903 409.556 207.75C409.466 207.597 409.346 207.475 409.196 207.385C409.046 207.295 408.879 207.25 408.696 207.25C408.512 207.25 408.344 207.295 408.191 207.385C408.041 207.475 407.919 207.597 407.826 207.75C407.736 207.903 407.691 208.072 407.691 208.255H406.311C406.311 207.805 406.419 207.4 406.636 207.04C406.856 206.68 407.146 206.395 407.506 206.185C407.869 205.975 408.266 205.87 408.696 205.87C409.132 205.87 409.531 205.977 409.891 206.19C410.251 206.403 410.537 206.692 410.751 207.055C410.964 207.415 411.071 207.815 411.071 208.255C411.071 208.482 411.036 208.702 410.966 208.915C410.899 209.128 410.801 209.342 410.671 209.555C410.541 209.765 410.382 209.98 410.196 210.2C410.012 210.417 409.804 210.643 409.571 210.88C409.341 211.113 409.092 211.36 408.826 211.62H411.091V213H406.291ZM414.478 213.13C414.074 213.13 413.706 213.037 413.373 212.85C413.039 212.66 412.749 212.398 412.503 212.065C412.259 211.732 412.071 211.347 411.938 210.91C411.804 210.47 411.738 210 411.738 209.5C411.738 209 411.804 208.532 411.938 208.095C412.071 207.655 412.259 207.268 412.503 206.935C412.749 206.602 413.039 206.342 413.373 206.155C413.706 205.965 414.074 205.87 414.478 205.87C414.881 205.87 415.249 205.965 415.583 206.155C415.916 206.342 416.203 206.602 416.443 206.935C416.686 207.268 416.874 207.655 417.008 208.095C417.141 208.532 417.208 209 417.208 209.5C417.208 210 417.141 210.47 417.008 210.91C416.874 211.347 416.686 211.732 416.443 212.065C416.203 212.398 415.916 212.66 415.583 212.85C415.249 213.037 414.881 213.13 414.478 213.13ZM414.478 211.75C414.808 211.75 415.079 211.643 415.293 211.43C415.506 211.217 415.663 210.938 415.763 210.595C415.866 210.252 415.918 209.887 415.918 209.5C415.918 209.09 415.863 208.715 415.753 208.375C415.646 208.035 415.486 207.763 415.273 207.56C415.059 207.353 414.794 207.25 414.478 207.25C414.228 207.25 414.011 207.312 413.828 207.435C413.648 207.558 413.498 207.727 413.378 207.94C413.261 208.153 413.173 208.395 413.113 208.665C413.056 208.932 413.028 209.21 413.028 209.5C413.028 209.887 413.079 210.252 413.183 210.595C413.289 210.935 413.449 211.213 413.663 211.43C413.879 211.643 414.151 211.75 414.478 211.75ZM417.912 213V211.77C418.112 211.63 418.355 211.45 418.642 211.23C418.928 211.007 419.227 210.762 419.537 210.495C419.847 210.225 420.135 209.952 420.402 209.675C420.672 209.398 420.89 209.137 421.057 208.89C421.227 208.643 421.312 208.432 421.312 208.255C421.312 208.072 421.267 207.903 421.177 207.75C421.087 207.597 420.967 207.475 420.817 207.385C420.667 207.295 420.5 207.25 420.317 207.25C420.133 207.25 419.965 207.295 419.812 207.385C419.662 207.475 419.54 207.597 419.447 207.75C419.357 207.903 419.312 208.072 419.312 208.255H417.932C417.932 207.805 418.04 207.4 418.257 207.04C418.477 206.68 418.767 206.395 419.127 206.185C419.49 205.975 419.887 205.87 420.317 205.87C420.753 205.87 421.152 205.977 421.512 206.19C421.872 206.403 422.158 206.692 422.372 207.055C422.585 207.415 422.692 207.815 422.692 208.255C422.692 208.482 422.657 208.702 422.587 208.915C422.52 209.128 422.422 209.342 422.292 209.555C422.162 209.765 422.003 209.98 421.817 210.2C421.633 210.417 421.425 210.643 421.192 210.88C420.962 211.113 420.713 211.36 420.447 211.62H422.712V213H417.912ZM426.099 213.13C425.695 213.13 425.327 213.037 424.994 212.85C424.66 212.66 424.37 212.398 424.124 212.065C423.88 211.732 423.692 211.347 423.559 210.91C423.425 210.47 423.359 210 423.359 209.5C423.359 209 423.425 208.532 423.559 208.095C423.692 207.655 423.88 207.268 424.124 206.935C424.37 206.602 424.66 206.342 424.994 206.155C425.327 205.965 425.695 205.87 426.099 205.87C426.502 205.87 426.87 205.965 427.204 206.155C427.537 206.342 427.824 206.602 428.064 206.935C428.307 207.268 428.495 207.655 428.629 208.095C428.762 208.532 428.829 209 428.829 209.5C428.829 210 428.762 210.47 428.629 210.91C428.495 211.347 428.307 211.732 428.064 212.065C427.824 212.398 427.537 212.66 427.204 212.85C426.87 213.037 426.502 213.13 426.099 213.13ZM426.099 211.75C426.429 211.75 426.7 211.643 426.914 211.43C427.127 211.217 427.284 210.938 427.384 210.595C427.487 210.252 427.539 209.887 427.539 209.5C427.539 209.09 427.484 208.715 427.374 208.375C427.267 208.035 427.107 207.763 426.894 207.56C426.68 207.353 426.415 207.25 426.099 207.25C425.849 207.25 425.632 207.312 425.449 207.435C425.269 207.558 425.119 207.727 424.999 207.94C424.882 208.153 424.794 208.395 424.734 208.665C424.677 208.932 424.649 209.21 424.649 209.5C424.649 209.887 424.7 210.252 424.804 210.595C424.91 210.935 425.07 211.213 425.284 211.43C425.5 211.643 425.772 211.75 426.099 211.75Z" fill="white"/>
<path opacity="0.2" d="M463.284 213.13C463.018 213.13 462.756 213.085 462.499 212.995C462.246 212.905 462.018 212.772 461.814 212.595L462.699 211.535C462.763 211.585 462.843 211.633 462.939 211.68C463.036 211.727 463.151 211.75 463.284 211.75C463.454 211.75 463.608 211.708 463.744 211.625C463.884 211.538 463.996 211.425 464.079 211.285C464.163 211.142 464.204 210.987 464.204 210.82V206H465.584V210.82C465.584 211.243 465.481 211.63 465.274 211.98C465.068 212.327 464.789 212.605 464.439 212.815C464.093 213.025 463.708 213.13 463.284 213.13ZM469.615 213.13C469.055 213.13 468.561 212.993 468.135 212.72C467.711 212.447 467.38 212.08 467.14 211.62C466.903 211.157 466.785 210.643 466.785 210.08V206H468.165V210.08C468.165 210.383 468.221 210.662 468.335 210.915C468.448 211.168 468.613 211.372 468.83 211.525C469.046 211.675 469.308 211.75 469.615 211.75C469.925 211.75 470.186 211.675 470.4 211.525C470.616 211.375 470.78 211.173 470.89 210.92C471 210.667 471.055 210.387 471.055 210.08V206H472.435V210.08C472.435 210.503 472.366 210.9 472.23 211.27C472.096 211.637 471.905 211.96 471.655 212.24C471.405 212.52 471.106 212.738 470.76 212.895C470.416 213.052 470.035 213.13 469.615 213.13ZM473.494 213V206H474.874V211.62H477.694V213H473.494ZM480.999 213V211.77C481.199 211.63 481.442 211.45 481.729 211.23C482.015 211.007 482.314 210.762 482.624 210.495C482.934 210.225 483.222 209.952 483.489 209.675C483.759 209.398 483.977 209.137 484.144 208.89C484.314 208.643 484.399 208.432 484.399 208.255C484.399 208.072 484.354 207.903 484.264 207.75C484.174 207.597 484.054 207.475 483.904 207.385C483.754 207.295 483.587 207.25 483.404 207.25C483.22 207.25 483.052 207.295 482.899 207.385C482.749 207.475 482.627 207.597 482.534 207.75C482.444 207.903 482.399 208.072 482.399 208.255H481.019C481.019 207.805 481.127 207.4 481.344 207.04C481.564 206.68 481.854 206.395 482.214 206.185C482.577 205.975 482.974 205.87 483.404 205.87C483.84 205.87 484.239 205.977 484.599 206.19C484.959 206.403 485.245 206.692 485.459 207.055C485.672 207.415 485.779 207.815 485.779 208.255C485.779 208.482 485.744 208.702 485.674 208.915C485.607 209.128 485.509 209.342 485.379 209.555C485.249 209.765 485.09 209.98 484.904 210.2C484.72 210.417 484.512 210.643 484.279 210.88C484.049 211.113 483.8 211.36 483.534 211.62H485.799V213H480.999ZM489.186 213.13C488.782 213.13 488.414 213.037 488.081 212.85C487.747 212.66 487.457 212.398 487.211 212.065C486.967 211.732 486.779 211.347 486.646 210.91C486.512 210.47 486.446 210 486.446 209.5C486.446 209 486.512 208.532 486.646 208.095C486.779 207.655 486.967 207.268 487.211 206.935C487.457 206.602 487.747 206.342 488.081 206.155C488.414 205.965 488.782 205.87 489.186 205.87C489.589 205.87 489.957 205.965 490.291 206.155C490.624 206.342 490.911 206.602 491.151 206.935C491.394 207.268 491.582 207.655 491.716 208.095C491.849 208.532 491.916 209 491.916 209.5C491.916 210 491.849 210.47 491.716 210.91C491.582 211.347 491.394 211.732 491.151 212.065C490.911 212.398 490.624 212.66 490.291 212.85C489.957 213.037 489.589 213.13 489.186 213.13ZM489.186 211.75C489.516 211.75 489.787 211.643 490.001 211.43C490.214 211.217 490.371 210.938 490.471 210.595C490.574 210.252 490.626 209.887 490.626 209.5C490.626 209.09 490.571 208.715 490.461 208.375C490.354 208.035 490.194 207.763 489.981 207.56C489.767 207.353 489.502 207.25 489.186 207.25C488.936 207.25 488.719 207.312 488.536 207.435C488.356 207.558 488.206 207.727 488.086 207.94C487.969 208.153 487.881 208.395 487.821 208.665C487.764 208.932 487.736 209.21 487.736 209.5C487.736 209.887 487.787 210.252 487.891 210.595C487.997 210.935 488.157 211.213 488.371 211.43C488.587 211.643 488.859 211.75 489.186 211.75ZM492.62 213V211.77C492.82 211.63 493.063 211.45 493.35 211.23C493.636 211.007 493.935 210.762 494.245 210.495C494.555 210.225 494.843 209.952 495.11 209.675C495.38 209.398 495.598 209.137 495.765 208.89C495.935 208.643 496.02 208.432 496.02 208.255C496.02 208.072 495.975 207.903 495.885 207.75C495.795 207.597 495.675 207.475 495.525 207.385C495.375 207.295 495.208 207.25 495.025 207.25C494.841 207.25 494.673 207.295 494.52 207.385C494.37 207.475 494.248 207.597 494.155 207.75C494.065 207.903 494.02 208.072 494.02 208.255H492.64C492.64 207.805 492.748 207.4 492.965 207.04C493.185 206.68 493.475 206.395 493.835 206.185C494.198 205.975 494.595 205.87 495.025 205.87C495.461 205.87 495.86 205.977 496.22 206.19C496.58 206.403 496.866 206.692 497.08 207.055C497.293 207.415 497.4 207.815 497.4 208.255C497.4 208.482 497.365 208.702 497.295 208.915C497.228 209.128 497.13 209.342 497 209.555C496.87 209.765 496.711 209.98 496.525 210.2C496.341 210.417 496.133 210.643 495.9 210.88C495.67 211.113 495.421 211.36 495.155 211.62H497.42V213H492.62ZM500.807 213.13C500.403 213.13 500.035 213.037 499.702 212.85C499.368 212.66 499.078 212.398 498.832 212.065C498.588 211.732 498.4 211.347 498.267 210.91C498.133 210.47 498.067 210 498.067 209.5C498.067 209 498.133 208.532 498.267 208.095C498.4 207.655 498.588 207.268 498.832 206.935C499.078 206.602 499.368 206.342 499.702 206.155C500.035 205.965 500.403 205.87 500.807 205.87C501.21 205.87 501.578 205.965 501.912 206.155C502.245 206.342 502.532 206.602 502.772 206.935C503.015 207.268 503.203 207.655 503.337 208.095C503.47 208.532 503.537 209 503.537 209.5C503.537 210 503.47 210.47 503.337 210.91C503.203 211.347 503.015 211.732 502.772 212.065C502.532 212.398 502.245 212.66 501.912 212.85C501.578 213.037 501.21 213.13 500.807 213.13ZM500.807 211.75C501.137 211.75 501.408 211.643 501.622 211.43C501.835 211.217 501.992 210.938 502.092 210.595C502.195 210.252 502.247 209.887 502.247 209.5C502.247 209.09 502.192 208.715 502.082 208.375C501.975 208.035 501.815 207.763 501.602 207.56C501.388 207.353 501.123 207.25 500.807 207.25C500.557 207.25 500.34 207.312 500.157 207.435C499.977 207.558 499.827 207.727 499.707 207.94C499.59 208.153 499.502 208.395 499.442 208.665C499.385 208.932 499.357 209.21 499.357 209.5C499.357 209.887 499.408 210.252 499.512 210.595C499.618 210.935 499.778 211.213 499.992 211.43C500.208 211.643 500.48 211.75 500.807 211.75Z" fill="white"/>
<path opacity="0.2" d="M537.464 206H539.034L541.574 213H540.109L539.689 211.84H536.809L536.389 213H534.924L537.464 206ZM537.314 210.46H539.184L538.244 207.895L537.314 210.46ZM545.093 213.13C544.533 213.13 544.04 212.993 543.613 212.72C543.19 212.447 542.858 212.08 542.618 211.62C542.381 211.157 542.263 210.643 542.263 210.08V206H543.643V210.08C543.643 210.383 543.7 210.662 543.813 210.915C543.926 211.168 544.091 211.372 544.308 211.525C544.525 211.675 544.786 211.75 545.093 211.75C545.403 211.75 545.665 211.675 545.878 211.525C546.095 211.375 546.258 211.173 546.368 210.92C546.478 210.667 546.533 210.387 546.533 210.08V206H547.913V210.08C547.913 210.503 547.845 210.9 547.708 211.27C547.575 211.637 547.383 211.96 547.133 212.24C546.883 212.52 546.585 212.738 546.238 212.895C545.895 213.052 545.513 213.13 545.093 213.13ZM552.349 213.13C551.862 213.13 551.409 213.035 550.989 212.845C550.572 212.655 550.207 212.393 549.894 212.06C549.584 211.723 549.342 211.335 549.169 210.895C548.995 210.455 548.909 209.987 548.909 209.49C548.909 208.957 549.004 208.47 549.194 208.03C549.384 207.59 549.642 207.21 549.969 206.89C550.295 206.567 550.665 206.318 551.079 206.145C551.495 205.968 551.929 205.88 552.379 205.88C552.872 205.88 553.355 205.995 553.829 206.225C554.302 206.455 554.725 206.82 555.099 207.32L553.869 207.98C553.655 207.733 553.417 207.55 553.154 207.43C552.894 207.31 552.629 207.25 552.359 207.25C552.089 207.25 551.829 207.305 551.579 207.415C551.332 207.525 551.112 207.682 550.919 207.885C550.725 208.088 550.572 208.328 550.459 208.605C550.345 208.882 550.289 209.187 550.289 209.52C550.289 209.83 550.342 210.12 550.449 210.39C550.559 210.66 550.709 210.897 550.899 211.1C551.089 211.303 551.309 211.463 551.559 211.58C551.812 211.693 552.082 211.75 552.369 211.75C552.545 211.75 552.719 211.725 552.889 211.675C553.062 211.622 553.227 211.545 553.384 211.445C553.54 211.345 553.684 211.22 553.814 211.07C553.947 210.92 554.064 210.747 554.164 210.55H553.079V209.35H555.789C555.809 209.867 555.734 210.353 555.564 210.81C555.394 211.267 555.15 211.67 554.834 212.02C554.517 212.367 554.147 212.638 553.724 212.835C553.3 213.032 552.842 213.13 552.349 213.13ZM558.997 213V211.77C559.197 211.63 559.44 211.45 559.727 211.23C560.013 211.007 560.312 210.762 560.622 210.495C560.932 210.225 561.22 209.952 561.487 209.675C561.757 209.398 561.975 209.137 562.142 208.89C562.312 208.643 562.397 208.432 562.397 208.255C562.397 208.072 562.352 207.903 562.262 207.75C562.172 207.597 562.052 207.475 561.902 207.385C561.752 207.295 561.585 207.25 561.402 207.25C561.218 207.25 561.05 207.295 560.897 207.385C560.747 207.475 560.625 207.597 560.532 207.75C560.442 207.903 560.397 208.072 560.397 208.255H559.017C559.017 207.805 559.125 207.4 559.342 207.04C559.562 206.68 559.852 206.395 560.212 206.185C560.575 205.975 560.972 205.87 561.402 205.87C561.838 205.87 562.237 205.977 562.597 206.19C562.957 206.403 563.243 206.692 563.457 207.055C563.67 207.415 563.777 207.815 563.777 208.255C563.777 208.482 563.742 208.702 563.672 208.915C563.605 209.128 563.507 209.342 563.377 209.555C563.247 209.765 563.088 209.98 562.902 210.2C562.718 210.417 562.51 210.643 562.277 210.88C562.047 211.113 561.798 211.36 561.532 211.62H563.797V213H558.997ZM567.184 213.13C566.78 213.13 566.412 213.037 566.079 212.85C565.745 212.66 565.455 212.398 565.209 212.065C564.965 211.732 564.777 211.347 564.644 210.91C564.51 210.47 564.444 210 564.444 209.5C564.444 209 564.51 208.532 564.644 208.095C564.777 207.655 564.965 207.268 565.209 206.935C565.455 206.602 565.745 206.342 566.079 206.155C566.412 205.965 566.78 205.87 567.184 205.87C567.587 205.87 567.955 205.965 568.289 206.155C568.622 206.342 568.909 206.602 569.149 206.935C569.392 207.268 569.58 207.655 569.714 208.095C569.847 208.532 569.914 209 569.914 209.5C569.914 210 569.847 210.47 569.714 210.91C569.58 211.347 569.392 211.732 569.149 212.065C568.909 212.398 568.622 212.66 568.289 212.85C567.955 213.037 567.587 213.13 567.184 213.13ZM567.184 211.75C567.514 211.75 567.785 211.643 567.999 211.43C568.212 211.217 568.369 210.938 568.469 210.595C568.572 210.252 568.624 209.887 568.624 209.5C568.624 209.09 568.569 208.715 568.459 208.375C568.352 208.035 568.192 207.763 567.979 207.56C567.765 207.353 567.5 207.25 567.184 207.25C566.934 207.25 566.717 207.312 566.534 207.435C566.354 207.558 566.204 207.727 566.084 207.94C565.967 208.153 565.879 208.395 565.819 208.665C565.762 208.932 565.734 209.21 565.734 209.5C565.734 209.887 565.785 210.252 565.889 210.595C565.995 210.935 566.155 211.213 566.369 211.43C566.585 211.643 566.857 211.75 567.184 211.75ZM570.618 213V211.77C570.818 211.63 571.061 211.45 571.348 211.23C571.634 211.007 571.933 210.762 572.243 210.495C572.553 210.225 572.841 209.952 573.108 209.675C573.378 209.398 573.596 209.137 573.763 208.89C573.933 208.643 574.018 208.432 574.018 208.255C574.018 208.072 573.973 207.903 573.883 207.75C573.793 207.597 573.673 207.475 573.523 207.385C573.373 207.295 573.206 207.25 573.023 207.25C572.839 207.25 572.671 207.295 572.518 207.385C572.368 207.475 572.246 207.597 572.153 207.75C572.063 207.903 572.018 208.072 572.018 208.255H570.638C570.638 207.805 570.746 207.4 570.963 207.04C571.183 206.68 571.473 206.395 571.833 206.185C572.196 205.975 572.593 205.87 573.023 205.87C573.459 205.87 573.858 205.977 574.218 206.19C574.578 206.403 574.864 206.692 575.078 207.055C575.291 207.415 575.398 207.815 575.398 208.255C575.398 208.482 575.363 208.702 575.293 208.915C575.226 209.128 575.128 209.342 574.998 209.555C574.868 209.765 574.709 209.98 574.523 210.2C574.339 210.417 574.131 210.643 573.898 210.88C573.668 211.113 573.419 211.36 573.153 211.62H575.418V213H570.618ZM578.805 213.13C578.401 213.13 578.033 213.037 577.7 212.85C577.366 212.66 577.076 212.398 576.83 212.065C576.586 211.732 576.398 211.347 576.265 210.91C576.131 210.47 576.065 210 576.065 209.5C576.065 209 576.131 208.532 576.265 208.095C576.398 207.655 576.586 207.268 576.83 206.935C577.076 206.602 577.366 206.342 577.7 206.155C578.033 205.965 578.401 205.87 578.805 205.87C579.208 205.87 579.576 205.965 579.91 206.155C580.243 206.342 580.53 206.602 580.77 206.935C581.013 207.268 581.201 207.655 581.335 208.095C581.468 208.532 581.535 209 581.535 209.5C581.535 210 581.468 210.47 581.335 210.91C581.201 211.347 581.013 211.732 580.77 212.065C580.53 212.398 580.243 212.66 579.91 212.85C579.576 213.037 579.208 213.13 578.805 213.13ZM578.805 211.75C579.135 211.75 579.406 211.643 579.62 211.43C579.833 211.217 579.99 210.938 580.09 210.595C580.193 210.252 580.245 209.887 580.245 209.5C580.245 209.09 580.19 208.715 580.08 208.375C579.973 208.035 579.813 207.763 579.6 207.56C579.386 207.353 579.121 207.25 578.805 207.25C578.555 207.25 578.338 207.312 578.155 207.435C577.975 207.558 577.825 207.727 577.705 207.94C577.588 208.153 577.5 208.395 577.44 208.665C577.383 208.932 577.355 209.21 577.355 209.5C577.355 209.887 577.406 210.252 577.51 210.595C577.616 210.935 577.776 211.213 577.99 211.43C578.206 211.643 578.478 211.75 578.805 211.75Z" fill="white"/>
<path opacity="0.2" d="M615.224 213.13C614.831 213.13 614.454 213.068 614.094 212.945C613.737 212.822 613.424 212.643 613.154 212.41C612.887 212.177 612.696 211.9 612.579 211.58L613.874 211.1C613.914 211.213 613.997 211.32 614.124 211.42C614.251 211.517 614.409 211.597 614.599 211.66C614.789 211.72 614.997 211.75 615.224 211.75C615.441 211.75 615.644 211.718 615.834 211.655C616.027 211.588 616.182 211.497 616.299 211.38C616.419 211.263 616.479 211.127 616.479 210.97C616.479 210.813 616.417 210.683 616.294 210.58C616.171 210.477 616.012 210.395 615.819 210.335C615.626 210.272 615.427 210.223 615.224 210.19C614.721 210.117 614.269 209.998 613.869 209.835C613.472 209.668 613.159 209.44 612.929 209.15C612.699 208.857 612.584 208.485 612.584 208.035C612.584 207.602 612.706 207.223 612.949 206.9C613.196 206.577 613.519 206.325 613.919 206.145C614.322 205.965 614.757 205.875 615.224 205.875C615.611 205.875 615.984 205.937 616.344 206.06C616.704 206.183 617.017 206.362 617.284 206.595C617.554 206.828 617.747 207.108 617.864 207.435L616.569 207.905C616.529 207.792 616.446 207.687 616.319 207.59C616.192 207.493 616.034 207.415 615.844 207.355C615.654 207.295 615.447 207.265 615.224 207.265C615.011 207.262 614.807 207.293 614.614 207.36C614.424 207.427 614.267 207.518 614.144 207.635C614.024 207.752 613.964 207.885 613.964 208.035C613.964 208.232 614.021 208.38 614.134 208.48C614.251 208.58 614.404 208.652 614.594 208.695C614.784 208.738 614.994 208.777 615.224 208.81C615.697 208.88 616.134 209.005 616.534 209.185C616.934 209.362 617.254 209.598 617.494 209.895C617.737 210.188 617.859 210.547 617.859 210.97C617.859 211.403 617.737 211.782 617.494 212.105C617.251 212.428 616.929 212.68 616.529 212.86C616.129 213.04 615.694 213.13 615.224 213.13ZM618.978 213V206H623.408V207.38H620.358V208.56H622.738V209.94H620.358V211.62H623.408V213H618.978ZM624.515 213V206H627.095C627.478 206 627.823 206.097 628.13 206.29C628.44 206.483 628.687 206.742 628.87 207.065C629.053 207.385 629.145 207.738 629.145 208.125C629.145 208.518 629.052 208.877 628.865 209.2C628.678 209.52 628.428 209.775 628.115 209.965C627.805 210.155 627.465 210.25 627.095 210.25H625.895V213H624.515ZM625.895 208.87H626.94C627.093 208.87 627.232 208.833 627.355 208.76C627.478 208.683 627.577 208.582 627.65 208.455C627.727 208.325 627.765 208.182 627.765 208.025C627.765 207.872 627.727 207.732 627.65 207.605C627.577 207.475 627.478 207.372 627.355 207.295C627.232 207.218 627.093 207.18 626.94 207.18H625.895V208.87ZM632.352 213V211.77C632.552 211.63 632.795 211.45 633.082 211.23C633.369 211.007 633.667 210.762 633.977 210.495C634.287 210.225 634.575 209.952 634.842 209.675C635.112 209.398 635.33 209.137 635.497 208.89C635.667 208.643 635.752 208.432 635.752 208.255C635.752 208.072 635.707 207.903 635.617 207.75C635.527 207.597 635.407 207.475 635.257 207.385C635.107 207.295 634.94 207.25 634.757 207.25C634.574 207.25 634.405 207.295 634.252 207.385C634.102 207.475 633.98 207.597 633.887 207.75C633.797 207.903 633.752 208.072 633.752 208.255H632.372C632.372 207.805 632.48 207.4 632.697 207.04C632.917 206.68 633.207 206.395 633.567 206.185C633.93 205.975 634.327 205.87 634.757 205.87C635.194 205.87 635.592 205.977 635.952 206.19C636.312 206.403 636.599 206.692 636.812 207.055C637.025 207.415 637.132 207.815 637.132 208.255C637.132 208.482 637.097 208.702 637.027 208.915C636.96 209.128 636.862 209.342 636.732 209.555C636.602 209.765 636.444 209.98 636.257 210.2C636.074 210.417 635.865 210.643 635.632 210.88C635.402 211.113 635.154 211.36 634.887 211.62H637.152V213H632.352ZM640.539 213.13C640.136 213.13 639.767 213.037 639.434 212.85C639.101 212.66 638.811 212.398 638.564 212.065C638.321 211.732 638.132 211.347 637.999 210.91C637.866 210.47 637.799 210 637.799 209.5C637.799 209 637.866 208.532 637.999 208.095C638.132 207.655 638.321 207.268 638.564 206.935C638.811 206.602 639.101 206.342 639.434 206.155C639.767 205.965 640.136 205.87 640.539 205.87C640.942 205.87 641.311 205.965 641.644 206.155C641.977 206.342 642.264 206.602 642.504 206.935C642.747 207.268 642.936 207.655 643.069 208.095C643.202 208.532 643.269 209 643.269 209.5C643.269 210 643.202 210.47 643.069 210.91C642.936 211.347 642.747 211.732 642.504 212.065C642.264 212.398 641.977 212.66 641.644 212.85C641.311 213.037 640.942 213.13 640.539 213.13ZM640.539 211.75C640.869 211.75 641.141 211.643 641.354 211.43C641.567 211.217 641.724 210.938 641.824 210.595C641.927 210.252 641.979 209.887 641.979 209.5C641.979 209.09 641.924 208.715 641.814 208.375C641.707 208.035 641.547 207.763 641.334 207.56C641.121 207.353 640.856 207.25 640.539 207.25C640.289 207.25 640.072 207.312 639.889 207.435C639.709 207.558 639.559 207.727 639.439 207.94C639.322 208.153 639.234 208.395 639.174 208.665C639.117 208.932 639.089 209.21 639.089 209.5C639.089 209.887 639.141 210.252 639.244 210.595C639.351 210.935 639.511 211.213 639.724 211.43C639.941 211.643 640.212 211.75 640.539 211.75ZM643.973 213V211.77C644.173 211.63 644.417 211.45 644.703 211.23C644.99 211.007 645.288 210.762 645.598 210.495C645.908 210.225 646.197 209.952 646.463 209.675C646.733 209.398 646.952 209.137 647.118 208.89C647.288 208.643 647.373 208.432 647.373 208.255C647.373 208.072 647.328 207.903 647.238 207.75C647.148 207.597 647.028 207.475 646.878 207.385C646.728 207.295 646.562 207.25 646.378 207.25C646.195 207.25 646.027 207.295 645.873 207.385C645.723 207.475 645.602 207.597 645.508 207.75C645.418 207.903 645.373 208.072 645.373 208.255H643.993C643.993 207.805 644.102 207.4 644.318 207.04C644.538 206.68 644.828 206.395 645.188 206.185C645.552 205.975 645.948 205.87 646.378 205.87C646.815 205.87 647.213 205.977 647.573 206.19C647.933 206.403 648.22 206.692 648.433 207.055C648.647 207.415 648.753 207.815 648.753 208.255C648.753 208.482 648.718 208.702 648.648 208.915C648.582 209.128 648.483 209.342 648.353 209.555C648.223 209.765 648.065 209.98 647.878 210.2C647.695 210.417 647.487 210.643 647.253 210.88C647.023 211.113 646.775 211.36 646.508 211.62H648.773V213H643.973ZM652.16 213.13C651.757 213.13 651.388 213.037 651.055 212.85C650.722 212.66 650.432 212.398 650.185 212.065C649.942 211.732 649.753 211.347 649.62 210.91C649.487 210.47 649.42 210 649.42 209.5C649.42 209 649.487 208.532 649.62 208.095C649.753 207.655 649.942 207.268 650.185 206.935C650.432 206.602 650.722 206.342 651.055 206.155C651.388 205.965 651.757 205.87 652.16 205.87C652.563 205.87 652.932 205.965 653.265 206.155C653.598 206.342 653.885 206.602 654.125 206.935C654.368 207.268 654.557 207.655 654.69 208.095C654.823 208.532 654.89 209 654.89 209.5C654.89 210 654.823 210.47 654.69 210.91C654.557 211.347 654.368 211.732 654.125 212.065C653.885 212.398 653.598 212.66 653.265 212.85C652.932 213.037 652.563 213.13 652.16 213.13ZM652.16 211.75C652.49 211.75 652.762 211.643 652.975 211.43C653.188 211.217 653.345 210.938 653.445 210.595C653.548 210.252 653.6 209.887 653.6 209.5C653.6 209.09 653.545 208.715 653.435 208.375C653.328 208.035 653.168 207.763 652.955 207.56C652.742 207.353 652.477 207.25 652.16 207.25C651.91 207.25 651.693 207.312 651.51 207.435C651.33 207.558 651.18 207.727 651.06 207.94C650.943 208.153 650.855 208.395 650.795 208.665C650.738 208.932 650.71 209.21 650.71 209.5C650.71 209.887 650.762 210.252 650.865 210.595C650.972 210.935 651.132 211.213 651.345 211.43C651.562 211.643 651.833 211.75 652.16 211.75Z" fill="white"/>
<path opacity="0.2" d="M689.699 213.13C689.225 213.13 688.78 213.037 688.364 212.85C687.947 212.66 687.58 212.398 687.264 212.065C686.947 211.732 686.699 211.347 686.519 210.91C686.339 210.47 686.249 210 686.249 209.5C686.249 209 686.339 208.532 686.519 208.095C686.699 207.655 686.947 207.268 687.264 206.935C687.58 206.602 687.947 206.342 688.364 206.155C688.78 205.965 689.225 205.87 689.699 205.87C690.175 205.87 690.622 205.965 691.039 206.155C691.455 206.342 691.822 206.602 692.139 206.935C692.455 207.268 692.702 207.655 692.879 208.095C693.059 208.532 693.149 209 693.149 209.5C693.149 210 693.059 210.47 692.879 210.91C692.702 211.347 692.455 211.732 692.139 212.065C691.822 212.398 691.455 212.66 691.039 212.85C690.622 213.037 690.175 213.13 689.699 213.13ZM689.699 211.75C689.982 211.75 690.249 211.692 690.499 211.575C690.749 211.455 690.969 211.292 691.159 211.085C691.349 210.878 691.497 210.64 691.604 210.37C691.714 210.1 691.769 209.81 691.769 209.5C691.769 209.19 691.714 208.9 691.604 208.63C691.497 208.357 691.349 208.118 691.159 207.915C690.969 207.708 690.749 207.547 690.499 207.43C690.249 207.31 689.982 207.25 689.699 207.25C689.415 207.25 689.149 207.31 688.899 207.43C688.649 207.547 688.429 207.708 688.239 207.915C688.049 208.122 687.899 208.36 687.789 208.63C687.682 208.9 687.629 209.19 687.629 209.5C687.629 209.81 687.682 210.102 687.789 210.375C687.899 210.645 688.049 210.883 688.239 211.09C688.429 211.293 688.649 211.455 688.899 211.575C689.149 211.692 689.415 211.75 689.699 211.75ZM697.286 213.13C696.813 213.13 696.368 213.037 695.951 212.85C695.535 212.66 695.168 212.398 694.851 212.065C694.538 211.732 694.291 211.347 694.111 210.91C693.935 210.47 693.846 210 693.846 209.5C693.846 208.997 693.935 208.527 694.111 208.09C694.291 207.65 694.538 207.265 694.851 206.935C695.168 206.602 695.535 206.342 695.951 206.155C696.368 205.965 696.813 205.87 697.286 205.87C697.853 205.87 698.375 206.002 698.851 206.265C699.328 206.525 699.723 206.873 700.036 207.31L698.806 207.975C698.62 207.755 698.395 207.58 698.131 207.45C697.868 207.317 697.586 207.25 697.286 207.25C697.003 207.25 696.736 207.308 696.486 207.425C696.236 207.542 696.016 207.703 695.826 207.91C695.64 208.117 695.493 208.355 695.386 208.625C695.28 208.895 695.226 209.187 695.226 209.5C695.226 209.81 695.28 210.102 695.386 210.375C695.493 210.645 695.64 210.883 695.826 211.09C696.016 211.293 696.236 211.455 696.486 211.575C696.736 211.692 697.003 211.75 697.286 211.75C697.59 211.75 697.871 211.683 698.131 211.55C698.395 211.417 698.62 211.24 698.806 211.02L700.036 211.69C699.723 212.123 699.328 212.472 698.851 212.735C698.375 212.998 697.853 213.13 697.286 213.13ZM706.29 206V207.38H704.23V213H702.85V207.38H700.79V206H706.29ZM709.491 213V211.77C709.691 211.63 709.934 211.45 710.221 211.23C710.507 211.007 710.806 210.762 711.116 210.495C711.426 210.225 711.714 209.952 711.981 209.675C712.251 209.398 712.469 209.137 712.636 208.89C712.806 208.643 712.891 208.432 712.891 208.255C712.891 208.072 712.846 207.903 712.756 207.75C712.666 207.597 712.546 207.475 712.396 207.385C712.246 207.295 712.079 207.25 711.896 207.25C711.712 207.25 711.544 207.295 711.391 207.385C711.241 207.475 711.119 207.597 711.026 207.75C710.936 207.903 710.891 208.072 710.891 208.255H709.511C709.511 207.805 709.619 207.4 709.836 207.04C710.056 206.68 710.346 206.395 710.706 206.185C711.069 205.975 711.466 205.87 711.896 205.87C712.332 205.87 712.731 205.977 713.091 206.19C713.451 206.403 713.737 206.692 713.951 207.055C714.164 207.415 714.271 207.815 714.271 208.255C714.271 208.482 714.236 208.702 714.166 208.915C714.099 209.128 714.001 209.342 713.871 209.555C713.741 209.765 713.582 209.98 713.396 210.2C713.212 210.417 713.004 210.643 712.771 210.88C712.541 211.113 712.292 211.36 712.026 211.62H714.291V213H709.491ZM717.678 213.13C717.274 213.13 716.906 213.037 716.573 212.85C716.239 212.66 715.949 212.398 715.703 212.065C715.459 211.732 715.271 211.347 715.138 210.91C715.004 210.47 714.938 210 714.938 209.5C714.938 209 715.004 208.532 715.138 208.095C715.271 207.655 715.459 207.268 715.703 206.935C715.949 206.602 716.239 206.342 716.573 206.155C716.906 205.965 717.274 205.87 717.678 205.87C718.081 205.87 718.449 205.965 718.783 206.155C719.116 206.342 719.403 206.602 719.643 206.935C719.886 207.268 720.074 207.655 720.208 208.095C720.341 208.532 720.408 209 720.408 209.5C720.408 210 720.341 210.47 720.208 210.91C720.074 211.347 719.886 211.732 719.643 212.065C719.403 212.398 719.116 212.66 718.783 212.85C718.449 213.037 718.081 213.13 717.678 213.13ZM717.678 211.75C718.008 211.75 718.279 211.643 718.493 211.43C718.706 211.217 718.863 210.938 718.963 210.595C719.066 210.252 719.118 209.887 719.118 209.5C719.118 209.09 719.063 208.715 718.953 208.375C718.846 208.035 718.686 207.763 718.473 207.56C718.259 207.353 717.994 207.25 717.678 207.25C717.428 207.25 717.211 207.312 717.028 207.435C716.848 207.558 716.698 207.727 716.578 207.94C716.461 208.153 716.373 208.395 716.313 208.665C716.256 208.932 716.228 209.21 716.228 209.5C716.228 209.887 716.279 210.252 716.383 210.595C716.489 210.935 716.649 211.213 716.863 211.43C717.079 211.643 717.351 211.75 717.678 211.75ZM721.112 213V211.77C721.312 211.63 721.555 211.45 721.842 211.23C722.129 211.007 722.427 210.762 722.737 210.495C723.047 210.225 723.335 209.952 723.602 209.675C723.872 209.398 724.09 209.137 724.257 208.89C724.427 208.643 724.512 208.432 724.512 208.255C724.512 208.072 724.467 207.903 724.377 207.75C724.287 207.597 724.167 207.475 724.017 207.385C723.867 207.295 723.7 207.25 723.517 207.25C723.334 207.25 723.165 207.295 723.012 207.385C722.862 207.475 722.74 207.597 722.647 207.75C722.557 207.903 722.512 208.072 722.512 208.255H721.132C721.132 207.805 721.24 207.4 721.457 207.04C721.677 206.68 721.967 206.395 722.327 206.185C722.69 205.975 723.087 205.87 723.517 205.87C723.954 205.87 724.352 205.977 724.712 206.19C725.072 206.403 725.359 206.692 725.572 207.055C725.785 207.415 725.892 207.815 725.892 208.255C725.892 208.482 725.857 208.702 725.787 208.915C725.72 209.128 725.622 209.342 725.492 209.555C725.362 209.765 725.204 209.98 725.017 210.2C724.834 210.417 724.625 210.643 724.392 210.88C724.162 211.113 723.914 211.36 723.647 211.62H725.912V213H721.112ZM729.299 213.13C728.895 213.13 728.527 213.037 728.194 212.85C727.86 212.66 727.57 212.398 727.324 212.065C727.08 211.732 726.892 211.347 726.759 210.91C726.625 210.47 726.559 210 726.559 209.5C726.559 209 726.625 208.532 726.759 208.095C726.892 207.655 727.08 207.268 727.324 206.935C727.57 206.602 727.86 206.342 728.194 206.155C728.527 205.965 728.895 205.87 729.299 205.87C729.702 205.87 730.07 205.965 730.404 206.155C730.737 206.342 731.024 206.602 731.264 206.935C731.507 207.268 731.695 207.655 731.829 208.095C731.962 208.532 732.029 209 732.029 209.5C732.029 210 731.962 210.47 731.829 210.91C731.695 211.347 731.507 211.732 731.264 212.065C731.024 212.398 730.737 212.66 730.404 212.85C730.07 213.037 729.702 213.13 729.299 213.13ZM729.299 211.75C729.629 211.75 729.9 211.643 730.114 211.43C730.327 211.217 730.484 210.938 730.584 210.595C730.687 210.252 730.739 209.887 730.739 209.5C730.739 209.09 730.684 208.715 730.574 208.375C730.467 208.035 730.307 207.763 730.094 207.56C729.88 207.353 729.615 207.25 729.299 207.25C729.049 207.25 728.832 207.312 728.649 207.435C728.469 207.558 728.319 207.727 728.199 207.94C728.082 208.153 727.994 208.395 727.934 208.665C727.877 208.932 727.849 209.21 727.849 209.5C727.849 209.887 727.9 210.252 728.004 210.595C728.11 210.935 728.27 211.213 728.484 211.43C728.7 211.643 728.972 211.75 729.299 211.75Z" fill="white"/>
<path opacity="0.2" d="M761.371 213V206H762.861L765.591 210.505V206H766.971V213H765.481L762.751 208.495V213H761.371ZM771.417 213.13C770.944 213.13 770.499 213.037 770.082 212.85C769.666 212.66 769.299 212.398 768.982 212.065C768.666 211.732 768.417 211.347 768.237 210.91C768.057 210.47 767.967 210 767.967 209.5C767.967 209 768.057 208.532 768.237 208.095C768.417 207.655 768.666 207.268 768.982 206.935C769.299 206.602 769.666 206.342 770.082 206.155C770.499 205.965 770.944 205.87 771.417 205.87C771.894 205.87 772.341 205.965 772.757 206.155C773.174 206.342 773.541 206.602 773.857 206.935C774.174 207.268 774.421 207.655 774.597 208.095C774.777 208.532 774.867 209 774.867 209.5C774.867 210 774.777 210.47 774.597 210.91C774.421 211.347 774.174 211.732 773.857 212.065C773.541 212.398 773.174 212.66 772.757 212.85C772.341 213.037 771.894 213.13 771.417 213.13ZM771.417 211.75C771.701 211.75 771.967 211.692 772.217 211.575C772.467 211.455 772.687 211.292 772.877 211.085C773.067 210.878 773.216 210.64 773.322 210.37C773.432 210.1 773.487 209.81 773.487 209.5C773.487 209.19 773.432 208.9 773.322 208.63C773.216 208.357 773.067 208.118 772.877 207.915C772.687 207.708 772.467 207.547 772.217 207.43C771.967 207.31 771.701 207.25 771.417 207.25C771.134 207.25 770.867 207.31 770.617 207.43C770.367 207.547 770.147 207.708 769.957 207.915C769.767 208.122 769.617 208.36 769.507 208.63C769.401 208.9 769.347 209.19 769.347 209.5C769.347 209.81 769.401 210.102 769.507 210.375C769.617 210.645 769.767 210.883 769.957 211.09C770.147 211.293 770.367 211.455 770.617 211.575C770.867 211.692 771.134 211.75 771.417 211.75ZM777.901 213L775.361 206H776.826L778.791 211.405L780.756 206H782.216L779.676 213H777.901ZM785.477 213V211.77C785.677 211.63 785.92 211.45 786.207 211.23C786.494 211.007 786.792 210.762 787.102 210.495C787.412 210.225 787.7 209.952 787.967 209.675C788.237 209.398 788.455 209.137 788.622 208.89C788.792 208.643 788.877 208.432 788.877 208.255C788.877 208.072 788.832 207.903 788.742 207.75C788.652 207.597 788.532 207.475 788.382 207.385C788.232 207.295 788.065 207.25 787.882 207.25C787.699 207.25 787.53 207.295 787.377 207.385C787.227 207.475 787.105 207.597 787.012 207.75C786.922 207.903 786.877 208.072 786.877 208.255H785.497C785.497 207.805 785.605 207.4 785.822 207.04C786.042 206.68 786.332 206.395 786.692 206.185C787.055 205.975 787.452 205.87 787.882 205.87C788.319 205.87 788.717 205.977 789.077 206.19C789.437 206.403 789.724 206.692 789.937 207.055C790.15 207.415 790.257 207.815 790.257 208.255C790.257 208.482 790.222 208.702 790.152 208.915C790.085 209.128 789.987 209.342 789.857 209.555C789.727 209.765 789.569 209.98 789.382 210.2C789.199 210.417 788.99 210.643 788.757 210.88C788.527 211.113 788.279 211.36 788.012 211.62H790.277V213H785.477ZM793.664 213.13C793.261 213.13 792.892 213.037 792.559 212.85C792.226 212.66 791.936 212.398 791.689 212.065C791.446 211.732 791.257 211.347 791.124 210.91C790.991 210.47 790.924 210 790.924 209.5C790.924 209 790.991 208.532 791.124 208.095C791.257 207.655 791.446 207.268 791.689 206.935C791.936 206.602 792.226 206.342 792.559 206.155C792.892 205.965 793.261 205.87 793.664 205.87C794.067 205.87 794.436 205.965 794.769 206.155C795.102 206.342 795.389 206.602 795.629 206.935C795.872 207.268 796.061 207.655 796.194 208.095C796.327 208.532 796.394 209 796.394 209.5C796.394 210 796.327 210.47 796.194 210.91C796.061 211.347 795.872 211.732 795.629 212.065C795.389 212.398 795.102 212.66 794.769 212.85C794.436 213.037 794.067 213.13 793.664 213.13ZM793.664 211.75C793.994 211.75 794.266 211.643 794.479 211.43C794.692 211.217 794.849 210.938 794.949 210.595C795.052 210.252 795.104 209.887 795.104 209.5C795.104 209.09 795.049 208.715 794.939 208.375C794.832 208.035 794.672 207.763 794.459 207.56C794.246 207.353 793.981 207.25 793.664 207.25C793.414 207.25 793.197 207.312 793.014 207.435C792.834 207.558 792.684 207.727 792.564 207.94C792.447 208.153 792.359 208.395 792.299 208.665C792.242 208.932 792.214 209.21 792.214 209.5C792.214 209.887 792.266 210.252 792.369 210.595C792.476 210.935 792.636 211.213 792.849 211.43C793.066 211.643 793.337 211.75 793.664 211.75ZM797.098 213V211.77C797.298 211.63 797.542 211.45 797.828 211.23C798.115 211.007 798.413 210.762 798.723 210.495C799.033 210.225 799.322 209.952 799.588 209.675C799.858 209.398 800.077 209.137 800.243 208.89C800.413 208.643 800.498 208.432 800.498 208.255C800.498 208.072 800.453 207.903 800.363 207.75C800.273 207.597 800.153 207.475 800.003 207.385C799.853 207.295 799.687 207.25 799.503 207.25C799.32 207.25 799.152 207.295 798.998 207.385C798.848 207.475 798.727 207.597 798.633 207.75C798.543 207.903 798.498 208.072 798.498 208.255H797.118C797.118 207.805 797.227 207.4 797.443 207.04C797.663 206.68 797.953 206.395 798.313 206.185C798.677 205.975 799.073 205.87 799.503 205.87C799.94 205.87 800.338 205.977 800.698 206.19C801.058 206.403 801.345 206.692 801.558 207.055C801.772 207.415 801.878 207.815 801.878 208.255C801.878 208.482 801.843 208.702 801.773 208.915C801.707 209.128 801.608 209.342 801.478 209.555C801.348 209.765 801.19 209.98 801.003 210.2C800.82 210.417 800.612 210.643 800.378 210.88C800.148 211.113 799.9 211.36 799.633 211.62H801.898V213H797.098ZM805.285 213.13C804.882 213.13 804.513 213.037 804.18 212.85C803.847 212.66 803.557 212.398 803.31 212.065C803.067 211.732 802.878 211.347 802.745 210.91C802.612 210.47 802.545 210 802.545 209.5C802.545 209 802.612 208.532 802.745 208.095C802.878 207.655 803.067 207.268 803.31 206.935C803.557 206.602 803.847 206.342 804.18 206.155C804.513 205.965 804.882 205.87 805.285 205.87C805.688 205.87 806.057 205.965 806.39 206.155C806.723 206.342 807.01 206.602 807.25 206.935C807.493 207.268 807.682 207.655 807.815 208.095C807.948 208.532 808.015 209 808.015 209.5C808.015 210 807.948 210.47 807.815 210.91C807.682 211.347 807.493 211.732 807.25 212.065C807.01 212.398 806.723 212.66 806.39 212.85C806.057 213.037 805.688 213.13 805.285 213.13ZM805.285 211.75C805.615 211.75 805.887 211.643 806.1 211.43C806.313 211.217 806.47 210.938 806.57 210.595C806.673 210.252 806.725 209.887 806.725 209.5C806.725 209.09 806.67 208.715 806.56 208.375C806.453 208.035 806.293 207.763 806.08 207.56C805.867 207.353 805.602 207.25 805.285 207.25C805.035 207.25 804.818 207.312 804.635 207.435C804.455 207.558 804.305 207.727 804.185 207.94C804.068 208.153 803.98 208.395 803.92 208.665C803.863 208.932 803.835 209.21 803.835 209.5C803.835 209.887 803.887 210.252 803.99 210.595C804.097 210.935 804.257 211.213 804.47 211.43C804.687 211.643 804.958 211.75 805.285 211.75Z" fill="white"/>
<path opacity="0.2" d="M838.173 213V206H840.493C840.977 206 841.428 206.092 841.848 206.275C842.272 206.455 842.643 206.707 842.963 207.03C843.287 207.35 843.538 207.722 843.718 208.145C843.902 208.565 843.993 209.017 843.993 209.5C843.993 209.983 843.902 210.437 843.718 210.86C843.538 211.28 843.287 211.652 842.963 211.975C842.643 212.295 842.272 212.547 841.848 212.73C841.428 212.91 840.977 213 840.493 213H838.173ZM839.553 211.62H840.493C840.78 211.62 841.05 211.565 841.303 211.455C841.56 211.345 841.787 211.193 841.983 211C842.18 210.807 842.333 210.582 842.443 210.325C842.557 210.068 842.613 209.793 842.613 209.5C842.613 209.207 842.557 208.933 842.443 208.68C842.333 208.423 842.18 208.198 841.983 208.005C841.79 207.808 841.565 207.655 841.308 207.545C841.055 207.435 840.783 207.38 840.493 207.38H839.553V211.62ZM844.775 213V206H849.205V207.38H846.155V208.56H848.535V209.94H846.155V211.62H849.205V213H844.775ZM853.532 213.13C853.059 213.13 852.614 213.037 852.197 212.85C851.781 212.66 851.414 212.398 851.097 212.065C850.784 211.732 850.537 211.347 850.357 210.91C850.181 210.47 850.092 210 850.092 209.5C850.092 208.997 850.181 208.527 850.357 208.09C850.537 207.65 850.784 207.265 851.097 206.935C851.414 206.602 851.781 206.342 852.197 206.155C852.614 205.965 853.059 205.87 853.532 205.87C854.099 205.87 854.621 206.002 855.097 206.265C855.574 206.525 855.969 206.873 856.282 207.31L855.052 207.975C854.866 207.755 854.641 207.58 854.377 207.45C854.114 207.317 853.832 207.25 853.532 207.25C853.249 207.25 852.982 207.308 852.732 207.425C852.482 207.542 852.262 207.703 852.072 207.91C851.886 208.117 851.739 208.355 851.632 208.625C851.526 208.895 851.472 209.187 851.472 209.5C851.472 209.81 851.526 210.102 851.632 210.375C851.739 210.645 851.886 210.883 852.072 211.09C852.262 211.293 852.482 211.455 852.732 211.575C852.982 211.692 853.249 211.75 853.532 211.75C853.836 211.75 854.117 211.683 854.377 211.55C854.641 211.417 854.866 211.24 855.052 211.02L856.282 211.69C855.969 212.123 855.574 212.472 855.097 212.735C854.621 212.998 854.099 213.13 853.532 213.13ZM859.585 213V211.77C859.785 211.63 860.028 211.45 860.315 211.23C860.601 211.007 860.9 210.762 861.21 210.495C861.52 210.225 861.808 209.952 862.075 209.675C862.345 209.398 862.563 209.137 862.73 208.89C862.9 208.643 862.985 208.432 862.985 208.255C862.985 208.072 862.94 207.903 862.85 207.75C862.76 207.597 862.64 207.475 862.49 207.385C862.34 207.295 862.173 207.25 861.99 207.25C861.806 207.25 861.638 207.295 861.485 207.385C861.335 207.475 861.213 207.597 861.12 207.75C861.03 207.903 860.985 208.072 860.985 208.255H859.605C859.605 207.805 859.713 207.4 859.93 207.04C860.15 206.68 860.44 206.395 860.8 206.185C861.163 205.975 861.56 205.87 861.99 205.87C862.426 205.87 862.825 205.977 863.185 206.19C863.545 206.403 863.831 206.692 864.045 207.055C864.258 207.415 864.365 207.815 864.365 208.255C864.365 208.482 864.33 208.702 864.26 208.915C864.193 209.128 864.095 209.342 863.965 209.555C863.835 209.765 863.676 209.98 863.49 210.2C863.306 210.417 863.098 210.643 862.865 210.88C862.635 211.113 862.386 211.36 862.12 211.62H864.385V213H859.585ZM867.771 213.13C867.368 213.13 867 213.037 866.666 212.85C866.333 212.66 866.043 212.398 865.796 212.065C865.553 211.732 865.365 211.347 865.231 210.91C865.098 210.47 865.031 210 865.031 209.5C865.031 209 865.098 208.532 865.231 208.095C865.365 207.655 865.553 207.268 865.796 206.935C866.043 206.602 866.333 206.342 866.666 206.155C867 205.965 867.368 205.87 867.771 205.87C868.175 205.87 868.543 205.965 868.876 206.155C869.21 206.342 869.496 206.602 869.736 206.935C869.98 207.268 870.168 207.655 870.301 208.095C870.435 208.532 870.501 209 870.501 209.5C870.501 210 870.435 210.47 870.301 210.91C870.168 211.347 869.98 211.732 869.736 212.065C869.496 212.398 869.21 212.66 868.876 212.85C868.543 213.037 868.175 213.13 867.771 213.13ZM867.771 211.75C868.101 211.75 868.373 211.643 868.586 211.43C868.8 211.217 868.956 210.938 869.056 210.595C869.16 210.252 869.211 209.887 869.211 209.5C869.211 209.09 869.156 208.715 869.046 208.375C868.94 208.035 868.78 207.763 868.566 207.56C868.353 207.353 868.088 207.25 867.771 207.25C867.521 207.25 867.305 207.312 867.121 207.435C866.941 207.558 866.791 207.727 866.671 207.94C866.555 208.153 866.466 208.395 866.406 208.665C866.35 208.932 866.321 209.21 866.321 209.5C866.321 209.887 866.373 210.252 866.476 210.595C866.583 210.935 866.743 211.213 866.956 211.43C867.173 211.643 867.445 211.75 867.771 211.75ZM871.206 213V211.77C871.406 211.63 871.649 211.45 871.936 211.23C872.222 211.007 872.521 210.762 872.831 210.495C873.141 210.225 873.429 209.952 873.696 209.675C873.966 209.398 874.184 209.137 874.351 208.89C874.521 208.643 874.606 208.432 874.606 208.255C874.606 208.072 874.561 207.903 874.471 207.75C874.381 207.597 874.261 207.475 874.111 207.385C873.961 207.295 873.794 207.25 873.611 207.25C873.427 207.25 873.259 207.295 873.106 207.385C872.956 207.475 872.834 207.597 872.741 207.75C872.651 207.903 872.606 208.072 872.606 208.255H871.226C871.226 207.805 871.334 207.4 871.551 207.04C871.771 206.68 872.061 206.395 872.421 206.185C872.784 205.975 873.181 205.87 873.611 205.87C874.047 205.87 874.446 205.977 874.806 206.19C875.166 206.403 875.452 206.692 875.666 207.055C875.879 207.415 875.986 207.815 875.986 208.255C875.986 208.482 875.951 208.702 875.881 208.915C875.814 209.128 875.716 209.342 875.586 209.555C875.456 209.765 875.297 209.98 875.111 210.2C874.927 210.417 874.719 210.643 874.486 210.88C874.256 211.113 874.007 211.36 873.741 211.62H876.006V213H871.206ZM879.393 213.13C878.989 213.13 878.621 213.037 878.288 212.85C877.954 212.66 877.664 212.398 877.418 212.065C877.174 211.732 876.986 211.347 876.853 210.91C876.719 210.47 876.653 210 876.653 209.5C876.653 209 876.719 208.532 876.853 208.095C876.986 207.655 877.174 207.268 877.418 206.935C877.664 206.602 877.954 206.342 878.288 206.155C878.621 205.965 878.989 205.87 879.393 205.87C879.796 205.87 880.164 205.965 880.498 206.155C880.831 206.342 881.118 206.602 881.358 206.935C881.601 207.268 881.789 207.655 881.923 208.095C882.056 208.532 882.123 209 882.123 209.5C882.123 210 882.056 210.47 881.923 210.91C881.789 211.347 881.601 211.732 881.358 212.065C881.118 212.398 880.831 212.66 880.498 212.85C880.164 213.037 879.796 213.13 879.393 213.13ZM879.393 211.75C879.723 211.75 879.994 211.643 880.208 211.43C880.421 211.217 880.578 210.938 880.678 210.595C880.781 210.252 880.833 209.887 880.833 209.5C880.833 209.09 880.778 208.715 880.668 208.375C880.561 208.035 880.401 207.763 880.188 207.56C879.974 207.353 879.709 207.25 879.393 207.25C879.143 207.25 878.926 207.312 878.743 207.435C878.563 207.558 878.413 207.727 878.293 207.94C878.176 208.153 878.088 208.395 878.028 208.665C877.971 208.932 877.943 209.21 877.943 209.5C877.943 209.887 877.994 210.252 878.098 210.595C878.204 210.935 878.364 211.213 878.578 211.43C878.794 211.643 879.066 211.75 879.393 211.75Z" fill="white"/>
<path d="M17 58C17 55.2386 19.2386 53 22 53V53C24.7614 53 27 55.2386 27 58V192H17V58Z" fill="#205BF1"/>
<path d="M33 130C33 127.239 35.2386 125 38 125V125C40.7614 125 43 127.239 43 130V192H33V130Z" fill="#3DA9CA"/>
<path d="M92.4541 122C92.4541 119.239 94.6927 117 97.4541 117V117C100.216 117 102.454 119.239 102.454 122V192H92.4541V122Z" fill="#205BF1"/>
<path d="M108.454 157C108.454 154.239 110.693 152 113.454 152V152C116.216 152 118.454 154.239 118.454 157V192H108.454V157Z" fill="#3DA9CA"/>
<path d="M167.909 111C167.909 108.239 170.148 106 172.909 106V106C175.671 106 177.909 108.239 177.909 111V192H167.909V111Z" fill="#205BF1"/>
<path d="M183.909 126C183.909 123.239 186.148 121 188.909 121V121C191.671 121 193.909 123.239 193.909 126V192H183.909V126Z" fill="#3DA9CA"/>
<path d="M243.363 20C243.363 17.2386 245.602 15 248.363 15V15C251.125 15 253.363 17.2386 253.363 20V192H243.363V20Z" fill="#205BF1"/>
<path d="M259.363 80C259.363 77.2386 261.602 75 264.363 75V75C267.125 75 269.363 77.2386 269.363 80V192H259.363V80Z" fill="#3DA9CA"/>
<path d="M318.818 53C318.818 50.2386 321.057 48 323.818 48V48C326.58 48 328.818 50.2386 328.818 53V192H318.818V53Z" fill="#205BF1"/>
<path d="M334.818 112C334.818 109.239 337.057 107 339.818 107V107C342.58 107 344.818 109.239 344.818 112V192H334.818V112Z" fill="#3DA9CA"/>
<path d="M394.272 106C394.272 103.239 396.511 101 399.272 101V101C402.034 101 404.272 103.239 404.272 106V192H394.272V106Z" fill="#205BF1"/>
<path d="M410.272 125C410.272 122.239 412.511 120 415.272 120V120C418.034 120 420.272 122.239 420.272 125V192H410.272V125Z" fill="#3DA9CA"/>
<path d="M469.728 74C469.728 71.2386 471.966 69 474.728 69V69C477.489 69 479.728 71.2386 479.728 74V192H469.728V74Z" fill="#205BF1"/>
<path d="M485.728 134C485.728 131.239 487.966 129 490.728 129V129C493.489 129 495.728 131.239 495.728 134V192H485.728V134Z" fill="#3DA9CA"/>
<path d="M545.182 16C545.182 13.2386 547.42 11 550.182 11V11C552.943 11 555.182 13.2386 555.182 16V192H545.182V16Z" fill="#205BF1"/>
<path d="M561.182 73C561.182 70.2386 563.42 68 566.182 68V68C568.943 68 571.182 70.2386 571.182 73V192H561.182V73Z" fill="#3DA9CA"/>
<path d="M620.637 108C620.637 105.239 622.875 103 625.637 103V103C628.398 103 630.637 105.239 630.637 108V192H620.637V108Z" fill="#205BF1"/>
<path d="M636.637 147C636.637 144.239 638.875 142 641.637 142V142C644.398 142 646.637 144.239 646.637 147V192H636.637V147Z" fill="#3DA9CA"/>
<path d="M696.091 53C696.091 50.2386 698.329 48 701.091 48V48C703.852 48 706.091 50.2386 706.091 53V192H696.091V53Z" fill="#205BF1"/>
<path d="M712.091 112C712.091 109.239 714.329 107 717.091 107V107C719.852 107 722.091 109.239 722.091 112V192H712.091V112Z" fill="#3DA9CA"/>
<path d="M771.545 106C771.545 103.239 773.783 101 776.545 101V101C779.306 101 781.545 103.239 781.545 106V192H771.545V106Z" fill="#205BF1"/>
<path d="M787.545 125C787.545 122.239 789.783 120 792.545 120V120C795.306 120 797.545 122.239 797.545 125V192H787.545V125Z" fill="#3DA9CA"/>
<path d="M847 74C847 71.2386 849.239 69 852 69V69C854.761 69 857 71.2386 857 74V192H847V74Z" fill="#205BF1"/>
<path d="M863 134C863 131.239 865.239 129 868 129V129C870.761 129 873 131.239 873 134V192H863V134Z" fill="#3DA9CA"/>
</g>
<defs>
<clipPath id="clip0_460_1884">
<rect width="890" height="280" fill="white"/>
</clipPath>
</defs>
</svg>
