<svg width="398" height="473" viewBox="0 0 398 473" fill="none" xmlns="http://www.w3.org/2000/svg">
<path fill-rule="evenodd" clip-rule="evenodd" d="M75.7171 45.117C60.0462 60.0319 61.7977 82.7487 79.6293 95.8563L174.517 165.606L86.0204 185.44C70.7085 188.872 58.8976 199.074 55.2899 211.986C51.6822 224.897 56.8634 238.421 68.7707 247.174L223.987 361.27C241.818 374.378 268.978 372.913 284.648 357.998C300.319 343.083 298.568 320.366 280.736 307.258L185.849 237.508L274.345 217.675C289.657 214.243 301.468 204.04 305.076 191.129C308.683 178.218 303.502 164.694 291.595 155.941L136.379 41.8447C118.547 28.737 91.388 30.2021 75.7171 45.117Z" fill="#205BF1"/>
<path fill-rule="evenodd" clip-rule="evenodd" d="M92.4788 89.7654C76.8079 104.68 78.5595 127.397 96.391 140.505L191.279 210.255L102.782 230.089C87.4702 233.52 75.6594 243.723 72.0517 256.634C68.444 269.545 73.6251 283.069 85.5324 291.822L240.749 405.919C258.58 419.026 285.739 417.561 301.41 402.646C317.081 387.731 315.33 365.015 297.498 351.907L202.61 282.157L291.107 262.323C306.419 258.891 318.23 248.689 321.837 235.778C325.445 222.866 320.264 209.342 308.357 200.59L153.14 86.4931C135.309 73.3854 108.15 74.8505 92.4788 89.7654Z" fill="url(#paint0_linear_396_1688)"/>
<path fill-rule="evenodd" clip-rule="evenodd" d="M97.5062 114.839C81.8353 129.754 83.5869 152.47 101.418 165.578L196.306 235.328L107.81 255.162C92.4977 258.594 80.6868 268.796 77.0791 281.707C73.4714 294.619 78.6525 308.143 90.5598 316.895L245.776 430.992C263.608 444.1 290.767 442.634 306.438 427.72C322.109 412.805 320.357 390.088 302.525 376.98L207.638 307.23L312.896 287.396C328.208 283.965 340.018 273.762 343.626 260.851C347.234 247.94 342.053 234.416 330.145 225.663L158.168 111.566C140.336 98.4587 113.177 99.9238 97.5062 114.839Z" fill="url(#paint1_linear_396_1688)"/>
<defs>
<linearGradient id="paint0_linear_396_1688" x1="141.319" y1="72.5641" x2="220.751" y2="426.979" gradientUnits="userSpaceOnUse">
<stop stop-color="#13D2DE"/>
<stop offset="1" stop-color="#13D2DE" stop-opacity="0"/>
</linearGradient>
<linearGradient id="paint1_linear_396_1688" x1="146.346" y1="97.637" x2="225.778" y2="452.052" gradientUnits="userSpaceOnUse">
<stop stop-color="#F12052"/>
<stop offset="1" stop-color="#F12052" stop-opacity="0"/>
</linearGradient>
</defs>
</svg>
