<svg width="303" height="90" viewBox="0 0 303 90" fill="none" xmlns="http://www.w3.org/2000/svg">
<g filter="url(#filter0_bd_363_1834)">
<rect x="4" width="295" height="82" rx="12" fill="url(#paint0_linear_363_1834)" fill-opacity="0.9" shape-rendering="crispEdges"/>
<rect x="4.5" y="0.5" width="294" height="81" rx="11.5" stroke="white" stroke-opacity="0.1" shape-rendering="crispEdges"/>
<g clip-path="url(#clip0_363_1834)">
<rect x="16" y="12" width="40" height="40" rx="20" fill="white"/>
<path d="M30 24.8317C30 24.0405 30.8752 23.5627 31.5408 23.9905L42.6915 31.1588C43.3038 31.5525 43.3038 32.4475 42.6915 32.8412L31.5408 40.0095C30.8752 40.4373 30 39.9595 30 39.1683V24.8317Z" fill="url(#paint1_linear_363_1834)"/>
<rect x="68" y="15" width="2" height="34" rx="1" fill="#2035F1"/>
<rect x="98" y="15" width="2" height="34" rx="1" fill="#2035F1"/>
<rect x="176" y="15" width="2" height="34" rx="1" fill="#205BF1"/>
<rect x="128" y="15" width="2" height="34" rx="1" fill="#2035F1"/>
<rect x="206" y="15" width="2" height="34" rx="1" fill="#205BF1"/>
<rect width="2" height="34" rx="1" transform="matrix(-1 0 0 1 268 15)" fill="#205BF1"/>
<rect width="2" height="34" rx="1" transform="matrix(-1 0 0 1 136 15)" fill="#2035F1"/>
<rect width="2" height="34" rx="1" transform="matrix(-1 0 0 1 214 15)" fill="#205BF1"/>
<rect x="260" y="15" width="2" height="34" rx="1" fill="#205BF1"/>
<rect x="74" y="25" width="2" height="14" rx="1" fill="#2035F1"/>
<rect x="104" y="25" width="2" height="14" rx="1" fill="#2035F1"/>
<rect x="182" y="25" width="2" height="14" rx="1" fill="#205BF1"/>
<rect width="2" height="14" rx="1" transform="matrix(-1 0 0 1 160 25)" fill="#205BF1"/>
<rect width="2" height="14" rx="1" transform="matrix(-1 0 0 1 238 25)" fill="#205BF1"/>
<rect x="86" y="25" width="2" height="14" rx="1" fill="#2035F1"/>
<rect x="164" y="25" width="2" height="14" rx="1" fill="#205BF1"/>
<rect x="116" y="25" width="2" height="14" rx="1" fill="#2035F1"/>
<rect x="194" y="25" width="2" height="14" rx="1" fill="#205BF1"/>
<rect width="2" height="14" rx="1" transform="matrix(-1 0 0 1 148 25)" fill="#205BF1"/>
<rect width="2" height="14" rx="1" transform="matrix(-1 0 0 1 226 25)" fill="#205BF1"/>
<rect x="248" y="25" width="2" height="14" rx="1" fill="#205BF1"/>
<rect width="2" height="14" rx="1" transform="matrix(-1 0 0 1 280 25)" fill="#205BF1"/>
<rect width="2" height="14" rx="1" transform="matrix(-1 0 0 1 286 25)" fill="#205BF1"/>
<rect x="80" y="20" width="2" height="24" rx="1" fill="#2035F1"/>
<rect x="110" y="20" width="2" height="24" rx="1" fill="#2035F1"/>
<rect x="188" y="20" width="2" height="24" rx="1" fill="#205BF1"/>
<rect width="2" height="24" rx="1" transform="matrix(-1 0 0 1 154 20)" fill="#205BF1"/>
<rect width="2" height="24" rx="1" transform="matrix(-1 0 0 1 232 20)" fill="#205BF1"/>
<rect x="242" y="20" width="2" height="24" rx="1" fill="#205BF1"/>
<rect x="92" y="20" width="2" height="24" rx="1" fill="#2035F1"/>
<rect x="170" y="20" width="2" height="24" rx="1" fill="#205BF1"/>
<rect x="122" y="20" width="2" height="24" rx="1" fill="#2035F1"/>
<rect x="200" y="20" width="2" height="24" rx="1" fill="#205BF1"/>
<rect width="2" height="24" rx="1" transform="matrix(-1 0 0 1 142 20)" fill="#205BF1"/>
<rect width="2" height="24" rx="1" transform="matrix(-1 0 0 1 220 20)" fill="#205BF1"/>
<rect x="254" y="20" width="2" height="24" rx="1" fill="#205BF1"/>
<rect width="2" height="24" rx="1" transform="matrix(-1 0 0 1 274 20)" fill="#205BF1"/>
</g>
<path d="M30.4863 61.5547V62.8555C30.4863 63.5547 30.4238 64.1445 30.2988 64.625C30.1738 65.1055 29.9941 65.4922 29.7598 65.7852C29.5254 66.0781 29.2422 66.291 28.9102 66.4238C28.582 66.5527 28.2109 66.6172 27.7969 66.6172C27.4688 66.6172 27.166 66.5762 26.8887 66.4941C26.6113 66.4121 26.3613 66.2812 26.1387 66.1016C25.9199 65.918 25.7324 65.6797 25.5762 65.3867C25.4199 65.0938 25.3008 64.7383 25.2188 64.3203C25.1367 63.9023 25.0957 63.4141 25.0957 62.8555V61.5547C25.0957 60.8555 25.1582 60.2695 25.2832 59.7969C25.4121 59.3242 25.5938 58.9453 25.8281 58.6602C26.0625 58.3711 26.3438 58.1641 26.6719 58.0391C27.0039 57.9141 27.375 57.8516 27.7852 57.8516C28.1172 57.8516 28.4219 57.8926 28.6992 57.9746C28.9805 58.0527 29.2305 58.1797 29.4492 58.3555C29.668 58.5273 29.8535 58.7578 30.0059 59.0469C30.1621 59.332 30.2812 59.6816 30.3633 60.0957C30.4453 60.5098 30.4863 60.9961 30.4863 61.5547ZM29.3965 63.0312V61.373C29.3965 60.9902 29.373 60.6543 29.3262 60.3652C29.2832 60.0723 29.2188 59.8223 29.1328 59.6152C29.0469 59.4082 28.9375 59.2402 28.8047 59.1113C28.6758 58.9824 28.5254 58.8887 28.3535 58.8301C28.1855 58.7676 27.9961 58.7363 27.7852 58.7363C27.5273 58.7363 27.2988 58.7852 27.0996 58.8828C26.9004 58.9766 26.7324 59.127 26.5957 59.334C26.4629 59.541 26.3613 59.8125 26.291 60.1484C26.2207 60.4844 26.1855 60.8926 26.1855 61.373V63.0312C26.1855 63.4141 26.207 63.752 26.25 64.0449C26.2969 64.3379 26.3652 64.5918 26.4551 64.8066C26.5449 65.0176 26.6543 65.1914 26.7832 65.3281C26.9121 65.4648 27.0605 65.5664 27.2285 65.6328C27.4004 65.6953 27.5898 65.7266 27.7969 65.7266C28.0625 65.7266 28.2949 65.6758 28.4941 65.5742C28.6934 65.4727 28.8594 65.3145 28.9922 65.0996C29.1289 64.8809 29.2305 64.6016 29.2969 64.2617C29.3633 63.918 29.3965 63.5078 29.3965 63.0312ZM31.9512 65.9258C31.9512 65.7422 32.0078 65.5879 32.1211 65.4629C32.2383 65.334 32.4062 65.2695 32.625 65.2695C32.8438 65.2695 33.0098 65.334 33.123 65.4629C33.2402 65.5879 33.2988 65.7422 33.2988 65.9258C33.2988 66.1055 33.2402 66.2578 33.123 66.3828C33.0098 66.5078 32.8438 66.5703 32.625 66.5703C32.4062 66.5703 32.2383 66.5078 32.1211 66.3828C32.0078 66.2578 31.9512 66.1055 31.9512 65.9258ZM31.957 60.752C31.957 60.5684 32.0137 60.4141 32.127 60.2891C32.2441 60.1602 32.4121 60.0957 32.6309 60.0957C32.8496 60.0957 33.0156 60.1602 33.1289 60.2891C33.2461 60.4141 33.3047 60.5684 33.3047 60.752C33.3047 60.9316 33.2461 61.084 33.1289 61.209C33.0156 61.334 32.8496 61.3965 32.6309 61.3965C32.4121 61.3965 32.2441 61.334 32.127 61.209C32.0137 61.084 31.957 60.9316 31.957 60.752ZM36.1582 62.4395L35.291 62.2168L35.7188 57.9688H40.0957V58.9707H36.6387L36.3809 61.291C36.5371 61.2012 36.7344 61.1172 36.9727 61.0391C37.2148 60.9609 37.4922 60.9219 37.8047 60.9219C38.1992 60.9219 38.5527 60.9902 38.8652 61.127C39.1777 61.2598 39.4434 61.4512 39.6621 61.7012C39.8848 61.9512 40.0547 62.252 40.1719 62.6035C40.2891 62.9551 40.3477 63.3477 40.3477 63.7812C40.3477 64.1914 40.291 64.5684 40.1777 64.9121C40.0684 65.2559 39.9023 65.5566 39.6797 65.8145C39.457 66.0684 39.1758 66.2656 38.8359 66.4062C38.5 66.5469 38.1035 66.6172 37.6465 66.6172C37.3027 66.6172 36.9766 66.5703 36.668 66.4766C36.3633 66.3789 36.0898 66.2324 35.8477 66.0371C35.6094 65.8379 35.4141 65.5918 35.2617 65.2988C35.1133 65.002 35.0195 64.6543 34.9805 64.2559H36.0117C36.0586 64.5762 36.1523 64.8457 36.293 65.0645C36.4336 65.2832 36.6172 65.4492 36.8438 65.5625C37.0742 65.6719 37.3418 65.7266 37.6465 65.7266C37.9043 65.7266 38.1328 65.6816 38.332 65.5918C38.5312 65.502 38.6992 65.373 38.8359 65.2051C38.9727 65.0371 39.0762 64.834 39.1465 64.5957C39.2207 64.3574 39.2578 64.0898 39.2578 63.793C39.2578 63.5234 39.2207 63.2734 39.1465 63.043C39.0723 62.8125 38.9609 62.6113 38.8125 62.4395C38.668 62.2676 38.4902 62.1348 38.2793 62.041C38.0684 61.9434 37.8262 61.8945 37.5527 61.8945C37.1895 61.8945 36.9141 61.9434 36.7266 62.041C36.543 62.1387 36.3535 62.2715 36.1582 62.4395ZM45.0996 57.9219V66.5H44.0156V59.2754L41.8301 60.0723V59.0938L44.9297 57.9219H45.0996Z" fill="white"/>
<rect x="69" y="56" width="14" height="13" rx="2" fill="#205BF1"/>
<path fill-rule="evenodd" clip-rule="evenodd" d="M214.723 62.9999C214.723 64.2444 215.741 65.2569 216.999 65.2569C218.251 65.2569 219.27 64.2444 219.27 62.9999C219.27 61.7498 218.251 60.7373 216.999 60.7373C215.741 60.7373 214.723 61.7498 214.723 62.9999ZM220.346 59.5265C221.342 60.2958 222.19 61.4215 222.799 62.83C222.844 62.9375 222.844 63.0619 222.799 63.1637C221.581 65.9807 219.412 67.6663 216.999 67.6663H216.994C214.586 67.6663 212.418 65.9807 211.2 63.1637C211.155 63.0619 211.155 62.9375 211.2 62.83C212.418 60.013 214.586 58.333 216.994 58.333H216.999C218.206 58.333 219.35 58.7516 220.346 59.5265ZM217.001 64.4066C217.781 64.4066 218.418 63.7731 218.418 62.9981C218.418 62.2175 217.781 61.584 217.001 61.584C216.933 61.584 216.864 61.5896 216.802 61.601C216.779 62.2232 216.267 62.721 215.635 62.721H215.607C215.59 62.8115 215.578 62.902 215.578 62.9981C215.578 63.7731 216.216 64.4066 217.001 64.4066Z" fill="white"/>
<path d="M229.455 62.4395L228.588 62.2168L229.016 57.9688H233.393V58.9707H229.936L229.678 61.291C229.834 61.2012 230.031 61.1172 230.27 61.0391C230.512 60.9609 230.789 60.9219 231.102 60.9219C231.496 60.9219 231.85 60.9902 232.162 61.127C232.475 61.2598 232.74 61.4512 232.959 61.7012C233.182 61.9512 233.352 62.252 233.469 62.6035C233.586 62.9551 233.645 63.3477 233.645 63.7812C233.645 64.1914 233.588 64.5684 233.475 64.9121C233.365 65.2559 233.199 65.5566 232.977 65.8145C232.754 66.0684 232.473 66.2656 232.133 66.4062C231.797 66.5469 231.4 66.6172 230.943 66.6172C230.6 66.6172 230.273 66.5703 229.965 66.4766C229.66 66.3789 229.387 66.2324 229.145 66.0371C228.906 65.8379 228.711 65.5918 228.559 65.2988C228.41 65.002 228.316 64.6543 228.277 64.2559H229.309C229.355 64.5762 229.449 64.8457 229.59 65.0645C229.73 65.2832 229.914 65.4492 230.141 65.5625C230.371 65.6719 230.639 65.7266 230.943 65.7266C231.201 65.7266 231.43 65.6816 231.629 65.5918C231.828 65.502 231.996 65.373 232.133 65.2051C232.27 65.0371 232.373 64.834 232.443 64.5957C232.518 64.3574 232.555 64.0898 232.555 63.793C232.555 63.5234 232.518 63.2734 232.443 63.043C232.369 62.8125 232.258 62.6113 232.109 62.4395C231.965 62.2676 231.787 62.1348 231.576 62.041C231.365 61.9434 231.123 61.8945 230.85 61.8945C230.486 61.8945 230.211 61.9434 230.023 62.041C229.84 62.1387 229.65 62.2715 229.455 62.4395ZM236.416 61.7012H237.189C237.568 61.7012 237.881 61.6387 238.127 61.5137C238.377 61.3848 238.562 61.2109 238.684 60.9922C238.809 60.7695 238.871 60.5195 238.871 60.2422C238.871 59.9141 238.816 59.6387 238.707 59.416C238.598 59.1934 238.434 59.0254 238.215 58.9121C237.996 58.7988 237.719 58.7422 237.383 58.7422C237.078 58.7422 236.809 58.8027 236.574 58.9238C236.344 59.041 236.162 59.209 236.029 59.4277C235.9 59.6465 235.836 59.9043 235.836 60.2012H234.752C234.752 59.7676 234.861 59.373 235.08 59.0176C235.299 58.6621 235.605 58.3789 236 58.168C236.398 57.957 236.859 57.8516 237.383 57.8516C237.898 57.8516 238.35 57.9434 238.736 58.127C239.123 58.3066 239.424 58.5762 239.639 58.9355C239.854 59.291 239.961 59.7344 239.961 60.2656C239.961 60.4805 239.91 60.7109 239.809 60.957C239.711 61.1992 239.557 61.4258 239.346 61.6367C239.139 61.8477 238.869 62.0215 238.537 62.1582C238.205 62.291 237.807 62.3574 237.342 62.3574H236.416V61.7012ZM236.416 62.5918V61.9414H237.342C237.885 61.9414 238.334 62.0059 238.689 62.1348C239.045 62.2637 239.324 62.4355 239.527 62.6504C239.734 62.8652 239.879 63.1016 239.961 63.3594C240.047 63.6133 240.09 63.8672 240.09 64.1211C240.09 64.5195 240.021 64.873 239.885 65.1816C239.752 65.4902 239.562 65.752 239.316 65.9668C239.074 66.1816 238.789 66.3438 238.461 66.4531C238.133 66.5625 237.775 66.6172 237.389 66.6172C237.018 66.6172 236.668 66.5645 236.34 66.459C236.016 66.3535 235.729 66.2012 235.479 66.002C235.229 65.7988 235.033 65.5508 234.893 65.2578C234.752 64.9609 234.682 64.623 234.682 64.2441H235.766C235.766 64.541 235.83 64.8008 235.959 65.0234C236.092 65.2461 236.279 65.4199 236.521 65.5449C236.768 65.666 237.057 65.7266 237.389 65.7266C237.721 65.7266 238.006 65.6699 238.244 65.5566C238.486 65.4395 238.672 65.2637 238.801 65.0293C238.934 64.7949 239 64.5 239 64.1445C239 63.7891 238.926 63.498 238.777 63.2715C238.629 63.041 238.418 62.8711 238.145 62.7617C237.875 62.6484 237.557 62.5918 237.189 62.5918H236.416ZM247.174 65.6094V66.5H241.59V65.7207L244.385 62.6094C244.729 62.2266 244.994 61.9023 245.182 61.6367C245.373 61.3672 245.506 61.127 245.58 60.916C245.658 60.7012 245.697 60.4824 245.697 60.2598C245.697 59.9785 245.639 59.7246 245.521 59.498C245.408 59.2676 245.24 59.084 245.018 58.9473C244.795 58.8105 244.525 58.7422 244.209 58.7422C243.83 58.7422 243.514 58.8164 243.26 58.9648C243.01 59.1094 242.822 59.3125 242.697 59.5742C242.572 59.8359 242.51 60.1367 242.51 60.4766H241.426C241.426 59.9961 241.531 59.5566 241.742 59.1582C241.953 58.7598 242.266 58.4434 242.68 58.209C243.094 57.9707 243.604 57.8516 244.209 57.8516C244.748 57.8516 245.209 57.9473 245.592 58.1387C245.975 58.3262 246.268 58.5918 246.471 58.9355C246.678 59.2754 246.781 59.6738 246.781 60.1309C246.781 60.3809 246.738 60.6348 246.652 60.8926C246.57 61.1465 246.455 61.4004 246.307 61.6543C246.162 61.9082 245.992 62.1582 245.797 62.4043C245.605 62.6504 245.4 62.8926 245.182 63.1309L242.896 65.6094H247.174Z" fill="white"/>
<path d="M261.318 57.9219V66.5H260.234V59.2754L258.049 60.0723V59.0938L261.148 57.9219H261.318ZM266.088 61.7012H266.861C267.24 61.7012 267.553 61.6387 267.799 61.5137C268.049 61.3848 268.234 61.2109 268.355 60.9922C268.48 60.7695 268.543 60.5195 268.543 60.2422C268.543 59.9141 268.488 59.6387 268.379 59.416C268.27 59.1934 268.105 59.0254 267.887 58.9121C267.668 58.7988 267.391 58.7422 267.055 58.7422C266.75 58.7422 266.48 58.8027 266.246 58.9238C266.016 59.041 265.834 59.209 265.701 59.4277C265.572 59.6465 265.508 59.9043 265.508 60.2012H264.424C264.424 59.7676 264.533 59.373 264.752 59.0176C264.971 58.6621 265.277 58.3789 265.672 58.168C266.07 57.957 266.531 57.8516 267.055 57.8516C267.57 57.8516 268.021 57.9434 268.408 58.127C268.795 58.3066 269.096 58.5762 269.311 58.9355C269.525 59.291 269.633 59.7344 269.633 60.2656C269.633 60.4805 269.582 60.7109 269.48 60.957C269.383 61.1992 269.229 61.4258 269.018 61.6367C268.811 61.8477 268.541 62.0215 268.209 62.1582C267.877 62.291 267.479 62.3574 267.014 62.3574H266.088V61.7012ZM266.088 62.5918V61.9414H267.014C267.557 61.9414 268.006 62.0059 268.361 62.1348C268.717 62.2637 268.996 62.4355 269.199 62.6504C269.406 62.8652 269.551 63.1016 269.633 63.3594C269.719 63.6133 269.762 63.8672 269.762 64.1211C269.762 64.5195 269.693 64.873 269.557 65.1816C269.424 65.4902 269.234 65.752 268.988 65.9668C268.746 66.1816 268.461 66.3438 268.133 66.4531C267.805 66.5625 267.447 66.6172 267.061 66.6172C266.689 66.6172 266.34 66.5645 266.012 66.459C265.688 66.3535 265.4 66.2012 265.15 66.002C264.9 65.7988 264.705 65.5508 264.564 65.2578C264.424 64.9609 264.354 64.623 264.354 64.2441H265.438C265.438 64.541 265.502 64.8008 265.631 65.0234C265.764 65.2461 265.951 65.4199 266.193 65.5449C266.439 65.666 266.729 65.7266 267.061 65.7266C267.393 65.7266 267.678 65.6699 267.916 65.5566C268.158 65.4395 268.344 65.2637 268.473 65.0293C268.605 64.7949 268.672 64.5 268.672 64.1445C268.672 63.7891 268.598 63.498 268.449 63.2715C268.301 63.041 268.09 62.8711 267.816 62.7617C267.547 62.6484 267.229 62.5918 266.861 62.5918H266.088ZM271.326 65.9258C271.326 65.7422 271.383 65.5879 271.496 65.4629C271.613 65.334 271.781 65.2695 272 65.2695C272.219 65.2695 272.385 65.334 272.498 65.4629C272.615 65.5879 272.674 65.7422 272.674 65.9258C272.674 66.1055 272.615 66.2578 272.498 66.3828C272.385 66.5078 272.219 66.5703 272 66.5703C271.781 66.5703 271.613 66.5078 271.496 66.3828C271.383 66.2578 271.326 66.1055 271.326 65.9258ZM271.332 60.752C271.332 60.5684 271.389 60.4141 271.502 60.2891C271.619 60.1602 271.787 60.0957 272.006 60.0957C272.225 60.0957 272.391 60.1602 272.504 60.2891C272.621 60.4141 272.68 60.5684 272.68 60.752C272.68 60.9316 272.621 61.084 272.504 61.209C272.391 61.334 272.225 61.3965 272.006 61.3965C271.787 61.3965 271.619 61.334 271.502 61.209C271.389 61.084 271.332 60.9316 271.332 60.752ZM277.725 57.9219V66.5H276.641V59.2754L274.455 60.0723V59.0938L277.555 57.9219H277.725ZM286.502 65.6094V66.5H280.918V65.7207L283.713 62.6094C284.057 62.2266 284.322 61.9023 284.51 61.6367C284.701 61.3672 284.834 61.127 284.908 60.916C284.986 60.7012 285.025 60.4824 285.025 60.2598C285.025 59.9785 284.967 59.7246 284.85 59.498C284.736 59.2676 284.568 59.084 284.346 58.9473C284.123 58.8105 283.854 58.7422 283.537 58.7422C283.158 58.7422 282.842 58.8164 282.588 58.9648C282.338 59.1094 282.15 59.3125 282.025 59.5742C281.9 59.8359 281.838 60.1367 281.838 60.4766H280.754C280.754 59.9961 280.859 59.5566 281.07 59.1582C281.281 58.7598 281.594 58.4434 282.008 58.209C282.422 57.9707 282.932 57.8516 283.537 57.8516C284.076 57.8516 284.537 57.9473 284.92 58.1387C285.303 58.3262 285.596 58.5918 285.799 58.9355C286.006 59.2754 286.109 59.6738 286.109 60.1309C286.109 60.3809 286.066 60.6348 285.98 60.8926C285.898 61.1465 285.783 61.4004 285.635 61.6543C285.49 61.9082 285.32 62.1582 285.125 62.4043C284.934 62.6504 284.729 62.8926 284.51 63.1309L282.225 65.6094H286.502Z" fill="white"/>
<g clip-path="url(#clip1_363_1834)">
<path fill-rule="evenodd" clip-rule="evenodd" d="M77.6554 59.2042C77.913 59.2042 78.1703 59.2405 78.4149 59.3226C79.922 59.8126 80.4651 61.4663 80.0114 62.9118C79.7542 63.6505 79.3336 64.3246 78.7828 64.8754C77.9943 65.639 77.129 66.3169 76.1976 66.9008L76.0955 66.9624L75.9894 66.8967C75.0547 66.3169 74.1846 65.639 73.3887 64.8714C72.8416 64.3205 72.4206 63.6505 72.1593 62.9118C71.6978 61.4663 72.2409 59.8126 73.7644 59.314C74.0184 59.2264 74.2968 59.2042 74.5643 59.2042C75.1214 59.221 75.6418 59.3961 76.0833 59.7346C76.537 59.3879 77.0878 59.2001 77.6554 59.2042Z" fill="white"/>
</g>
</g>
<defs>
<filter id="filter0_bd_363_1834" x="-16" y="-20" width="335" height="122" filterUnits="userSpaceOnUse" color-interpolation-filters="sRGB">
<feFlood flood-opacity="0" result="BackgroundImageFix"/>
<feGaussianBlur in="BackgroundImageFix" stdDeviation="10"/>
<feComposite in2="SourceAlpha" operator="in" result="effect1_backgroundBlur_363_1834"/>
<feColorMatrix in="SourceAlpha" type="matrix" values="0 0 0 0 0 0 0 0 0 0 0 0 0 0 0 0 0 0 127 0" result="hardAlpha"/>
<feOffset dy="4"/>
<feGaussianBlur stdDeviation="2"/>
<feComposite in2="hardAlpha" operator="out"/>
<feColorMatrix type="matrix" values="0 0 0 0 0 0 0 0 0 0 0 0 0 0 0 0 0 0 0.25 0"/>
<feBlend mode="normal" in2="effect1_backgroundBlur_363_1834" result="effect2_dropShadow_363_1834"/>
<feBlend mode="normal" in="SourceGraphic" in2="effect2_dropShadow_363_1834" result="shape"/>
</filter>
<linearGradient id="paint0_linear_363_1834" x1="4" y1="0" x2="81.0223" y2="172.501" gradientUnits="userSpaceOnUse">
<stop stop-color="#3A3B40"/>
<stop offset="1" stop-color="#151618"/>
</linearGradient>
<linearGradient id="paint1_linear_363_1834" x1="29.5" y1="23" x2="37" y2="41" gradientUnits="userSpaceOnUse">
<stop offset="0.169715" stop-color="#2A01AB"/>
<stop offset="0.741726" stop-color="#620D90"/>
</linearGradient>
<clipPath id="clip0_363_1834">
<rect width="271" height="40" fill="white" transform="translate(16 12)"/>
</clipPath>
<clipPath id="clip1_363_1834">
<rect width="8.16667" height="8.16667" fill="white" transform="translate(72 59)"/>
</clipPath>
</defs>
</svg>
