<svg width="170" height="38" viewBox="0 0 170 38" fill="none" xmlns="http://www.w3.org/2000/svg">
<path d="M166.488 29.3221V7.91016H170V29.3221H166.488Z" fill="#205BF1"/>
<path d="M145.186 21.4968V7.91016H148.698V21.5584C148.698 24.8857 150.577 26.4569 153.535 26.4569C156.523 26.4569 158.402 24.8857 158.402 21.5584V7.91016H161.915V21.4968C161.915 26.9499 157.971 29.5378 153.504 29.5378C149.006 29.5378 145.186 26.9499 145.186 21.4968Z" fill="#205BF1"/>
<path d="M136.905 20.3877V29.3222H133.393V12.3466H136.905V14.8113C137.891 13.1168 139.585 12.0693 141.988 12.0693V15.7048H141.095C138.507 15.7048 136.905 16.7831 136.905 20.3877Z" fill="#205BF1"/>
<path d="M121.525 15.027C119.153 15.027 117.243 16.629 116.873 19.3094H126.27C126.208 16.6906 124.144 15.027 121.525 15.027ZM129.474 24.2695C128.519 27.2272 125.839 29.5994 121.679 29.5994C116.812 29.5994 113.207 26.1489 113.207 20.819C113.207 15.4891 116.658 12.0693 121.679 12.0693C126.516 12.0693 129.936 15.4275 129.936 20.4185C129.936 21.0038 129.905 21.5584 129.813 22.1438H116.842C117.089 24.9473 119.091 26.6418 121.679 26.6418C123.836 26.6418 125.038 25.5943 125.685 24.2695H129.474Z" fill="#205BF1"/>
<path d="M103.469 24.6086V15.212H101.467V12.3468H103.469V8.12598H107.012V12.3468H111.141V15.212H107.012V24.6086C107.012 25.8717 107.505 26.3955 108.984 26.3955H111.141V29.3223H108.368C105.349 29.3223 103.469 28.0591 103.469 24.6086Z" fill="#205BF1"/>
<path d="M99.1198 24.5776C99.1198 27.4428 96.6243 29.5994 92.6192 29.5994C88.5524 29.5994 85.6872 27.1964 85.5332 24.1155H89.1686C89.2919 25.5019 90.6166 26.6418 92.5576 26.6418C94.5909 26.6418 95.6692 25.7792 95.6692 24.6084C95.6692 21.2811 85.8105 23.1912 85.8105 16.9679C85.8105 14.2567 88.3368 12.0693 92.3419 12.0693C96.193 12.0693 98.7193 14.1335 98.9041 17.5225H95.392C95.2687 16.0436 94.1288 15.027 92.2187 15.027C90.3393 15.027 89.3535 15.7972 89.3535 16.9371C89.3535 20.3569 98.935 18.4467 99.1198 24.5776Z" fill="#205BF1"/>
<path d="M64.4062 20.7574C64.4062 15.5199 67.9492 12.0693 72.4165 12.0693C75.2817 12.0693 77.2534 13.4249 78.3009 14.8113V12.3466H81.8439V29.3222H78.3009V26.7959C77.2226 28.2439 75.1893 29.5994 72.3549 29.5994C67.9492 29.5994 64.4062 25.9948 64.4062 20.7574ZM78.3009 20.819C78.3009 17.1836 75.8054 15.1194 73.1559 15.1194C70.5372 15.1194 68.0109 17.0911 68.0109 20.7574C68.0109 24.4236 70.5372 26.5494 73.1559 26.5494C75.8054 26.5494 78.3009 24.4852 78.3009 20.819Z" fill="#205BF1"/>
<path d="M49.7227 29.3221V7.91016H62.3234V10.7754H53.2348V17.0911H60.3208V19.9563H53.2348V29.3221H49.7227Z" fill="#205BF1"/>
<path fill-rule="evenodd" clip-rule="evenodd" d="M10.2552 0C4.59139 0 0 4.59139 0 10.2552V27.0363C0 32.7001 4.59139 37.2915 10.2552 37.2915H27.0363C32.7001 37.2915 37.2915 32.7001 37.2915 27.0363V10.2552C37.2915 4.59139 32.7001 0 27.0363 0H10.2552ZM24.9539 16.1292C25.0208 16.1674 25.0761 16.2224 25.1143 16.2884C25.1524 16.3545 25.1721 16.4293 25.1711 16.5052C25.1702 16.5811 25.1488 16.6555 25.109 16.7206L18.2528 28.7003C18.2002 28.7817 18.1213 28.8435 18.0288 28.8758C17.9363 28.9082 17.8354 28.9093 17.7422 28.8789C17.649 28.8486 17.5688 28.7885 17.5144 28.7083C17.46 28.628 17.4345 28.5323 17.442 28.4362L18.2036 21.222H12.5567C12.4789 21.222 12.4024 21.2016 12.3353 21.163C12.2682 21.1243 12.2127 21.0688 12.1748 21.0022C12.1368 20.9355 12.1176 20.8601 12.1192 20.7838C12.1209 20.7075 12.1432 20.6329 12.184 20.5679L19.1554 8.58689C19.2093 8.50564 19.2895 8.44455 19.3831 8.41345C19.4767 8.38235 19.5783 8.38305 19.6714 8.41544C19.7645 8.44783 19.8438 8.51003 19.8966 8.59202C19.9493 8.674 19.9723 8.77101 19.962 8.86741L19.0009 16.0708H24.7336C24.811 16.0708 24.887 16.0909 24.9539 16.1292Z" fill="#205BF1"/>
</svg>
