<svg width="270" height="146" viewBox="0 0 270 146" fill="none" xmlns="http://www.w3.org/2000/svg">
<g clip-path="url(#clip0_399_1745)">
<path d="M249.644 11V9.39H246.674V8.005L249.329 4H251.024V8.01H251.569V9.39H251.024V11H249.644ZM248.269 8.005L249.644 8.01L249.639 5.865L248.269 8.005ZM254.903 11.13C254.45 11.13 254.035 11.0183 253.658 10.795C253.285 10.5717 252.985 10.2717 252.758 9.895C252.535 9.51833 252.423 9.1 252.423 8.64C252.423 8.42 252.45 8.20667 252.503 8C252.56 7.79 252.645 7.58667 252.758 7.39L254.713 4H256.313L255.043 6.195C255.3 6.205 255.546 6.25333 255.783 6.34C256.02 6.42333 256.236 6.54 256.433 6.69C256.63 6.84 256.8 7.01667 256.943 7.22C257.09 7.42 257.201 7.64 257.278 7.88C257.358 8.12 257.398 8.37333 257.398 8.64C257.398 8.98333 257.333 9.305 257.203 9.605C257.073 9.905 256.893 10.17 256.663 10.4C256.436 10.6267 256.171 10.805 255.868 10.935C255.568 11.065 255.246 11.13 254.903 11.13ZM254.903 9.75C255.116 9.75 255.306 9.69833 255.473 9.595C255.643 9.48833 255.776 9.35167 255.873 9.185C255.97 9.015 256.018 8.83667 256.018 8.65C256.018 8.44667 255.97 8.26167 255.873 8.095C255.776 7.925 255.643 7.79 255.473 7.69C255.306 7.58667 255.12 7.535 254.913 7.535C254.693 7.535 254.5 7.58833 254.333 7.695C254.166 7.80167 254.036 7.94 253.943 8.11C253.85 8.27667 253.803 8.45667 253.803 8.65C253.803 8.86 253.855 9.04833 253.958 9.215C254.065 9.37833 254.201 9.50833 254.368 9.605C254.535 9.70167 254.713 9.75 254.903 9.75ZM263.605 11H261.805L259.94 8.38L259.68 8.69V11H258.3V4H259.68V6.545L261.81 4H263.61L260.84 7.3L263.605 11Z" fill="white"/>
<rect y="21" width="30" height="100" rx="15" fill="white" fill-opacity="0.1"/>
<g filter="url(#filter0_d_399_1745)">
<rect y="68" width="30" height="53" rx="15" fill="white" fill-opacity="0.8"/>
<rect x="0.5" y="68.5" width="29" height="52" rx="14.5" stroke="white"/>
</g>
<rect x="48" y="21" width="30" height="100" rx="15" fill="white" fill-opacity="0.1"/>
<g filter="url(#filter1_d_399_1745)">
<rect x="48" y="61" width="30" height="60" rx="15" fill="white" fill-opacity="0.8"/>
<rect x="48.5" y="61.5" width="29" height="59" rx="14.5" stroke="white"/>
</g>
<rect x="96" y="21" width="30" height="100" rx="15" fill="white" fill-opacity="0.1"/>
<g filter="url(#filter2_d_399_1745)">
<rect x="96" y="54" width="30" height="67" rx="15" fill="white" fill-opacity="0.8"/>
<rect x="96.5" y="54.5" width="29" height="66" rx="14.5" stroke="white"/>
</g>
<rect x="144" y="21" width="30" height="100" rx="15" fill="white" fill-opacity="0.1"/>
<g filter="url(#filter3_d_399_1745)">
<rect x="144" y="47" width="30" height="74" rx="15" fill="white" fill-opacity="0.8"/>
<rect x="144.5" y="47.5" width="29" height="73" rx="14.5" stroke="white"/>
</g>
<rect x="192" y="21" width="30" height="100" rx="15" fill="white" fill-opacity="0.1"/>
<g filter="url(#filter4_d_399_1745)">
<rect x="192" y="47" width="30" height="74" rx="15" fill="white" fill-opacity="0.8"/>
<rect x="192.5" y="47.5" width="29" height="73" rx="14.5" stroke="white"/>
</g>
<g clip-path="url(#clip1_399_1745)">
<rect x="240" y="21" width="30" height="100" rx="15" fill="#205BF1"/>
<path fill-rule="evenodd" clip-rule="evenodd" d="M215.8 -78.4461C206.451 -69.5477 207.496 -55.9946 218.134 -48.1745L274.745 -6.561L221.947 5.27212C212.812 7.31952 205.766 13.4063 203.613 21.1093C201.461 28.8122 204.552 36.8809 211.656 42.1029L304.259 110.174C314.898 117.994 331.101 117.12 340.451 108.222C349.8 99.3232 348.755 85.7702 338.117 77.95L281.506 36.3365L334.304 24.5034C343.439 22.456 350.485 16.3692 352.638 8.66622C354.79 0.963257 351.699 -7.10536 344.595 -12.3274L251.991 -80.3984C241.353 -88.2185 225.15 -87.3444 215.8 -78.4461Z" fill="url(#paint0_linear_399_1745)"/>
<path fill-rule="evenodd" clip-rule="evenodd" d="M235.8 86.2356C226.451 95.134 227.496 108.687 238.134 116.507L294.745 158.121L241.947 169.954C232.812 172.001 225.766 178.088 223.613 185.791C221.461 193.494 224.552 201.563 231.656 206.785L324.259 274.856C334.898 282.676 351.101 281.802 360.451 272.903C369.8 264.005 368.755 250.452 358.117 242.632L301.506 221.018L354.304 209.185C363.439 207.138 370.485 181.051 372.638 173.348C374.79 165.645 371.699 157.576 364.595 152.354L271.991 84.2833C261.353 76.4631 245.15 77.3372 235.8 86.2356Z" fill="url(#paint1_linear_399_1745)"/>
<path fill-rule="evenodd" clip-rule="evenodd" d="M161.189 6.71357C152.5 14.9829 153.471 27.5779 163.358 34.8452L215.967 73.5171L166.901 84.5137C158.412 86.4164 151.863 92.073 149.863 99.2314C147.863 106.39 150.735 113.888 157.337 118.741L243.395 182C253.281 189.267 268.339 188.455 277.027 180.186C285.716 171.916 284.745 159.321 274.858 152.054L222.249 113.382L280.608 102.386C289.098 100.483 295.646 94.8263 297.646 87.6679C299.646 80.5095 296.774 73.0112 290.172 68.1584L194.821 4.89927C184.935 -2.36807 169.877 -1.55578 161.189 6.71357Z" fill="url(#paint2_linear_399_1745)"/>
</g>
<path opacity="0.5" d="M1.04578 142.156C0.477781 142.156 -0.0562186 142.044 -0.556219 141.82C-1.05622 141.592 -1.49622 141.278 -1.87622 140.878C-2.25622 140.478 -2.55422 140.016 -2.77022 139.492C-2.98622 138.964 -3.09422 138.4 -3.09422 137.8C-3.09422 137.2 -2.98622 136.638 -2.77022 136.114C-2.55422 135.586 -2.25622 135.122 -1.87622 134.722C-1.49622 134.322 -1.05622 134.01 -0.556219 133.786C-0.0562186 133.558 0.477781 133.444 1.04578 133.444C1.61778 133.444 2.15378 133.558 2.65378 133.786C3.15378 134.01 3.59378 134.322 3.97378 134.722C4.35378 135.122 4.64978 135.586 4.86178 136.114C5.07778 136.638 5.18578 137.2 5.18578 137.8C5.18578 138.4 5.07778 138.964 4.86178 139.492C4.64978 140.016 4.35378 140.478 3.97378 140.878C3.59378 141.278 3.15378 141.592 2.65378 141.82C2.15378 142.044 1.61778 142.156 1.04578 142.156ZM1.04578 140.692C1.41378 140.692 1.75978 140.616 2.08378 140.464C2.40778 140.312 2.69178 140.104 2.93578 139.84C3.18378 139.572 3.37578 139.264 3.51178 138.916C3.65178 138.568 3.72178 138.196 3.72178 137.8C3.72178 137.404 3.65178 137.032 3.51178 136.684C3.37178 136.332 3.17778 136.024 2.92978 135.76C2.68578 135.496 2.40178 135.288 2.07778 135.136C1.75778 134.984 1.41378 134.908 1.04578 134.908C0.677781 134.908 0.331781 134.984 0.00778127 135.136C-0.316219 135.288 -0.602219 135.498 -0.850219 135.766C-1.09422 136.03 -1.28622 136.336 -1.42622 136.684C-1.56222 137.032 -1.63022 137.404 -1.63022 137.8C-1.63022 138.2 -1.56022 138.574 -1.42022 138.922C-1.28022 139.27 -1.08822 139.578 -0.844219 139.846C-0.596219 140.11 -0.312219 140.318 0.00778127 140.47C0.331781 140.618 0.677781 140.692 1.04578 140.692ZM9.91266 140.194L11.2327 140.908C10.9567 141.284 10.6107 141.586 10.1947 141.814C9.77866 142.042 9.32466 142.156 8.83266 142.156C8.28066 142.156 7.77666 142.014 7.32066 141.73C6.86866 141.446 6.50666 141.066 6.23466 140.59C5.96666 140.11 5.83266 139.58 5.83266 139C5.83266 138.56 5.91066 138.15 6.06666 137.77C6.22266 137.386 6.43666 137.05 6.70866 136.762C6.98466 136.47 7.30466 136.242 7.66866 136.078C8.03266 135.914 8.42066 135.832 8.83266 135.832C9.32466 135.832 9.77866 135.946 10.1947 136.174C10.6107 136.402 10.9567 136.708 11.2327 137.092L9.91266 137.8C9.77266 137.64 9.60666 137.516 9.41466 137.428C9.22666 137.34 9.03266 137.296 8.83266 137.296C8.54466 137.296 8.28466 137.376 8.05266 137.536C7.82066 137.692 7.63666 137.9 7.50066 138.16C7.36466 138.416 7.29666 138.696 7.29666 139C7.29666 139.3 7.36466 139.58 7.50066 139.84C7.63666 140.096 7.82066 140.302 8.05266 140.458C8.28466 140.614 8.54466 140.692 8.83266 140.692C9.04066 140.692 9.23866 140.648 9.42666 140.56C9.61466 140.468 9.77666 140.346 9.91266 140.194ZM15.5258 137.464H14.3618V142H12.8978V137.464H12.0098V136H12.8978V134.116H14.3618V136H15.5258V137.464ZM19.2534 142V140.692C19.5134 140.496 19.8214 140.254 20.1774 139.966C20.5334 139.674 20.8994 139.36 21.2754 139.024C21.6514 138.684 21.9994 138.344 22.3194 138.004C22.6394 137.664 22.8994 137.34 23.0994 137.032C23.3034 136.724 23.4054 136.46 23.4054 136.24C23.4054 135.996 23.3454 135.774 23.2254 135.574C23.1054 135.37 22.9454 135.208 22.7454 135.088C22.5494 134.968 22.3294 134.908 22.0854 134.908C21.8414 134.908 21.6194 134.968 21.4194 135.088C21.2194 135.208 21.0594 135.37 20.9394 135.574C20.8194 135.774 20.7594 135.996 20.7594 136.24H19.2954C19.2954 135.712 19.4234 135.238 19.6794 134.818C19.9354 134.394 20.2734 134.06 20.6934 133.816C21.1174 133.568 21.5814 133.444 22.0854 133.444C22.5974 133.444 23.0634 133.57 23.4834 133.822C23.9034 134.07 24.2394 134.406 24.4914 134.83C24.7434 135.254 24.8694 135.724 24.8694 136.24C24.8694 136.512 24.8194 136.786 24.7194 137.062C24.6194 137.338 24.4794 137.616 24.2994 137.896C24.1194 138.176 23.9074 138.46 23.6634 138.748C23.4194 139.032 23.1494 139.324 22.8534 139.624C22.5614 139.92 22.2534 140.224 21.9294 140.536H24.9114V142H19.2534ZM28.9542 142.156C28.4662 142.156 28.0222 142.044 27.6222 141.82C27.2222 141.592 26.8762 141.278 26.5842 140.878C26.2962 140.478 26.0742 140.016 25.9182 139.492C25.7622 138.964 25.6842 138.4 25.6842 137.8C25.6842 137.2 25.7622 136.638 25.9182 136.114C26.0742 135.586 26.2962 135.122 26.5842 134.722C26.8762 134.322 27.2222 134.01 27.6222 133.786C28.0222 133.558 28.4662 133.444 28.9542 133.444C29.4422 133.444 29.8862 133.558 30.2862 133.786C30.6862 134.01 31.0282 134.322 31.3122 134.722C31.6002 135.122 31.8222 135.586 31.9782 136.114C32.1382 136.638 32.2182 137.2 32.2182 137.8C32.2182 138.4 32.1382 138.964 31.9782 139.492C31.8222 140.016 31.6002 140.478 31.3122 140.878C31.0282 141.278 30.6862 141.592 30.2862 141.82C29.8862 142.044 29.4422 142.156 28.9542 142.156ZM28.9542 140.692C29.3822 140.692 29.7362 140.556 30.0162 140.284C30.2962 140.012 30.5042 139.656 30.6402 139.216C30.7762 138.776 30.8442 138.304 30.8442 137.8C30.8442 137.268 30.7722 136.784 30.6282 136.348C30.4842 135.908 30.2722 135.558 29.9922 135.298C29.7122 135.038 29.3662 134.908 28.9542 134.908C28.6302 134.908 28.3482 134.988 28.1082 135.148C27.8722 135.304 27.6762 135.518 27.5202 135.79C27.3642 136.062 27.2482 136.372 27.1722 136.72C27.0962 137.064 27.0582 137.424 27.0582 137.8C27.0582 138.3 27.1262 138.772 27.2622 139.216C27.4022 139.656 27.6122 140.012 27.8922 140.284C28.1762 140.556 28.5302 140.692 28.9542 140.692ZM33.0581 142V140.692C33.3181 140.496 33.6261 140.254 33.9821 139.966C34.3381 139.674 34.7041 139.36 35.0801 139.024C35.4561 138.684 35.8041 138.344 36.1241 138.004C36.4441 137.664 36.7041 137.34 36.9041 137.032C37.1081 136.724 37.2101 136.46 37.2101 136.24C37.2101 135.996 37.1501 135.774 37.0301 135.574C36.9101 135.37 36.7501 135.208 36.5501 135.088C36.3541 134.968 36.1341 134.908 35.8901 134.908C35.6461 134.908 35.4241 134.968 35.2241 135.088C35.0241 135.208 34.8641 135.37 34.7441 135.574C34.6241 135.774 34.5641 135.996 34.5641 136.24H33.1001C33.1001 135.712 33.2281 135.238 33.4841 134.818C33.7401 134.394 34.0781 134.06 34.4981 133.816C34.9221 133.568 35.3861 133.444 35.8901 133.444C36.4021 133.444 36.8681 133.57 37.2881 133.822C37.7081 134.07 38.0441 134.406 38.2961 134.83C38.5481 135.254 38.6741 135.724 38.6741 136.24C38.6741 136.512 38.6241 136.786 38.5241 137.062C38.4241 137.338 38.2841 137.616 38.1041 137.896C37.9241 138.176 37.7121 138.46 37.4681 138.748C37.2241 139.032 36.9541 139.324 36.6581 139.624C36.3661 139.92 36.0581 140.224 35.7341 140.536H38.7161V142H33.0581ZM42.4996 142.156C41.9916 142.156 41.5336 142.036 41.1256 141.796C40.7176 141.556 40.3936 141.234 40.1536 140.83C39.9136 140.422 39.7936 139.97 39.7936 139.474H41.2576C41.2576 139.698 41.3096 139.902 41.4136 140.086C41.5216 140.27 41.6696 140.418 41.8576 140.53C42.0456 140.638 42.2596 140.692 42.4996 140.692C42.7196 140.692 42.9236 140.638 43.1116 140.53C43.3036 140.418 43.4576 140.27 43.5736 140.086C43.6896 139.902 43.7476 139.698 43.7476 139.474C43.7476 139.182 43.6696 138.94 43.5136 138.748C43.3576 138.552 43.1396 138.406 42.8596 138.31C42.5836 138.214 42.2616 138.166 41.8936 138.166V137.038C42.3896 137.038 42.7816 136.944 43.0696 136.756C43.3616 136.568 43.5076 136.292 43.5076 135.928C43.5076 135.74 43.4596 135.568 43.3636 135.412C43.2676 135.256 43.1396 135.132 42.9796 135.04C42.8236 134.944 42.6516 134.896 42.4636 134.896C42.2716 134.896 42.0856 134.944 41.9056 135.04C41.7256 135.132 41.5776 135.256 41.4616 135.412C41.3496 135.568 41.2936 135.74 41.2936 135.928H39.8296C39.8296 135.584 39.8996 135.262 40.0396 134.962C40.1796 134.658 40.3716 134.392 40.6156 134.164C40.8636 133.936 41.1436 133.758 41.4556 133.63C41.7716 133.498 42.1016 133.432 42.4456 133.432C42.8976 133.432 43.3156 133.544 43.6996 133.768C44.0836 133.992 44.3916 134.292 44.6236 134.668C44.8556 135.044 44.9716 135.464 44.9716 135.928C44.9716 136.252 44.8956 136.57 44.7436 136.882C44.5916 137.194 44.3756 137.414 44.0956 137.542C44.3396 137.63 44.5436 137.778 44.7076 137.986C44.8716 138.19 44.9956 138.424 45.0796 138.688C45.1676 138.948 45.2116 139.21 45.2116 139.474C45.2116 139.966 45.0876 140.416 44.8396 140.824C44.5916 141.228 44.2616 141.552 43.8496 141.796C43.4416 142.036 42.9916 142.156 42.4996 142.156Z" fill="white"/>
<path opacity="0.5" d="M111.226 142V133.6H114.01C114.59 133.6 115.132 133.71 115.636 133.93C116.144 134.146 116.59 134.448 116.974 134.836C117.362 135.22 117.664 135.666 117.88 136.174C118.1 136.678 118.21 137.22 118.21 137.8C118.21 138.38 118.1 138.924 117.88 139.432C117.664 139.936 117.362 140.382 116.974 140.77C116.59 141.154 116.144 141.456 115.636 141.676C115.132 141.892 114.59 142 114.01 142H111.226ZM112.69 140.536H114.01C114.382 140.536 114.732 140.466 115.06 140.326C115.392 140.182 115.684 139.986 115.936 139.738C116.188 139.486 116.386 139.196 116.53 138.868C116.674 138.536 116.746 138.18 116.746 137.8C116.746 137.42 116.674 137.066 116.53 136.738C116.386 136.41 116.188 136.12 115.936 135.868C115.684 135.616 115.394 135.42 115.066 135.28C114.738 135.136 114.386 135.064 114.01 135.064H112.69V140.536ZM121.741 142.156C121.189 142.156 120.685 142.014 120.229 141.73C119.777 141.446 119.415 141.064 119.143 140.584C118.875 140.104 118.741 139.574 118.741 138.994C118.741 138.558 118.819 138.15 118.975 137.77C119.131 137.386 119.345 137.05 119.617 136.762C119.893 136.47 120.213 136.242 120.577 136.078C120.941 135.914 121.329 135.832 121.741 135.832C122.209 135.832 122.637 135.932 123.025 136.132C123.417 136.328 123.749 136.598 124.021 136.942C124.293 137.286 124.491 137.678 124.615 138.118C124.739 138.558 124.767 139.018 124.699 139.498H120.313C120.369 139.722 120.461 139.924 120.589 140.104C120.717 140.28 120.879 140.422 121.075 140.53C121.271 140.634 121.493 140.688 121.741 140.692C121.997 140.696 122.229 140.636 122.437 140.512C122.649 140.384 122.825 140.212 122.965 139.996L124.459 140.344C124.215 140.876 123.851 141.312 123.367 141.652C122.883 141.988 122.341 142.156 121.741 142.156ZM120.265 138.4H123.217C123.173 138.16 123.079 137.944 122.935 137.752C122.795 137.556 122.621 137.4 122.413 137.284C122.205 137.168 121.981 137.11 121.741 137.11C121.501 137.11 121.279 137.168 121.075 137.284C120.871 137.396 120.697 137.55 120.553 137.746C120.413 137.938 120.317 138.156 120.265 138.4ZM129.419 140.194L130.739 140.908C130.463 141.284 130.117 141.586 129.701 141.814C129.285 142.042 128.831 142.156 128.339 142.156C127.787 142.156 127.283 142.014 126.827 141.73C126.375 141.446 126.013 141.066 125.741 140.59C125.473 140.11 125.339 139.58 125.339 139C125.339 138.56 125.417 138.15 125.573 137.77C125.729 137.386 125.943 137.05 126.215 136.762C126.491 136.47 126.811 136.242 127.175 136.078C127.539 135.914 127.927 135.832 128.339 135.832C128.831 135.832 129.285 135.946 129.701 136.174C130.117 136.402 130.463 136.708 130.739 137.092L129.419 137.8C129.279 137.64 129.113 137.516 128.921 137.428C128.733 137.34 128.539 137.296 128.339 137.296C128.051 137.296 127.791 137.376 127.559 137.536C127.327 137.692 127.143 137.9 127.007 138.16C126.871 138.416 126.803 138.696 126.803 139C126.803 139.3 126.871 139.58 127.007 139.84C127.143 140.096 127.327 140.302 127.559 140.458C127.791 140.614 128.051 140.692 128.339 140.692C128.547 140.692 128.745 140.648 128.933 140.56C129.121 140.468 129.283 140.346 129.419 140.194ZM134.459 142V140.692C134.719 140.496 135.027 140.254 135.383 139.966C135.739 139.674 136.105 139.36 136.481 139.024C136.857 138.684 137.205 138.344 137.525 138.004C137.845 137.664 138.105 137.34 138.305 137.032C138.509 136.724 138.611 136.46 138.611 136.24C138.611 135.996 138.551 135.774 138.431 135.574C138.311 135.37 138.151 135.208 137.951 135.088C137.755 134.968 137.535 134.908 137.291 134.908C137.047 134.908 136.825 134.968 136.625 135.088C136.425 135.208 136.265 135.37 136.145 135.574C136.025 135.774 135.965 135.996 135.965 136.24H134.501C134.501 135.712 134.629 135.238 134.885 134.818C135.141 134.394 135.479 134.06 135.899 133.816C136.323 133.568 136.787 133.444 137.291 133.444C137.803 133.444 138.269 133.57 138.689 133.822C139.109 134.07 139.445 134.406 139.697 134.83C139.949 135.254 140.075 135.724 140.075 136.24C140.075 136.512 140.025 136.786 139.925 137.062C139.825 137.338 139.685 137.616 139.505 137.896C139.325 138.176 139.113 138.46 138.869 138.748C138.625 139.032 138.355 139.324 138.059 139.624C137.767 139.92 137.459 140.224 137.135 140.536H140.117V142H134.459ZM144.159 142.156C143.671 142.156 143.227 142.044 142.827 141.82C142.427 141.592 142.081 141.278 141.789 140.878C141.501 140.478 141.279 140.016 141.123 139.492C140.967 138.964 140.889 138.4 140.889 137.8C140.889 137.2 140.967 136.638 141.123 136.114C141.279 135.586 141.501 135.122 141.789 134.722C142.081 134.322 142.427 134.01 142.827 133.786C143.227 133.558 143.671 133.444 144.159 133.444C144.647 133.444 145.091 133.558 145.491 133.786C145.891 134.01 146.233 134.322 146.517 134.722C146.805 135.122 147.027 135.586 147.183 136.114C147.343 136.638 147.423 137.2 147.423 137.8C147.423 138.4 147.343 138.964 147.183 139.492C147.027 140.016 146.805 140.478 146.517 140.878C146.233 141.278 145.891 141.592 145.491 141.82C145.091 142.044 144.647 142.156 144.159 142.156ZM144.159 140.692C144.587 140.692 144.941 140.556 145.221 140.284C145.501 140.012 145.709 139.656 145.845 139.216C145.981 138.776 146.049 138.304 146.049 137.8C146.049 137.268 145.977 136.784 145.833 136.348C145.689 135.908 145.477 135.558 145.197 135.298C144.917 135.038 144.571 134.908 144.159 134.908C143.835 134.908 143.553 134.988 143.313 135.148C143.077 135.304 142.881 135.518 142.725 135.79C142.569 136.062 142.453 136.372 142.377 136.72C142.301 137.064 142.263 137.424 142.263 137.8C142.263 138.3 142.331 138.772 142.467 139.216C142.607 139.656 142.817 140.012 143.097 140.284C143.381 140.556 143.735 140.692 144.159 140.692ZM148.263 142V140.692C148.523 140.496 148.831 140.254 149.187 139.966C149.543 139.674 149.909 139.36 150.285 139.024C150.661 138.684 151.009 138.344 151.329 138.004C151.649 137.664 151.909 137.34 152.109 137.032C152.313 136.724 152.415 136.46 152.415 136.24C152.415 135.996 152.355 135.774 152.235 135.574C152.115 135.37 151.955 135.208 151.755 135.088C151.559 134.968 151.339 134.908 151.095 134.908C150.851 134.908 150.629 134.968 150.429 135.088C150.229 135.208 150.069 135.37 149.949 135.574C149.829 135.774 149.769 135.996 149.769 136.24H148.305C148.305 135.712 148.433 135.238 148.689 134.818C148.945 134.394 149.283 134.06 149.703 133.816C150.127 133.568 150.591 133.444 151.095 133.444C151.607 133.444 152.073 133.57 152.493 133.822C152.913 134.07 153.249 134.406 153.501 134.83C153.753 135.254 153.879 135.724 153.879 136.24C153.879 136.512 153.829 136.786 153.729 137.062C153.629 137.338 153.489 137.616 153.309 137.896C153.129 138.176 152.917 138.46 152.673 138.748C152.429 139.032 152.159 139.324 151.863 139.624C151.571 139.92 151.263 140.224 150.939 140.536H153.921V142H148.263ZM155.119 142V140.692C155.379 140.496 155.687 140.254 156.043 139.966C156.399 139.674 156.765 139.36 157.141 139.024C157.517 138.684 157.865 138.344 158.185 138.004C158.505 137.664 158.765 137.34 158.965 137.032C159.169 136.724 159.271 136.46 159.271 136.24C159.271 135.996 159.211 135.774 159.091 135.574C158.971 135.37 158.811 135.208 158.611 135.088C158.415 134.968 158.195 134.908 157.951 134.908C157.707 134.908 157.485 134.968 157.285 135.088C157.085 135.208 156.925 135.37 156.805 135.574C156.685 135.774 156.625 135.996 156.625 136.24H155.161C155.161 135.712 155.289 135.238 155.545 134.818C155.801 134.394 156.139 134.06 156.559 133.816C156.983 133.568 157.447 133.444 157.951 133.444C158.463 133.444 158.929 133.57 159.349 133.822C159.769 134.07 160.105 134.406 160.357 134.83C160.609 135.254 160.735 135.724 160.735 136.24C160.735 136.512 160.685 136.786 160.585 137.062C160.485 137.338 160.345 137.616 160.165 137.896C159.985 138.176 159.773 138.46 159.529 138.748C159.285 139.032 159.015 139.324 158.719 139.624C158.427 139.92 158.119 140.224 157.795 140.536H160.777V142H155.119Z" fill="white"/>
<path opacity="0.5" d="M229.567 133.6H231.253L234.307 142H232.753L232.213 140.512H228.613L228.073 142H226.519L229.567 133.6ZM229.147 139.048H231.673L230.407 135.586L229.147 139.048ZM236.555 145H235.091V136H236.555V136.762C236.751 136.49 236.991 136.27 237.275 136.102C237.563 135.93 237.899 135.844 238.283 135.844C238.723 135.844 239.133 135.926 239.513 136.09C239.893 136.254 240.227 136.482 240.515 136.774C240.807 137.062 241.033 137.396 241.193 137.776C241.357 138.156 241.439 138.564 241.439 139C241.439 139.436 241.357 139.846 241.193 140.23C241.033 140.614 240.807 140.952 240.515 141.244C240.227 141.532 239.893 141.758 239.513 141.922C239.133 142.086 238.723 142.168 238.283 142.168C237.899 142.168 237.563 142.084 237.275 141.916C236.991 141.744 236.751 141.522 236.555 141.25V145ZM238.265 137.254C237.961 137.254 237.689 137.334 237.449 137.494C237.209 137.65 237.021 137.86 236.885 138.124C236.749 138.388 236.681 138.68 236.681 139C236.681 139.32 236.749 139.614 236.885 139.882C237.021 140.146 237.209 140.358 237.449 140.518C237.689 140.674 237.961 140.752 238.265 140.752C238.573 140.752 238.855 140.674 239.111 140.518C239.367 140.362 239.571 140.152 239.723 139.888C239.875 139.62 239.951 139.324 239.951 139C239.951 138.68 239.875 138.388 239.723 138.124C239.571 137.86 239.367 137.65 239.111 137.494C238.859 137.334 238.577 137.254 238.265 137.254ZM242.386 142L242.38 136H243.844L243.85 136.534C244.054 136.318 244.298 136.148 244.582 136.024C244.866 135.896 245.172 135.832 245.5 135.832C245.72 135.832 245.94 135.864 246.16 135.928L245.584 137.404C245.432 137.344 245.28 137.314 245.128 137.314C244.892 137.314 244.676 137.372 244.48 137.488C244.288 137.6 244.134 137.754 244.018 137.95C243.906 138.142 243.85 138.356 243.85 138.592V142H242.386ZM249.64 142V140.692C249.9 140.496 250.208 140.254 250.564 139.966C250.92 139.674 251.286 139.36 251.662 139.024C252.038 138.684 252.386 138.344 252.706 138.004C253.026 137.664 253.286 137.34 253.486 137.032C253.69 136.724 253.792 136.46 253.792 136.24C253.792 135.996 253.732 135.774 253.612 135.574C253.492 135.37 253.332 135.208 253.132 135.088C252.936 134.968 252.716 134.908 252.472 134.908C252.228 134.908 252.006 134.968 251.806 135.088C251.606 135.208 251.446 135.37 251.326 135.574C251.206 135.774 251.146 135.996 251.146 136.24H249.682C249.682 135.712 249.81 135.238 250.066 134.818C250.322 134.394 250.66 134.06 251.08 133.816C251.504 133.568 251.968 133.444 252.472 133.444C252.984 133.444 253.45 133.57 253.87 133.822C254.29 134.07 254.626 134.406 254.878 134.83C255.13 135.254 255.256 135.724 255.256 136.24C255.256 136.512 255.206 136.786 255.106 137.062C255.006 137.338 254.866 137.616 254.686 137.896C254.506 138.176 254.294 138.46 254.05 138.748C253.806 139.032 253.536 139.324 253.24 139.624C252.948 139.92 252.64 140.224 252.316 140.536H255.298V142H249.64ZM259.341 142.156C258.853 142.156 258.409 142.044 258.009 141.82C257.609 141.592 257.263 141.278 256.971 140.878C256.683 140.478 256.461 140.016 256.305 139.492C256.149 138.964 256.071 138.4 256.071 137.8C256.071 137.2 256.149 136.638 256.305 136.114C256.461 135.586 256.683 135.122 256.971 134.722C257.263 134.322 257.609 134.01 258.009 133.786C258.409 133.558 258.853 133.444 259.341 133.444C259.829 133.444 260.273 133.558 260.673 133.786C261.073 134.01 261.415 134.322 261.699 134.722C261.987 135.122 262.209 135.586 262.365 136.114C262.525 136.638 262.605 137.2 262.605 137.8C262.605 138.4 262.525 138.964 262.365 139.492C262.209 140.016 261.987 140.478 261.699 140.878C261.415 141.278 261.073 141.592 260.673 141.82C260.273 142.044 259.829 142.156 259.341 142.156ZM259.341 140.692C259.769 140.692 260.123 140.556 260.403 140.284C260.683 140.012 260.891 139.656 261.027 139.216C261.163 138.776 261.231 138.304 261.231 137.8C261.231 137.268 261.159 136.784 261.015 136.348C260.871 135.908 260.659 135.558 260.379 135.298C260.099 135.038 259.753 134.908 259.341 134.908C259.017 134.908 258.735 134.988 258.495 135.148C258.259 135.304 258.063 135.518 257.907 135.79C257.751 136.062 257.635 136.372 257.559 136.72C257.483 137.064 257.445 137.424 257.445 137.8C257.445 138.3 257.513 138.772 257.649 139.216C257.789 139.656 257.999 140.012 258.279 140.284C258.563 140.556 258.917 140.692 259.341 140.692ZM263.445 142V140.692C263.705 140.496 264.013 140.254 264.369 139.966C264.725 139.674 265.091 139.36 265.467 139.024C265.843 138.684 266.191 138.344 266.511 138.004C266.831 137.664 267.091 137.34 267.291 137.032C267.495 136.724 267.597 136.46 267.597 136.24C267.597 135.996 267.537 135.774 267.417 135.574C267.297 135.37 267.137 135.208 266.937 135.088C266.741 134.968 266.521 134.908 266.277 134.908C266.033 134.908 265.811 134.968 265.611 135.088C265.411 135.208 265.251 135.37 265.131 135.574C265.011 135.774 264.951 135.996 264.951 136.24H263.487C263.487 135.712 263.615 135.238 263.871 134.818C264.127 134.394 264.465 134.06 264.885 133.816C265.309 133.568 265.773 133.444 266.277 133.444C266.789 133.444 267.255 133.57 267.675 133.822C268.095 134.07 268.431 134.406 268.683 134.83C268.935 135.254 269.061 135.724 269.061 136.24C269.061 136.512 269.011 136.786 268.911 137.062C268.811 137.338 268.671 137.616 268.491 137.896C268.311 138.176 268.099 138.46 267.855 138.748C267.611 139.032 267.341 139.324 267.045 139.624C266.753 139.92 266.445 140.224 266.121 140.536H269.103V142H263.445ZM272.886 142.156C272.378 142.156 271.92 142.036 271.512 141.796C271.104 141.556 270.78 141.234 270.54 140.83C270.3 140.422 270.18 139.97 270.18 139.474H271.644C271.644 139.698 271.696 139.902 271.8 140.086C271.908 140.27 272.056 140.418 272.244 140.53C272.432 140.638 272.646 140.692 272.886 140.692C273.106 140.692 273.31 140.638 273.498 140.53C273.69 140.418 273.844 140.27 273.96 140.086C274.076 139.902 274.134 139.698 274.134 139.474C274.134 139.182 274.056 138.94 273.9 138.748C273.744 138.552 273.526 138.406 273.246 138.31C272.97 138.214 272.648 138.166 272.28 138.166V137.038C272.776 137.038 273.168 136.944 273.456 136.756C273.748 136.568 273.894 136.292 273.894 135.928C273.894 135.74 273.846 135.568 273.75 135.412C273.654 135.256 273.526 135.132 273.366 135.04C273.21 134.944 273.038 134.896 272.85 134.896C272.658 134.896 272.472 134.944 272.292 135.04C272.112 135.132 271.964 135.256 271.848 135.412C271.736 135.568 271.68 135.74 271.68 135.928H270.216C270.216 135.584 270.286 135.262 270.426 134.962C270.566 134.658 270.758 134.392 271.002 134.164C271.25 133.936 271.53 133.758 271.842 133.63C272.158 133.498 272.488 133.432 272.832 133.432C273.284 133.432 273.702 133.544 274.086 133.768C274.47 133.992 274.778 134.292 275.01 134.668C275.242 135.044 275.358 135.464 275.358 135.928C275.358 136.252 275.282 136.57 275.13 136.882C274.978 137.194 274.762 137.414 274.482 137.542C274.726 137.63 274.93 137.778 275.094 137.986C275.258 138.19 275.382 138.424 275.466 138.688C275.554 138.948 275.598 139.21 275.598 139.474C275.598 139.966 275.474 140.416 275.226 140.824C274.978 141.228 274.648 141.552 274.236 141.796C273.828 142.036 273.378 142.156 272.886 142.156Z" fill="white"/>
</g>
<defs>
<filter id="filter0_d_399_1745" x="-20" y="48" width="70" height="93" filterUnits="userSpaceOnUse" color-interpolation-filters="sRGB">
<feFlood flood-opacity="0" result="BackgroundImageFix"/>
<feColorMatrix in="SourceAlpha" type="matrix" values="0 0 0 0 0 0 0 0 0 0 0 0 0 0 0 0 0 0 127 0" result="hardAlpha"/>
<feOffset/>
<feGaussianBlur stdDeviation="10"/>
<feColorMatrix type="matrix" values="0 0 0 0 1 0 0 0 0 1 0 0 0 0 1 0 0 0 0.2 0"/>
<feBlend mode="normal" in2="BackgroundImageFix" result="effect1_dropShadow_399_1745"/>
<feBlend mode="normal" in="SourceGraphic" in2="effect1_dropShadow_399_1745" result="shape"/>
</filter>
<filter id="filter1_d_399_1745" x="28" y="41" width="70" height="100" filterUnits="userSpaceOnUse" color-interpolation-filters="sRGB">
<feFlood flood-opacity="0" result="BackgroundImageFix"/>
<feColorMatrix in="SourceAlpha" type="matrix" values="0 0 0 0 0 0 0 0 0 0 0 0 0 0 0 0 0 0 127 0" result="hardAlpha"/>
<feOffset/>
<feGaussianBlur stdDeviation="10"/>
<feColorMatrix type="matrix" values="0 0 0 0 1 0 0 0 0 1 0 0 0 0 1 0 0 0 0.2 0"/>
<feBlend mode="normal" in2="BackgroundImageFix" result="effect1_dropShadow_399_1745"/>
<feBlend mode="normal" in="SourceGraphic" in2="effect1_dropShadow_399_1745" result="shape"/>
</filter>
<filter id="filter2_d_399_1745" x="76" y="34" width="70" height="107" filterUnits="userSpaceOnUse" color-interpolation-filters="sRGB">
<feFlood flood-opacity="0" result="BackgroundImageFix"/>
<feColorMatrix in="SourceAlpha" type="matrix" values="0 0 0 0 0 0 0 0 0 0 0 0 0 0 0 0 0 0 127 0" result="hardAlpha"/>
<feOffset/>
<feGaussianBlur stdDeviation="10"/>
<feColorMatrix type="matrix" values="0 0 0 0 1 0 0 0 0 1 0 0 0 0 1 0 0 0 0.2 0"/>
<feBlend mode="normal" in2="BackgroundImageFix" result="effect1_dropShadow_399_1745"/>
<feBlend mode="normal" in="SourceGraphic" in2="effect1_dropShadow_399_1745" result="shape"/>
</filter>
<filter id="filter3_d_399_1745" x="124" y="27" width="70" height="114" filterUnits="userSpaceOnUse" color-interpolation-filters="sRGB">
<feFlood flood-opacity="0" result="BackgroundImageFix"/>
<feColorMatrix in="SourceAlpha" type="matrix" values="0 0 0 0 0 0 0 0 0 0 0 0 0 0 0 0 0 0 127 0" result="hardAlpha"/>
<feOffset/>
<feGaussianBlur stdDeviation="10"/>
<feColorMatrix type="matrix" values="0 0 0 0 1 0 0 0 0 1 0 0 0 0 1 0 0 0 0.2 0"/>
<feBlend mode="normal" in2="BackgroundImageFix" result="effect1_dropShadow_399_1745"/>
<feBlend mode="normal" in="SourceGraphic" in2="effect1_dropShadow_399_1745" result="shape"/>
</filter>
<filter id="filter4_d_399_1745" x="172" y="27" width="70" height="114" filterUnits="userSpaceOnUse" color-interpolation-filters="sRGB">
<feFlood flood-opacity="0" result="BackgroundImageFix"/>
<feColorMatrix in="SourceAlpha" type="matrix" values="0 0 0 0 0 0 0 0 0 0 0 0 0 0 0 0 0 0 127 0" result="hardAlpha"/>
<feOffset/>
<feGaussianBlur stdDeviation="10"/>
<feColorMatrix type="matrix" values="0 0 0 0 1 0 0 0 0 1 0 0 0 0 1 0 0 0 0.2 0"/>
<feBlend mode="normal" in2="BackgroundImageFix" result="effect1_dropShadow_399_1745"/>
<feBlend mode="normal" in="SourceGraphic" in2="effect1_dropShadow_399_1745" result="shape"/>
</filter>
<linearGradient id="paint0_linear_399_1745" x1="244.939" y1="-88.7085" x2="292.328" y2="122.739" gradientUnits="userSpaceOnUse">
<stop stop-color="#13D2DE"/>
<stop offset="1" stop-color="#13D2DE" stop-opacity="0"/>
</linearGradient>
<linearGradient id="paint1_linear_399_1745" x1="264.939" y1="75.9731" x2="312.328" y2="287.42" gradientUnits="userSpaceOnUse">
<stop stop-color="#E9900C"/>
<stop offset="1" stop-color="#E9900C" stop-opacity="0"/>
</linearGradient>
<linearGradient id="paint2_linear_399_1745" x1="188.267" y1="-2.82367" x2="232.307" y2="193.676" gradientUnits="userSpaceOnUse">
<stop stop-color="#F12052"/>
<stop offset="1" stop-color="#F12052" stop-opacity="0"/>
</linearGradient>
<clipPath id="clip0_399_1745">
<rect width="270" height="146" fill="white"/>
</clipPath>
<clipPath id="clip1_399_1745">
<rect x="240" y="21" width="30" height="100" rx="15" fill="white"/>
</clipPath>
</defs>
</svg>
