<svg width="38" height="38" viewBox="0 0 38 38" fill="none" xmlns="http://www.w3.org/2000/svg">
<path fill-rule="evenodd" clip-rule="evenodd" d="M10.2552 0C4.59139 0 0 4.59139 0 10.2552V27.0363C0 32.7001 4.59139 37.2915 10.2552 37.2915H27.0363C32.7001 37.2915 37.2915 32.7001 37.2915 27.0363V10.2552C37.2915 4.59139 32.7001 0 27.0363 0H10.2552ZM24.9539 16.1292C25.0208 16.1674 25.0761 16.2224 25.1143 16.2884C25.1524 16.3545 25.1721 16.4293 25.1711 16.5052C25.1702 16.5811 25.1488 16.6555 25.109 16.7206L18.2528 28.7003C18.2002 28.7817 18.1213 28.8435 18.0288 28.8758C17.9363 28.9082 17.8354 28.9093 17.7422 28.8789C17.649 28.8486 17.5688 28.7885 17.5144 28.7083C17.46 28.628 17.4345 28.5323 17.442 28.4362L18.2036 21.222H12.5567C12.4789 21.222 12.4024 21.2016 12.3353 21.163C12.2682 21.1243 12.2127 21.0688 12.1748 21.0022C12.1368 20.9355 12.1176 20.8601 12.1192 20.7838C12.1209 20.7075 12.1432 20.6329 12.184 20.5679L19.1554 8.58689C19.2093 8.50564 19.2895 8.44455 19.3831 8.41345C19.4767 8.38235 19.5783 8.38305 19.6714 8.41544C19.7645 8.44783 19.8438 8.51003 19.8966 8.59202C19.9493 8.674 19.9723 8.77101 19.962 8.86741L19.0009 16.0708H24.7336C24.811 16.0708 24.887 16.0909 24.9539 16.1292Z" fill="#205BF1"/>
</svg>
