<svg width="52" height="52" viewBox="0 0 52 52" fill="none" xmlns="http://www.w3.org/2000/svg">
<path d="M16.25 26C17.9739 26 19.6272 25.3152 20.8462 24.0962C22.0652 22.8772 22.75 21.2239 22.75 19.5C22.75 17.7761 22.0652 16.1228 20.8462 14.9038C19.6272 13.6848 17.9739 13 16.25 13H6.5V39H16.25C17.9739 39 19.6272 38.3152 20.8462 37.0962C22.0652 35.8772 22.75 34.2239 22.75 32.5C22.75 30.7761 22.0652 29.1228 20.8462 27.9038C19.6272 26.6848 17.9739 26 16.25 26ZM16.25 26H6.5M30.3333 28.1667H45.5C45.5 26.1554 44.701 24.2266 43.2789 22.8044C41.8567 21.3823 39.9279 20.5833 37.9167 20.5833C35.9054 20.5833 33.9766 21.3823 32.5544 22.8044C31.1323 24.2266 30.3333 26.1554 30.3333 28.1667ZM30.3333 28.1667V32.5C30.5568 34.1221 31.2994 35.6283 32.4499 36.7934C33.6004 37.9585 35.0972 38.7199 36.7164 38.9637C38.3355 39.2076 39.9902 38.9208 41.4328 38.1462C42.8755 37.3717 44.0287 36.151 44.72 34.6667M34.6667 13H41.1667" stroke="#00F0FF" stroke-width="3" stroke-linecap="round" stroke-linejoin="round"/>
</svg>
