<svg width="53" height="52" viewBox="0 0 53 52" fill="none" xmlns="http://www.w3.org/2000/svg">
<path d="M32.667 19.5C29.0771 19.5 26.167 22.4101 26.167 26C26.167 29.5899 29.0771 32.5 32.667 32.5C36.2568 32.5 39.167 29.5899 39.167 26C39.167 22.4101 36.2568 19.5 32.667 19.5ZM32.667 19.5C36.2568 19.5 39.167 16.5899 39.167 13C39.167 9.41015 36.2568 6.5 32.667 6.5H19.667C16.0771 6.5 13.167 9.41015 13.167 13C13.167 16.5899 16.0771 19.5 19.667 19.5M32.667 19.5H19.667M19.667 19.5C17.9431 19.5 16.2898 20.1848 15.0708 21.4038C13.8518 22.6228 13.167 24.2761 13.167 26C13.167 27.7239 13.8518 29.3772 15.0708 30.5962C16.2898 31.8152 17.9431 32.5 19.667 32.5M19.667 32.5H26.167M19.667 32.5C18.3814 32.5 17.1247 32.8812 16.0558 33.5954C14.9869 34.3097 14.1537 35.3248 13.6618 36.5126C13.1698 37.7003 13.0411 39.0072 13.2919 40.2681C13.5427 41.529 14.1618 42.6872 15.0708 43.5962C15.9798 44.5052 17.138 45.1243 18.3989 45.3751C19.6598 45.6259 20.9667 45.4972 22.1544 45.0052C23.3422 44.5132 24.3573 43.6801 25.0715 42.6112C25.7858 41.5423 26.167 40.2856 26.167 39V6.5" stroke="#2035F1" stroke-width="3" stroke-linecap="round" stroke-linejoin="round"/>
</svg>
