<svg width="53" height="52" viewBox="0 0 53 52" fill="none" xmlns="http://www.w3.org/2000/svg">
<path d="M19.834 41.1663C10.5173 44.1996 10.5173 35.7496 6.83398 34.6663M32.834 45.4996V37.9163C32.834 35.7496 33.0506 34.883 31.7506 33.583C37.8173 32.933 43.6673 30.5497 43.6673 20.583C43.6647 17.9937 42.6545 15.5072 40.8507 13.6497C41.6967 11.4006 41.6188 8.90818 40.634 6.71632C40.634 6.71632 38.2506 6.06632 33.0506 9.53298C28.6463 8.38592 24.0216 8.38592 19.6173 9.53298C14.4173 6.06632 12.034 6.71632 12.034 6.71632C11.0492 8.90818 10.9713 11.4006 11.8173 13.6497C10.0135 15.5072 9.00329 17.9937 9.00065 20.583C9.00065 30.5497 14.8507 32.933 20.9173 33.583C19.6173 34.883 19.6173 36.183 19.834 37.9163V45.4996" stroke="#7000FF" stroke-width="3" stroke-linecap="round" stroke-linejoin="round"/>
</svg>
