<svg width="53" height="52" viewBox="0 0 53 52" fill="none" xmlns="http://www.w3.org/2000/svg">
<path d="M18.1673 43.3333L26.834 23.8333M24.0173 30.3333C24.9642 33.0698 27.1157 34.6667 29.5423 34.6667C34.0295 34.6667 37.6673 31.2997 37.6673 26C37.6692 24.418 37.3245 22.8547 36.6575 21.4201C35.9906 19.9855 35.0175 18.7144 33.8067 17.6962C32.5959 16.6779 31.1768 15.9372 29.6491 15.5261C28.1214 15.115 26.5222 15.0435 24.9639 15.3166C23.4056 15.5897 21.926 16.2008 20.6292 17.1069C19.3323 18.0131 18.2497 19.1922 17.4573 20.5615C16.665 21.9309 16.1821 23.4571 16.0428 25.033C15.9034 26.6089 16.1109 28.1962 16.6507 29.6833M46.334 26C46.334 36.7696 37.6035 45.5 26.834 45.5C16.0644 45.5 7.33398 36.7696 7.33398 26C7.33398 15.2304 16.0644 6.5 26.834 6.5C37.6035 6.5 46.334 15.2304 46.334 26Z" stroke="#FF0000" stroke-width="3" stroke-linecap="round" stroke-linejoin="round"/>
</svg>
