<svg width="20" height="20" viewBox="0 0 20 20" fill="none" xmlns="http://www.w3.org/2000/svg">
<path fill-rule="evenodd" clip-rule="evenodd" d="M9.16634 3.33268C8.7061 3.33268 8.33301 3.70578 8.33301 4.16602C8.33301 4.62625 8.7061 4.99935 9.16634 4.99935H10.833C11.2932 4.99935 11.6663 4.62625 11.6663 4.16602C11.6663 3.70578 11.2932 3.33268 10.833 3.33268H9.16634ZM6.8086 3.33268C7.15179 2.36169 8.07783 1.66602 9.16634 1.66602H10.833C11.9215 1.66602 12.8476 2.36169 13.1908 3.33268H14.1663C14.8294 3.33268 15.4653 3.59607 15.9341 4.06492C16.4029 4.53376 16.6663 5.16964 16.6663 5.83268V15.8327C16.6663 16.4957 16.4029 17.1316 15.9341 17.6005C15.4653 18.0693 14.8294 18.3327 14.1663 18.3327H5.83301C5.16997 18.3327 4.53408 18.0693 4.06524 17.6005C3.5964 17.1316 3.33301 16.4957 3.33301 15.8327V5.83268C3.33301 5.16964 3.5964 4.53376 4.06524 4.06492C4.53408 3.59607 5.16997 3.33268 5.83301 3.33268H6.8086ZM6.8086 4.99935H5.83301C5.61199 4.99935 5.40003 5.08715 5.24375 5.24343C5.08747 5.39971 4.99967 5.61167 4.99967 5.83268V15.8327C4.99967 16.0537 5.08747 16.2657 5.24375 16.4219C5.40003 16.5782 5.61199 16.666 5.83301 16.666H14.1663C14.3874 16.666 14.5993 16.5782 14.7556 16.4219C14.9119 16.2657 14.9997 16.0537 14.9997 15.8327V5.83268C14.9997 5.61167 14.9119 5.39971 14.7556 5.24343C14.5993 5.08715 14.3874 4.99935 14.1663 4.99935H13.1908C12.8476 5.97034 11.9215 6.66602 10.833 6.66602H9.16634C8.07783 6.66602 7.15179 5.97034 6.8086 4.99935ZM7.49967 9.16602C7.95991 9.16602 8.33301 9.53911 8.33301 9.99935V14.166C8.33301 14.6263 7.95991 14.9993 7.49967 14.9993C7.03944 14.9993 6.66634 14.6263 6.66634 14.166V9.99935C6.66634 9.53911 7.03944 9.16602 7.49967 9.16602ZM12.4997 10.8327C12.9599 10.8327 13.333 11.2058 13.333 11.666V14.166C13.333 14.6263 12.9599 14.9993 12.4997 14.9993C12.0394 14.9993 11.6663 14.6263 11.6663 14.166V11.666C11.6663 11.2058 12.0394 10.8327 12.4997 10.8327ZM9.99967 12.4993C10.4599 12.4993 10.833 12.8724 10.833 13.3327V14.166C10.833 14.6263 10.4599 14.9993 9.99967 14.9993C9.53944 14.9993 9.16634 14.6263 9.16634 14.166V13.3327C9.16634 12.8724 9.53944 12.4993 9.99967 12.4993Z" fill="white"/>
</svg>
