<svg width="24" height="25" viewBox="0 0 24 25" fill="none" xmlns="http://www.w3.org/2000/svg">
<path d="M13.9998 21.4883H9.99977M17.9998 8.48828C17.9998 6.89698 17.3676 5.37086 16.2424 4.24564C15.1172 3.12042 13.5911 2.48828 11.9998 2.48828C10.4085 2.48828 8.88235 3.12042 7.75713 4.24564C6.63192 5.37086 5.99977 6.89698 5.99977 8.48828C5.99977 11.5785 5.22024 13.6942 4.34944 15.0937C3.6149 16.2742 3.24763 16.8644 3.2611 17.029C3.27601 17.2114 3.31463 17.2809 3.46155 17.3899C3.59423 17.4883 4.19237 17.4883 5.38863 17.4883H18.6109C19.8072 17.4883 20.4053 17.4883 20.538 17.3899C20.6849 17.2809 20.7235 17.2114 20.7384 17.029C20.7519 16.8644 20.3846 16.2742 19.6501 15.0937C18.7793 13.6942 17.9998 11.5785 17.9998 8.48828Z" stroke="white" stroke-width="2" stroke-linecap="round" stroke-linejoin="round"/>
</svg>
