<svg width="20" height="20" viewBox="0 0 20 20" fill="none" xmlns="http://www.w3.org/2000/svg">
<path fill-rule="evenodd" clip-rule="evenodd" d="M5.83333 5.00065C5.39131 5.00065 4.96738 5.17625 4.65482 5.48881C4.34226 5.80137 4.16667 6.22529 4.16667 6.66732V11.6673C4.16667 12.1093 4.34226 12.5333 4.65482 12.8458C4.96738 13.1584 5.39131 13.334 5.83333 13.334H7.5C7.72101 13.334 7.93298 13.4218 8.08926 13.5781L10 15.4888L11.9107 13.5781C12.067 13.4218 12.279 13.334 12.5 13.334H14.1667C14.6087 13.334 15.0326 13.1584 15.3452 12.8458C15.6577 12.5333 15.8333 12.1093 15.8333 11.6673V6.66732C15.8333 6.22529 15.6577 5.80137 15.3452 5.48881C15.0326 5.17625 14.6087 5.00065 14.1667 5.00065H5.83333ZM3.47631 4.3103C4.10143 3.68517 4.94928 3.33398 5.83333 3.33398H14.1667C15.0507 3.33398 15.8986 3.68517 16.5237 4.3103C17.1488 4.93542 17.5 5.78326 17.5 6.66732V11.6673C17.5 12.5514 17.1488 13.3992 16.5237 14.0243C15.8986 14.6495 15.0507 15.0007 14.1667 15.0007H12.8452L10.5893 17.2566C10.2638 17.582 9.73618 17.582 9.41074 17.2566L7.15482 15.0007H5.83333C4.94928 15.0007 4.10143 14.6495 3.47631 14.0243C2.85119 13.3992 2.5 12.5514 2.5 11.6673V6.66732C2.5 5.78326 2.85119 4.93542 3.47631 4.3103ZM5.83333 7.50065C5.83333 7.04041 6.20643 6.66732 6.66667 6.66732H13.3333C13.7936 6.66732 14.1667 7.04041 14.1667 7.50065C14.1667 7.96089 13.7936 8.33398 13.3333 8.33398H6.66667C6.20643 8.33398 5.83333 7.96089 5.83333 7.50065ZM5.83333 10.834C5.83333 10.3737 6.20643 10.0007 6.66667 10.0007H11.6667C12.1269 10.0007 12.5 10.3737 12.5 10.834C12.5 11.2942 12.1269 11.6673 11.6667 11.6673H6.66667C6.20643 11.6673 5.83333 11.2942 5.83333 10.834Z" fill="white"/>
</svg>
