<svg width="20" height="20" viewBox="0 0 20 20" fill="none" xmlns="http://www.w3.org/2000/svg">
<path fill-rule="evenodd" clip-rule="evenodd" d="M8.84809 2.56346C9.15948 2.43447 9.51792 2.50577 9.75625 2.7441C10.3041 3.29192 10.99 4.48896 11.3298 5.85271C11.6137 6.9924 11.6848 8.36859 11.1322 9.65821C11.1496 9.65397 11.1643 9.64813 11.1775 9.64285C11.2748 9.60396 11.4494 9.49567 11.7062 9.20933C11.96 8.92619 12.2602 8.5075 12.6176 7.90707C12.7535 7.67886 12.99 7.52908 13.2544 7.50381C13.5187 7.47853 13.7793 7.5808 13.956 7.77914C14.4339 8.31577 14.8938 9.13081 15.2324 9.9514C15.5691 10.7676 15.8337 11.705 15.8337 12.5C15.8337 14.0471 15.2191 15.5309 14.1251 16.6248C13.0312 17.7188 11.5474 18.3334 10.0003 18.3334C8.45323 18.3334 6.9695 17.7188 5.87554 16.6248C4.78157 15.5309 4.16699 14.0471 4.16699 12.5C4.16699 10.8255 4.89041 8.96424 6.06973 7.75222L6.0702 7.75173C6.09716 7.72408 6.12424 7.69633 6.15141 7.66849C7.17311 6.62164 8.33366 5.43252 8.33366 3.33336C8.33366 2.99631 8.53669 2.69244 8.84809 2.56346ZM9.55872 5.73285C9.01302 7.1293 8.07327 8.08851 7.39183 8.78406C7.34802 8.82877 7.30528 8.8724 7.26378 8.91498L6.66699 8.33336L7.26425 8.9145C6.40024 9.80247 5.83366 11.2413 5.83366 12.5C5.83366 13.6051 6.27265 14.6649 7.05405 15.4463C7.83545 16.2277 8.89526 16.6667 10.0003 16.6667C11.1054 16.6667 12.1652 16.2277 12.9466 15.4463C13.728 14.6649 14.167 13.6051 14.167 12.5C14.167 12.0184 13.9916 11.3141 13.6916 10.587C13.5822 10.3218 13.4627 10.0691 13.3399 9.83826C13.2072 10.0165 13.0765 10.1776 12.9471 10.322C12.5967 10.7127 12.2199 11.0211 11.7959 11.1905C10.8304 11.5764 10.034 11.1093 9.46919 10.6422C9.1386 10.3687 9.06964 9.88896 9.30983 9.53348C9.9619 8.56842 9.99315 7.3818 9.71255 6.25567C9.6675 6.07488 9.61549 5.90011 9.55872 5.73285Z" fill="#FF5555"/>
</svg>
