<svg width="24" height="24" viewBox="0 0 24 24" fill="none" xmlns="http://www.w3.org/2000/svg">
<g clip-path="url(#clip0_312_9866)">
<path d="M12.2344 9.81836V14.4657H18.6926C18.409 15.9602 17.558 17.2257 16.2816 18.0766L20.1762 21.0985C22.4453 19.004 23.7544 15.9276 23.7544 12.273C23.7544 11.4221 23.678 10.6039 23.5362 9.81849L12.2344 9.81836Z" fill="#4285F4"/>
<path d="M5.50901 14.2832L4.63064 14.9556L1.52148 17.3774C3.49604 21.2937 7.54303 23.9992 12.2339 23.9992C15.4739 23.9992 18.1902 22.9301 20.1757 21.0974L16.2812 18.0756C15.2121 18.7956 13.8484 19.232 12.2339 19.232C9.11393 19.232 6.46308 17.1265 5.51392 14.2901L5.50901 14.2832Z" fill="#34A853"/>
<path d="M1.52156 6.62109C0.70342 8.23558 0.234375 10.0574 0.234375 11.9992C0.234375 13.941 0.70342 15.7629 1.52156 17.3774C1.52156 17.3882 5.51438 14.2792 5.51438 14.2792C5.27438 13.5592 5.13252 12.7956 5.13252 11.9991C5.13252 11.2026 5.27438 10.439 5.51438 9.71904L1.52156 6.62109Z" fill="#FBBC05"/>
<path d="M12.2342 4.7782C14.0015 4.7782 15.5724 5.3891 16.8269 6.56731L20.2633 3.13097C18.1796 1.18917 15.4742 0 12.2342 0C7.54328 0 3.49604 2.69456 1.52148 6.62186L5.51418 9.72007C6.46322 6.88366 9.11418 4.7782 12.2342 4.7782Z" fill="#EA4335"/>
</g>
<defs>
<clipPath id="clip0_312_9866">
<rect width="24" height="24" fill="white"/>
</clipPath>
</defs>
</svg>
