<svg width="20" height="20" viewBox="0 0 20 20" fill="none" xmlns="http://www.w3.org/2000/svg">
<path fill-rule="evenodd" clip-rule="evenodd" d="M10.0003 2.50065C10.9208 2.50065 11.667 3.24684 11.667 4.16732V8.33398C11.667 9.25446 10.9208 10.0007 10.0003 10.0007C9.07985 10.0007 8.33366 9.25446 8.33366 8.33398V4.16732C8.33366 3.24684 9.07985 2.50065 10.0003 2.50065ZM13.3337 4.16732C13.3337 2.32637 11.8413 0.833984 10.0003 0.833984C8.15938 0.833984 6.66699 2.32637 6.66699 4.16732V8.33398C6.66699 10.1749 8.15938 11.6673 10.0003 11.6673C11.8413 11.6673 13.3337 10.1749 13.3337 8.33398V4.16732ZM15.8337 7.50065C15.3734 7.50065 15.0003 7.87375 15.0003 8.33398C15.0003 9.66007 14.4735 10.9318 13.5359 11.8695C12.5982 12.8072 11.3264 13.334 10.0003 13.334C8.67424 13.334 7.40247 12.8072 6.46479 11.8695C5.52711 10.9318 5.00033 9.66007 5.00033 8.33398C5.00033 7.87375 4.62723 7.50065 4.16699 7.50065C3.70675 7.50065 3.33366 7.87375 3.33366 8.33398C3.33366 10.1021 4.03604 11.7978 5.28628 13.048C6.33847 14.1002 7.70616 14.7644 9.16699 14.9484V16.6673H6.66699C6.20675 16.6673 5.83366 17.0404 5.83366 17.5007C5.83366 17.9609 6.20675 18.334 6.66699 18.334H13.3337C13.7939 18.334 14.167 17.9609 14.167 17.5007C14.167 17.0404 13.7939 16.6673 13.3337 16.6673H10.8337V14.9484C12.2945 14.7644 13.6622 14.1002 14.7144 13.048C15.9646 11.7978 16.667 10.1021 16.667 8.33398C16.667 7.87375 16.2939 7.50065 15.8337 7.50065Z" fill="white"/>
</svg>
