<svg width="20" height="20" viewBox="0 0 20 20" fill="none" xmlns="http://www.w3.org/2000/svg">
<path fill-rule="evenodd" clip-rule="evenodd" d="M18.0894 1.91012C18.3179 2.13858 18.3937 2.47852 18.2839 2.78241L12.8673 17.7824C12.8594 17.8041 12.8507 17.8255 12.841 17.8465C12.738 18.0714 12.5726 18.2619 12.3644 18.3955C12.1563 18.5291 11.9141 18.6001 11.6668 18.6001C11.4195 18.6001 11.1773 18.5291 10.9692 18.3955C10.766 18.2651 10.6035 18.0805 10.5001 17.8626L7.71234 12.2872L2.1369 9.49945C1.91905 9.39597 1.7344 9.23351 1.60401 9.03033C1.47042 8.82217 1.39941 8.58004 1.39941 8.33271C1.39941 8.08537 1.47042 7.84324 1.60401 7.63509C1.73759 7.42693 1.92813 7.2615 2.15298 7.15846C2.17398 7.14884 2.19537 7.14009 2.2171 7.13224L17.2171 1.71558C17.521 1.60584 17.8609 1.68165 18.0894 1.91012ZM9.34743 11.8306L11.6103 16.3562L15.4472 5.73078L9.34743 11.8306ZM14.2687 4.55228L3.64327 8.38924L8.16892 10.6521L14.2687 4.55228Z" fill="white"/>
</svg>
