<svg width="14" height="14" viewBox="0 0 14 14" fill="none" xmlns="http://www.w3.org/2000/svg">
<g clip-path="url(#clip0_321_7477)">
<path d="M7 13.5C3.41485 13.5 0.5 10.5868 0.5 7.00249C0.5 3.41318 3.41485 0.5 7 0.5C10.5852 0.5 13.5 3.41318 13.5 6.99751C13.5 10.5817 10.5852 13.5 7 13.5ZM12.4793 7.88714C12.2914 7.82615 10.7628 7.37364 9.02107 7.64827C9.74722 9.64117 10.0418 11.2681 10.0977 11.6036C11.3469 10.7648 12.2355 9.43273 12.4793 7.88714ZM9.1684 12.1171C9.08715 11.6291 8.76215 9.93096 7.98518 7.90751C7.975 7.9126 7.95973 7.91769 7.94965 7.91769C4.8164 9.01078 3.69414 11.1817 3.59258 11.385C4.53204 12.1171 5.71528 12.5544 7 12.5544C7.76678 12.5595 8.50313 12.4018 9.1684 12.1171ZM2.87656 10.719C3.00352 10.5055 4.52696 7.98378 7.39097 7.05341C7.46215 7.02795 7.53831 7.00758 7.60938 6.98733C7.47223 6.67208 7.31991 6.35683 7.15741 6.04678C4.38477 6.87542 1.69336 6.83988 1.44961 6.83479C1.44961 6.89069 1.44454 6.94659 1.44454 7.00249C1.44961 8.43119 1.98789 9.73271 2.87656 10.719ZM1.56641 5.86878C1.81523 5.87388 4.10039 5.88406 6.70035 5.19257C5.78125 3.55553 4.78594 2.18283 4.64375 1.98456C3.08477 2.71666 1.92696 4.15037 1.56641 5.86878ZM5.7 1.60833C5.85232 1.81169 6.86285 3.18439 7.77187 4.85706C9.74722 4.11478 10.5801 2.99628 10.6816 2.85393C9.70162 1.98456 8.41169 1.4558 7 1.4558C6.55313 1.4558 6.11643 1.51174 5.7 1.60833ZM11.2961 3.49453C11.1793 3.65213 10.25 4.84687 8.19849 5.68581C8.32535 5.95014 8.45232 6.21957 8.5691 6.4891C8.60972 6.58563 8.65035 6.68226 8.69098 6.7738C10.5395 6.53991 12.3727 6.91615 12.5554 6.95168C12.5403 5.64508 12.073 4.44016 11.2961 3.49453Z" fill="white"/>
</g>
<defs>
<clipPath id="clip0_321_7477">
<rect width="14" height="14" fill="white"/>
</clipPath>
</defs>
</svg>
