<svg width="40" height="42" viewBox="0 0 40 42" fill="none" xmlns="http://www.w3.org/2000/svg">
<g clip-path="url(#clip0_503_1695)">
<path d="M14.5 36.1663C5.18333 39.1996 5.18333 30.7496 1.5 29.6663M27.5 40.4996V32.9163C27.5 30.7496 27.7167 29.883 26.4167 28.583C32.4833 27.933 38.3333 25.5497 38.3333 15.583C38.3307 12.9937 37.3205 10.5072 35.5167 8.64965C36.3627 6.40058 36.2848 3.90818 35.3 1.71632C35.3 1.71632 32.9167 1.06632 27.7167 4.53298C23.3123 3.38592 18.6876 3.38592 14.2833 4.53298C9.08333 1.06632 6.7 1.71632 6.7 1.71632C5.71521 3.90818 5.63732 6.40058 6.48333 8.64965C4.67948 10.5072 3.6693 12.9937 3.66667 15.583C3.66667 25.5497 9.51667 27.933 15.5833 28.583C14.2833 29.883 14.2833 31.183 14.5 32.9163V40.4996" stroke="white" stroke-width="4" stroke-linecap="round" stroke-linejoin="round"/>
</g>
<defs>
<clipPath id="clip0_503_1695">
<rect width="40" height="42" fill="white"/>
</clipPath>
</defs>
</svg>
