<svg width="14" height="14" viewBox="0 0 14 14" fill="none" xmlns="http://www.w3.org/2000/svg">
<path d="M12.6332 12.6336V8.5865C12.6332 6.5975 12.2051 5.07812 9.88456 5.07812C8.7657 5.07812 8.01982 5.68587 7.71595 6.266H7.68832V5.25774H5.49219V12.6336H7.78506V8.97325C7.78506 8.00637 7.96457 7.08099 9.15245 7.08099C10.3266 7.08099 10.3403 8.17212 10.3403 9.0285V12.6197H12.6332V12.6336Z" fill="white"/>
<path d="M1.76367 5.25781H4.05655V12.6337H1.76367V5.25781Z" fill="white"/>
<path d="M2.90998 1.58398C2.17792 1.58398 1.58398 2.17792 1.58398 2.90998C1.58398 3.64205 2.17792 4.2498 2.90998 4.2498C3.64205 4.2498 4.23598 3.64205 4.23598 2.90998C4.23598 2.17792 3.64205 1.58398 2.90998 1.58398Z" fill="white"/>
</svg>
